STARTFONT 2.3
FONT -FontForge-Source Sans Pro-Bold-R-Normal-SansPro--28-280-72-72-P-146-ISO10646-1
SIZE 28 72 72  2
FONTBOUNDINGBOX 74 38 -13 -9
COMMENT "Generated by fontforge, http://fontforge.sourceforge.net"
COMMENT "Copyright 2010, 2012, 2014 Adobe Systems Incorporated (http://www.adobe.com/), with Reserved Font Name `Source'."
STARTPROPERTIES 41
FOUNDRY "FontForge"
FAMILY_NAME "Source Sans Pro"
WEIGHT_NAME "Bold"
SLANT "R"
SETWIDTH_NAME "Normal"
ADD_STYLE_NAME "SansPro"
PIXEL_SIZE 28
POINT_SIZE 280
RESOLUTION_X 72
RESOLUTION_Y 72
SPACING "P"
AVERAGE_WIDTH 146
CHARSET_REGISTRY "ISO10646"
CHARSET_ENCODING "1"
FONTNAME_REGISTRY ""
CHARSET_COLLECTIONS "ISO8859-2 ISO8859-5 ISO8859-7 ISO8859-9 ISO8859-4 ISO10646-1"
BITS_PER_PIXEL 2
FONT_NAME "SourceSansPro-Bold"
FACE_NAME "Source Sans Pro Bold"
COPYRIGHT "Copyright 2010, 2012, 2014 Adobe Systems Incorporated (http://www.adobe.com/), with Reserved Font Name `Source'."
FONT_VERSION "2.021;PS 2.000;hotconv 1.0.86;makeotf.lib2.5.63406"
FONT_ASCENT 21
FONT_DESCENT 7
UNDERLINE_POSITION -3
UNDERLINE_THICKNESS 2
X_HEIGHT 13
CAP_HEIGHT 17
RAW_ASCENT 750
RAW_DESCENT 250
NORM_SPACE 6
RELATIVE_WEIGHT 70
RELATIVE_SETWIDTH 50
SUPERSCRIPT_X 0
SUPERSCRIPT_Y 9
SUPERSCRIPT_SIZE 16
SUBSCRIPT_X 0
SUBSCRIPT_Y 2
SUBSCRIPT_SIZE 16
FIGURE_WIDTH 15
AVG_LOWERCASE_WIDTH 150
AVG_UPPERCASE_WIDTH 178
ENDPROPERTIES
CHARS 1896
STARTCHAR space
ENCODING 32
SWIDTH 200 0
DWIDTH 6 0
BBX 1 1 0 0
BITMAP
00
ENDCHAR
STARTCHAR exclam
ENCODING 33
SWIDTH 340 0
DWIDTH 10 0
BBX 6 20 2 0
BITMAP
1540
7F80
7F80
7F80
3F80
3F80
3F80
3F40
3F40
2F40
2F40
2F40
2F00
0000
0000
2F40
7FC0
BFD0
7FC0
2F40
ENDCHAR
STARTCHAR quotedbl
ENCODING 34
SWIDTH 536 0
DWIDTH 15 0
BBX 11 9 2 10
BITMAP
FF47FC
BF47F8
BF47F8
BF03F8
BF03F8
7F03F4
7E02F4
3E02F0
3D01F0
ENDCHAR
STARTCHAR numbersign
ENCODING 35
SWIDTH 528 0
DWIDTH 15 0
BBX 13 19 1 0
BITMAP
01A02800
02F07C00
02E07C00
02E07C00
03D0B800
7FFFFFC0
7FFFFFC0
7FFFFFC0
07C0F400
07C1F400
0B81F000
FFFFFF40
FFFFFF40
FFFFFF40
0F42E000
0F43E000
1F03D000
1F03D000
2F07C000
ENDCHAR
STARTCHAR dollar
ENCODING 36
SWIDTH 528 0
DWIDTH 15 0
BBX 12 24 1 -3
BITMAP
003E00
003E00
003E00
01BFE0
0BFFFD
2FFFFE
3FD078
7F8000
7FC000
3FE000
1FFE40
0BFFE0
01BFF8
001FFE
0002FF
0000FF
1400FF
3E42FE
BFFFFD
7FFFF8
06FF90
003E00
003E00
003E00
ENDCHAR
STARTCHAR percent
ENCODING 37
SWIDTH 857 0
DWIDTH 24 0
BBX 24 19 0 0
BITMAP
00000002F000
02F90003D000
0FFF800B8000
2F4BD00F4000
3E07E02E0000
7E03E03D0000
7E03E0B80000
7E03E0F40000
3E07E2E06F80
2F4BD7D2FFF0
0FFF8B87E1F8
02F91F0BD0BC
00002E0BC0BD
00007C0BC0BD
0000B80BC0BD
0001F00BD0BC
0002E007E1F8
0007C002FFF0
000F80006F80
ENDCHAR
STARTCHAR ampersand
ENCODING 38
SWIDTH 667 0
DWIDTH 19 0
BBX 18 18 0 0
BITMAP
001BE40000
00BFFD0000
02FFFF0000
03F83F4000
03F43F4000
03F47F0000
02F9FE0000
01FFF80550
01FFE00FE0
07FFC01FD0
1FFFF43FC0
3FDBFDBF40
7F82FFFE00
7F807FFD00
3FE06FFF90
2FFFFFFFF0
0BFFFE2FE0
01BFE40190
ENDCHAR
STARTCHAR quotesingle
ENCODING 39
SWIDTH 300 0
DWIDTH 8 0
BBX 5 9 2 10
BITMAP
FF40
BF40
BF40
BF00
BF00
7F00
7E00
3E00
3D00
ENDCHAR
STARTCHAR parenleft
ENCODING 40
SWIDTH 344 0
DWIDTH 10 0
BBX 6 26 2 -5
BITMAP
0290
03F0
0BE0
0FC0
1F80
2F40
3F40
7F00
BE00
BE00
BD00
FD00
FD00
FD00
FD00
BD00
BE00
BE00
7F00
3F40
2F40
1F80
0FC0
0BE0
03F0
0290
ENDCHAR
STARTCHAR parenright
ENCODING 41
SWIDTH 344 0
DWIDTH 10 0
BBX 7 26 1 -5
BITMAP
1900
7E00
3F40
2F80
0FC0
0BD0
0BE0
07F0
03F4
03F4
03F4
02F8
02F8
02F8
02F8
03F4
03F4
03F4
07F0
0BE0
0BD0
0FC0
2F80
3F40
7E00
1900
ENDCHAR
STARTCHAR asterisk
ENCODING 42
SWIDTH 457 0
DWIDTH 13 0
BBX 11 10 1 10
BITMAP
00B800
00F800
10F810
BEFEF4
BFFFF8
1BFF90
07FF00
0BFF80
1F8BC0
0A0380
ENDCHAR
STARTCHAR plus
ENCODING 43
SWIDTH 528 0
DWIDTH 15 0
BBX 13 13 1 3
BITMAP
003F0000
003F0000
003F0000
003F0000
003F0000
FFFFFF80
FFFFFF80
FFFFFF80
003F0000
003F0000
003F0000
003F0000
003F0000
ENDCHAR
STARTCHAR comma
ENCODING 44
SWIDTH 300 0
DWIDTH 8 0
BBX 6 10 1 -5
BITMAP
1F80
3FE0
3FF0
1FF0
02F0
03E0
1FD0
7F80
7D00
1000
ENDCHAR
STARTCHAR hyphen
ENCODING 45
SWIDTH 332 0
DWIDTH 9 0
BBX 7 3 1 6
BITMAP
BFFC
BFFC
BFFC
ENDCHAR
STARTCHAR period
ENCODING 46
SWIDTH 300 0
DWIDTH 8 0
BBX 6 5 1 0
BITMAP
1F80
3FD0
7FE0
3FD0
1F80
ENDCHAR
STARTCHAR slash
ENCODING 47
SWIDTH 339 0
DWIDTH 9 0
BBX 9 24 0 -4
BITMAP
000F80
001F40
002F00
003F00
003E00
007D00
00BC00
00BC00
00F800
01F400
01F400
02F000
03E000
07E000
07D000
0BC000
0F8000
0F8000
1F4000
2F0000
2F0000
3E0000
7D0000
BC0000
ENDCHAR
STARTCHAR zero
ENCODING 48
SWIDTH 528 0
DWIDTH 15 0
BBX 13 18 1 0
BITMAP
01BF8000
07FFF400
1FFFFC00
3FD1FE00
7F80BF00
BF407F40
BF007F80
FF007F80
FF003F80
FF003F80
FF007F80
BF007F80
BF407F40
7F80BF00
3FD1FE00
1FFFFC00
07FFF400
01BF8000
ENDCHAR
STARTCHAR one
ENCODING 49
SWIDTH 528 0
DWIDTH 15 0
BBX 12 18 2 0
BITMAP
01BF00
1BFF00
BFFF00
BFFF00
BFFF00
01FF00
01FF00
01FF00
01FF00
01FF00
01FF00
01FF00
01FF00
01FF00
01FF00
FFFFFD
FFFFFD
FFFFFD
ENDCHAR
STARTCHAR two
ENCODING 50
SWIDTH 528 0
DWIDTH 15 0
BBX 13 18 1 0
BITMAP
06FE4000
2FFFE000
BFFFF800
7E07FD00
1401FE00
0001FE00
0001FE00
0002FD00
0007FC00
000FF800
002FF000
00BFD000
01FF4000
07FE0000
1FF80000
7FFFFF80
FFFFFF80
FFFFFF80
ENDCHAR
STARTCHAR three
ENCODING 51
SWIDTH 528 0
DWIDTH 15 0
BBX 13 18 1 0
BITMAP
06FE9000
6FFFF400
BFFFFD00
2E46FE00
0401FE00
0001FE00
0017FD00
01FFF400
01FFD000
01FFF800
0007FE00
0000FF40
0000BF40
2000FF40
7D02FF00
FFFFFE00
7FFFF800
06FF9000
ENDCHAR
STARTCHAR four
ENCODING 52
SWIDTH 528 0
DWIDTH 15 0
BBX 14 18 0 0
BITMAP
0007FF00
000FFF00
001FFF00
003FFF00
00BFBF00
01FDBF00
02FCBF00
07F4BF00
0FF0BF00
2FD0BF00
7F80BF00
7FFFFFF0
7FFFFFF0
7FFFFFF0
0000BF00
0000BF00
0000BF00
0000BF00
ENDCHAR
STARTCHAR five
ENCODING 53
SWIDTH 528 0
DWIDTH 15 0
BBX 13 18 1 0
BITMAP
1FFFFE00
2FFFFE00
2FFFFE00
2FC00000
2FC00000
2FC00000
2FEF9000
3FFFF800
3FFFFE00
0A06FF00
0000FF40
0000BF40
0000BF40
2000FF40
7D06FE00
FFFFFD00
7FFFF400
06FE8000
ENDCHAR
STARTCHAR six
ENCODING 54
SWIDTH 528 0
DWIDTH 15 0
BBX 13 18 1 0
BITMAP
006FE400
02FFFE00
0BFFFF00
1FE42C00
3FC00000
7F800000
BF400000
BF1BE400
BFBFFD00
FFFFFF00
BFD0BF80
BF403F80
7F403F80
7F807F80
2FD0BF40
1FFFFE00
07FFF800
00BF9000
ENDCHAR
STARTCHAR seven
ENCODING 55
SWIDTH 528 0
DWIDTH 15 0
BBX 13 18 1 0
BITMAP
BFFFFF80
BFFFFF80
BFFFFF40
0000FE00
0002F800
0007F400
000FE000
001FD000
002FC000
003F8000
007F4000
00BF4000
00FF0000
00FF0000
01FE0000
01FE0000
01FE0000
02FE0000
ENDCHAR
STARTCHAR eight
ENCODING 56
SWIDTH 528 0
DWIDTH 15 0
BBX 13 18 1 0
BITMAP
01BF9000
0BFFF800
2FFFFD00
3FD1FE00
3F40BF00
3F80BE00
2FE4FD00
0FFFF400
03FFE000
0BFFFD00
3F9BFF00
7F00FF40
BE007F80
BF007F80
BF81BF40
3FFFFF00
1FFFFC00
02BF9000
ENDCHAR
STARTCHAR nine
ENCODING 57
SWIDTH 528 0
DWIDTH 15 0
BBX 13 18 1 0
BITMAP
02FE4000
1FFFE000
3FFFF800
BF82FD00
FF00BF00
FE007F40
FF007F40
BF81FF80
7FFFFF80
2FFFBF80
06F97F40
00007F40
0000BF00
0001FE00
1D07FD00
7FFFF800
7FFFE000
06FE4000
ENDCHAR
STARTCHAR colon
ENCODING 58
SWIDTH 300 0
DWIDTH 8 0
BBX 6 14 1 0
BITMAP
1F80
3FD0
7FE0
3FD0
1F80
0000
0000
0000
0000
1F80
3FD0
7FE0
3FD0
1F80
ENDCHAR
STARTCHAR semicolon
ENCODING 59
SWIDTH 300 0
DWIDTH 8 0
BBX 6 19 1 -5
BITMAP
1F80
3FD0
7FE0
3FD0
1F80
0000
0000
0000
0000
1F80
3FE0
3FF0
1FF0
02F0
03E0
1FD0
7F80
7D00
1000
ENDCHAR
STARTCHAR less
ENCODING 60
SWIDTH 528 0
DWIDTH 15 0
BBX 13 13 1 3
BITMAP
00000180
00006F80
000BFF80
01BFFF40
6FFFE400
FFF90000
FF800000
FFF90000
6FFFE400
01BFFF40
000BFF80
00006F80
00000180
ENDCHAR
STARTCHAR equal
ENCODING 61
SWIDTH 528 0
DWIDTH 15 0
BBX 13 9 1 5
BITMAP
FFFFFF80
FFFFFF80
FFFFFF80
00000000
00000000
00000000
FFFFFF80
FFFFFF80
FFFFFF80
ENDCHAR
STARTCHAR greater
ENCODING 62
SWIDTH 528 0
DWIDTH 15 0
BBX 13 13 1 3
BITMAP
90000000
FE400000
FFE40000
BFFF9000
06FFFD00
001BFF80
0000BF80
001BFF80
06FFFD00
BFFF9000
FFE40000
FE400000
90000000
ENDCHAR
STARTCHAR question
ENCODING 63
SWIDTH 463 0
DWIDTH 13 0
BBX 11 19 1 0
BITMAP
06FE40
2FFFE0
BFFFF4
1D0BF8
0007F8
0007F8
000FF4
003FD0
00BF80
01FE00
02FC00
02FC00
000000
000000
01F800
03FD00
07FE00
03FD00
01F800
ENDCHAR
STARTCHAR at
ENCODING 64
SWIDTH 903 0
DWIDTH 25 0
BBX 23 24 1 -5
BITMAP
00001BFE4000
0006FFFFF400
002FFFFFFE00
00BFE405BF80
02FE00001FD0
07F4000007F0
0FD01BD682F4
1F807FFF80F8
2F41FFFF80F8
3E03F87F40BC
7D07F02F00BC
7D0BE03F00B8
BD0BD07E00F8
BD0BD0BE01F4
BD0BE1FE07F0
7D07FFFFAFD0
7E03FFAFFF80
3F40BE0BFD00
1FC000004000
0FF400000000
07FE501A0000
01FFFFFF0000
002FFFFF4000
0001BFE40000
ENDCHAR
STARTCHAR A
ENCODING 65
SWIDTH 573 0
DWIDTH 16 0
BBX 16 18 0 0
BITMAP
002FF800
003FFC00
007FFD00
00BEFE00
00FEBF00
01FD7F40
02FC7F80
03FC3FC0
03F82FD0
07F41FE0
0BF01FF0
0FFFFFF0
1FFFFFF4
2FFFFFF8
3FC003FC
7F8003FD
BF4002FE
FF4001FF
ENDCHAR
STARTCHAR B
ENCODING 66
SWIDTH 605 0
DWIDTH 17 0
BBX 14 18 2 0
BITMAP
FFFFE400
FFFFFE00
FFFFFF80
FFFFFFC0
FF407FC0
FF403FC0
FF40BF80
FFFFFE00
FFFFFD00
FFFFFF80
FF406FE0
FF400FF0
FF400FF0
FF406FF0
FFFFFFE0
FFFFFFC0
FFFFFF40
FFFFE400
ENDCHAR
STARTCHAR C
ENCODING 67
SWIDTH 582 0
DWIDTH 16 0
BBX 15 18 1 0
BITMAP
001BF900
01BFFFD0
07FFFFF0
0FFFFFE0
2FF907C0
3FE00000
7FC00000
BF800000
BF800000
BF800000
BF800000
7FC00000
7FE00040
2FF907D0
1FFFFFF4
07FFFFF4
01FFFFD0
001BF900
ENDCHAR
STARTCHAR D
ENCODING 68
SWIDTH 635 0
DWIDTH 18 0
BBX 15 18 2 0
BITMAP
FFFE9000
FFFFFD00
FFFFFF40
FFFFFFC0
FF45BFE0
FF402FF0
FF401FF4
FF400FF4
FF400BF4
FF400BF4
FF400FF4
FF401FF4
FF402FF0
FF41FFE0
FFFFFFC0
FFFFFF40
FFFFF900
FFFF9000
ENDCHAR
STARTCHAR E
ENCODING 69
SWIDTH 548 0
DWIDTH 15 0
BBX 12 18 2 0
BITMAP
FFFFFE
FFFFFE
FFFFFE
FFFFFE
FF4000
FF4000
FF4000
FFFFF4
FFFFF4
FFFFF4
FF4000
FF4000
FF4000
FF4000
FFFFFF
FFFFFF
FFFFFF
FFFFFF
ENDCHAR
STARTCHAR F
ENCODING 70
SWIDTH 524 0
DWIDTH 15 0
BBX 12 18 2 0
BITMAP
FFFFFE
FFFFFE
FFFFFE
FFFFFE
FF4000
FF4000
FF4000
FF4000
FFFFF8
FFFFF8
FFFFF8
FF4000
FF4000
FF4000
FF4000
FF4000
FF4000
FF4000
ENDCHAR
STARTCHAR G
ENCODING 71
SWIDTH 638 0
DWIDTH 18 0
BBX 16 18 1 0
BITMAP
001BFE40
00BFFFE0
07FFFFF8
0FFFFFF4
2FF902E0
3FE00040
7FC00000
BF800000
BF807FFD
BF807FFD
BF807FFD
7FC001FD
3FE001FD
2FF902FD
1FFFFFFD
07FFFFFD
01FFFFF4
001BFE40
ENDCHAR
STARTCHAR H
ENCODING 72
SWIDTH 674 0
DWIDTH 19 0
BBX 15 18 2 0
BITMAP
FF4007F8
FF4007F8
FF4007F8
FF4007F8
FF4007F8
FF4007F8
FFFFFFF8
FFFFFFF8
FFFFFFF8
FFFFFFF8
FF4007F8
FF4007F8
FF4007F8
FF4007F8
FF4007F8
FF4007F8
FF4007F8
FF4007F8
ENDCHAR
STARTCHAR I
ENCODING 73
SWIDTH 301 0
DWIDTH 8 0
BBX 5 18 2 0
BITMAP
FF40
FF40
FF40
FF40
FF40
FF40
FF40
FF40
FF40
FF40
FF40
FF40
FF40
FF40
FF40
FF40
FF40
FF40
ENDCHAR
STARTCHAR J
ENCODING 74
SWIDTH 509 0
DWIDTH 14 0
BBX 13 18 0 0
BITMAP
0000FF40
0000FF40
0000FF40
0000FF40
0000FF40
0000FF40
0000FF40
0000FF40
0000FF40
0000FF40
0000FF40
0000FF40
0500FF00
2F42FF00
7FFFFE00
2FFFFD00
0BFFF400
01BF9000
ENDCHAR
STARTCHAR K
ENCODING 75
SWIDTH 614 0
DWIDTH 17 0
BBX 15 18 2 0
BITMAP
FF402FF0
FF407FD0
FF40FF40
FF42FE00
FF47FC00
FF5FF400
FF7FD000
FFFFC000
FFFFE000
FFFFF400
FFFBF800
FFE3FD00
FF81FF00
FF40BF80
FF407FD0
FF402FE0
FF400FF4
FF4007FC
ENDCHAR
STARTCHAR L
ENCODING 76
SWIDTH 518 0
DWIDTH 15 0
BBX 12 18 2 0
BITMAP
FF4000
FF4000
FF4000
FF4000
FF4000
FF4000
FF4000
FF4000
FF4000
FF4000
FF4000
FF4000
FF4000
FF4000
FFFFFE
FFFFFE
FFFFFE
FFFFFE
ENDCHAR
STARTCHAR M
ENCODING 77
SWIDTH 762 0
DWIDTH 21 0
BBX 18 18 2 0
BITMAP
FFC0007FD0
FFD000FFD0
FFE001FFD0
FFF002FFD0
FFF403FFD0
FFF807EFD0
FEFC0BEFD0
FEBD0FDFD0
FE7E1F9FD0
FE3F2F5FD0
FE2F7F2FD0
FF1FFE2FD0
FF0FFD2FD0
FF0BFC2FD0
FF07F42FD0
FF03F02FD0
FF01502FD0
FF00002FD0
ENDCHAR
STARTCHAR N
ENCODING 78
SWIDTH 665 0
DWIDTH 19 0
BBX 15 18 2 0
BITMAP
FF8007F4
FFD007F4
FFE007F4
FFF407F4
FFF807F4
FEFD07F4
FEBE07F4
FE7F47F4
FF2FC7F4
FF1FD7F4
FF0BF7F4
FF07F7F4
FF02FBF4
FF01FFF4
FF00BFF4
FF003FF4
FF002FF4
FF000FF4
ENDCHAR
STARTCHAR O
ENCODING 79
SWIDTH 684 0
DWIDTH 19 0
BBX 17 18 1 0
BITMAP
001BFA0000
01FFFFE000
0BFFFFF800
1FFFFFFD00
2FF807FF00
7FD001FF40
7FC000BF80
BF8000BF80
BF80007F80
BF80007F80
BF8000BF80
7FC000BF80
7FE001FF40
2FF807FF00
1FFFFFFD00
07FFFFF800
01FFFFD000
001BFA0000
ENDCHAR
STARTCHAR P
ENCODING 80
SWIDTH 596 0
DWIDTH 17 0
BBX 14 18 2 0
BITMAP
FFFFA400
FFFFFE00
FFFFFF80
FFFFFFD0
FF407FE0
FF402FE0
FF401FE0
FF402FD0
FF40BFC0
FFFFFF80
FFFFFE00
FFFFA000
FF400000
FF400000
FF400000
FF400000
FF400000
FF400000
ENDCHAR
STARTCHAR Q
ENCODING 81
SWIDTH 684 0
DWIDTH 19 0
BBX 18 24 1 -6
BITMAP
001BFA0000
01FFFFE000
0BFFFFF800
1FFFFFFD00
2FF807FF00
7FD001FF40
7FC000BF80
BF80007F80
BF80007F80
BF80007F80
BF8000BF80
7FC000BF80
7FE001FF40
3FF807FF00
1FFFFFFD00
0BFFFFF800
02FFFFE000
006FFE4000
0003FE0000
0002FF9000
0000FFFFD0
00007FFFD0
00001BFFE0
000001BF90
ENDCHAR
STARTCHAR R
ENCODING 82
SWIDTH 613 0
DWIDTH 17 0
BBX 15 18 2 0
BITMAP
FFFFE400
FFFFFE00
FFFFFF80
FFFFFFD0
FF407FE0
FF401FE0
FF401FE0
FF402FE0
FF407FD0
FFFFFF80
FFFFFE00
FFFFF800
FF47FD00
FF42FF00
FF40FF40
FF407FC0
FF402FE0
FF401FF4
ENDCHAR
STARTCHAR S
ENCODING 83
SWIDTH 556 0
DWIDTH 16 0
BBX 14 18 1 0
BITMAP
00AFE400
07FFFE00
1FFFFF80
3FFFFF40
7FD06E00
7FC00000
3FE40000
2FFF9000
0BFFF900
01FFFF40
001BFFC0
0000BFD0
08002FE0
2F907FE0
BFFFFFD0
7FFFFF80
1FFFFE00
01BFA400
ENDCHAR
STARTCHAR T
ENCODING 84
SWIDTH 556 0
DWIDTH 16 0
BBX 15 18 0 0
BITMAP
7FFFFFFC
7FFFFFFC
7FFFFFFC
7FFFFFFC
001FF000
001FF000
001FF000
001FF000
001FF000
001FF000
001FF000
001FF000
001FF000
001FF000
001FF000
001FF000
001FF000
001FF000
ENDCHAR
STARTCHAR U
ENCODING 85
SWIDTH 665 0
DWIDTH 19 0
BBX 15 18 2 0
BITMAP
FF4007F8
FF4007F8
FF4007F8
FF4007F8
FF4007F8
FF4007F8
FF4007F8
FF4007F8
FF4007F8
FF4007F8
FF4007F4
BF400BF4
BF800FF4
7FE06FF0
3FFFFFE0
1FFFFFC0
07FFFF40
00AFE400
ENDCHAR
STARTCHAR V
ENCODING 86
SWIDTH 556 0
DWIDTH 16 0
BBX 16 18 0 0
BITMAP
FF4002FE
BF8002FD
7F8003FC
3FC007F8
2FD00BF4
2FE00FF0
1FF00FE0
0FF01FD0
0BF42FD0
07F83FC0
03FC3F80
02FC7F40
01FDBF00
00FEFE00
00BFFD00
007FFC00
003FF800
003FF400
ENDCHAR
STARTCHAR W
ENCODING 87
SWIDTH 813 0
DWIDTH 23 0
BBX 23 18 0 0
BITMAP
BF801FD00BF4
7FC02FE00BF0
3FC02FF00FF0
3FC03FF00FE0
2FD07FF41FE0
2FD0BFF81FD0
1FE0BEF82FD0
1FE0FDFC2FC0
0FF1FCFD2FC0
0BF1F8FD3F80
0BF2F4BE3F80
07F6F47F7F40
07F7F07F7F00
03FBE03FBF00
03FFE02FFE00
02FFD02FFE00
02FFD01FFD00
01FFC00FFD00
ENDCHAR
STARTCHAR X
ENCODING 88
SWIDTH 567 0
DWIDTH 16 0
BBX 16 18 0 0
BITMAP
3FD007FC
2FF00BF4
0FF41FF0
07FC2FD0
03FD3FC0
01FE7F40
00FFFE00
007FFD00
002FF800
003FF800
00BFFD00
00FEFF00
02FDBF80
07F87FC0
0BF42FE0
1FF01FF4
3FD00BF8
7FC007FD
ENDCHAR
STARTCHAR Y
ENCODING 89
SWIDTH 525 0
DWIDTH 15 0
BBX 15 18 0 0
BITMAP
FF400BF8
BF800FF4
3FD01FE0
2FE02FD0
0FF07F80
0BF4BF40
03F8FE00
02FDFD00
01FFFC00
00BFF400
007FF000
002FD000
002FD000
002FD000
002FD000
002FD000
002FD000
002FD000
ENDCHAR
STARTCHAR Z
ENCODING 90
SWIDTH 541 0
DWIDTH 15 0
BBX 14 18 1 0
BITMAP
7FFFFFC0
7FFFFFC0
7FFFFFC0
7FFFFF80
0001FF00
0003FD00
000BF800
001FE000
007FC000
00FF4000
02FE0000
07FC0000
1FF40000
3FD00000
BFFFFFD0
FFFFFFD0
FFFFFFD0
FFFFFFD0
ENDCHAR
STARTCHAR bracketleft
ENCODING 91
SWIDTH 344 0
DWIDTH 10 0
BBX 7 25 2 -5
BITMAP
BFF4
BFF4
BFF4
BE00
BE00
BE00
BE00
BE00
BE00
BE00
BE00
BE00
BE00
BE00
BE00
BE00
BE00
BE00
BE00
BE00
BE00
BE00
BFF4
BFF4
BFF4
ENDCHAR
STARTCHAR backslash
ENCODING 92
SWIDTH 339 0
DWIDTH 9 0
BBX 8 24 1 -4
BITMAP
F800
F800
BC00
7D00
3E00
3E00
2F00
1F40
1F40
0F80
0BC0
0BD0
07D0
03E0
02F0
02F0
01F4
00F8
00F8
00BC
007D
003E
003E
002F
ENDCHAR
STARTCHAR bracketright
ENCODING 93
SWIDTH 344 0
DWIDTH 10 0
BBX 7 25 1 -5
BITMAP
BFF4
BFF4
BFF4
03F4
03F4
03F4
03F4
03F4
03F4
03F4
03F4
03F4
03F4
03F4
03F4
03F4
03F4
03F4
03F4
03F4
03F4
03F4
BFF4
BFF4
BFF4
ENDCHAR
STARTCHAR asciicircum
ENCODING 94
SWIDTH 528 0
DWIDTH 15 0
BBX 13 11 1 7
BITMAP
007F4000
00FF8000
01FFC000
02FFD000
03F7E000
07E3F400
0BD2F800
1FC1FC00
2F80FD00
3F40BE00
7F007F40
ENDCHAR
STARTCHAR underscore
ENCODING 95
SWIDTH 500 0
DWIDTH 14 0
BBX 14 3 0 -4
BITMAP
BFFFFFE0
BFFFFFE0
BFFFFFE0
ENDCHAR
STARTCHAR grave
ENCODING 96
SWIDTH 555 0
DWIDTH 16 0
BBX 7 7 2 16
BITMAP
0600
1F40
7FD0
2FF4
07FC
01FC
0060
ENDCHAR
STARTCHAR a
ENCODING 97
SWIDTH 527 0
DWIDTH 15 0
BBX 12 14 1 0
BITMAP
06BF90
2FFFF8
3FFFFD
1E42FE
0000FF
006BFF
0BFFFF
3FFFFF
BFE4FF
BF41FF
BF47FF
BFFFFF
3FFFBF
0BF47F
ENDCHAR
STARTCHAR b
ENCODING 98
SWIDTH 573 0
DWIDTH 16 0
BBX 14 20 1 0
BITMAP
7FC00000
7FC00000
7FC00000
7FC00000
7FC00000
7FC00000
7FCBF800
7FFFFF40
7FFFFFC0
7FE47FD0
7FC02FE0
7FC01FF0
7FC01FF0
7FC01FF0
7FC01FE0
7FC02FE0
7FE4BFC0
7FFFFF80
7FBFFE00
7F0BE400
ENDCHAR
STARTCHAR c
ENCODING 99
SWIDTH 467 0
DWIDTH 13 0
BBX 12 14 1 0
BITMAP
00AFE0
07FFFC
1FFFF4
3FE060
BFC000
BF4000
FF4000
FF4000
FF4000
BFC000
7FE064
2FFFF8
0BFFFD
01BFA0
ENDCHAR
STARTCHAR d
ENCODING 100
SWIDTH 573 0
DWIDTH 16 0
BBX 14 20 1 0
BITMAP
00003FD0
00003FD0
00003FD0
00003FD0
00003FD0
00003FD0
01BE6FD0
0BFFFFD0
2FFFFFD0
3FE0BFD0
BF803FD0
BF403FD0
FF403FD0
FF403FD0
BF403FD0
BF803FD0
7FE0BFD0
2FFFFFD0
0FFFEFD0
02FE1FD0
ENDCHAR
STARTCHAR e
ENCODING 101
SWIDTH 518 0
DWIDTH 15 0
BBX 13 14 1 0
BITMAP
01BF9000
0BFFF800
1FFFFD00
3FD0BF00
BF003F40
BFFFFF40
FFFFFF40
FFFFFF40
FF000000
BF800000
7FE41800
2FFFFD00
0BFFFE00
01BFE400
ENDCHAR
STARTCHAR f
ENCODING 102
SWIDTH 341 0
DWIDTH 10 0
BBX 11 20 0 0
BITMAP
006FE4
01FFF0
03FFF0
07FD00
07F800
07F800
7FFFC0
7FFFC0
7FFFC0
07F800
07F800
07F800
07F800
07F800
07F800
07F800
07F800
07F800
07F800
07F800
ENDCHAR
STARTCHAR g
ENCODING 103
SWIDTH 534 0
DWIDTH 15 0
BBX 14 20 1 -6
BITMAP
02BFFFD0
1FFFFFD0
3FFFFFD0
7F82FD00
BF40FD00
BF40FE00
7F82FD00
2FFFFC00
0FFFF400
2FFF8000
3F000000
7F400000
3FFFFA00
2FFFFFC0
2FFFFFD0
BE002FD0
FE407FD0
FFFFFF80
7FFFFE00
06FF9000
ENDCHAR
STARTCHAR h
ENCODING 104
SWIDTH 571 0
DWIDTH 16 0
BBX 14 20 1 0
BITMAP
7FC00000
7FC00000
7FC00000
7FC00000
7FC00000
7FC00000
7FC6F900
7FAFFF40
7FFFFF80
7FF47FC0
7FD03FD0
7FC02FD0
7FC02FD0
7FC02FD0
7FC02FD0
7FC02FD0
7FC02FD0
7FC02FD0
7FC02FD0
7FC02FD0
ENDCHAR
STARTCHAR i
ENCODING 105
SWIDTH 276 0
DWIDTH 8 0
BBX 6 21 1 0
BITMAP
0500
3F80
7FD0
7FC0
2F40
0000
0000
7FC0
7FC0
7FC0
7FC0
7FC0
7FC0
7FC0
7FC0
7FC0
7FC0
7FC0
7FC0
7FC0
7FC0
ENDCHAR
STARTCHAR j
ENCODING 106
SWIDTH 278 0
DWIDTH 8 0
BBX 9 27 -2 -6
BITMAP
001400
00BE00
01FF40
01FF00
00BD00
000000
000000
00FF00
00FF00
00FF00
00FF00
00FF00
00FF00
00FF00
00FF00
00FF00
00FF00
00FF00
00FF00
00FF00
00FF00
00FF00
01FE00
02FE00
3FFD00
3FF800
7F9000
ENDCHAR
STARTCHAR k
ENCODING 107
SWIDTH 548 0
DWIDTH 15 0
BBX 14 20 1 0
BITMAP
7F800000
7F800000
7F800000
7F800000
7F800000
7F800000
7F803FD0
7F80BF80
7F82FE00
7F87F800
7F9FF000
7FFFD000
7FFFD000
7FFFF000
7FFBF800
7FE2FD00
7FC1FF00
7F80BF80
7F803FD0
7F802FE0
ENDCHAR
STARTCHAR l
ENCODING 108
SWIDTH 286 0
DWIDTH 8 0
BBX 7 20 1 0
BITMAP
7FC0
7FC0
7FC0
7FC0
7FC0
7FC0
7FC0
7FC0
7FC0
7FC0
7FC0
7FC0
7FC0
7FC0
7FC0
3FC0
3FC0
3FF4
1FF4
07F4
ENDCHAR
STARTCHAR m
ENCODING 109
SWIDTH 857 0
DWIDTH 24 0
BBX 22 14 1 0
BITMAP
7F46F906F900
7FAFFF6FFF40
7FFFFFFFFF80
7FF4BFF47FC0
7FD03FD03FD0
7FC03FC02FD0
7FC03FC02FD0
7FC03FC02FD0
7FC03FC02FD0
7FC03FC02FD0
7FC03FC02FD0
7FC03FC02FD0
7FC03FC02FD0
7FC03FC02FD0
ENDCHAR
STARTCHAR n
ENCODING 110
SWIDTH 572 0
DWIDTH 16 0
BBX 14 14 1 0
BITMAP
7F46F900
7FAFFF40
7FFFFF80
7FF47FC0
7FD03FD0
7FC02FD0
7FC02FD0
7FC02FD0
7FC02FD0
7FC02FD0
7FC02FD0
7FC02FD0
7FC02FD0
7FC02FD0
ENDCHAR
STARTCHAR o
ENCODING 111
SWIDTH 555 0
DWIDTH 16 0
BBX 14 14 1 0
BITMAP
01BF9000
0BFFFD00
2FFFFF00
3FD0BF80
BF803FC0
FF403FD0
FF402FD0
FF402FD0
FF403FD0
BF803FC0
7FD0BF80
2FFFFF00
0BFFFD00
01BF9000
ENDCHAR
STARTCHAR p
ENCODING 112
SWIDTH 573 0
DWIDTH 16 0
BBX 14 20 1 -6
BITMAP
7F4BF800
7FBFFF40
7FFFFFC0
7FF47FD0
7FC02FE0
7FC01FF0
7FC01FF0
7FC01FF0
7FC01FE0
7FC02FE0
7FE0BFC0
7FFFFF80
7FFFFE00
7FCBE400
7FC00000
7FC00000
7FC00000
7FC00000
7FC00000
7FC00000
ENDCHAR
STARTCHAR q
ENCODING 113
SWIDTH 573 0
DWIDTH 16 0
BBX 14 19 1 -5
BITMAP
01BE4FD0
0BFFEFD0
2FFFFFD0
3FE1BFD0
BF803FD0
BF403FD0
FF403FD0
FF403FD0
BF403FD0
BF803FD0
7FE0BFD0
2FFFFFD0
0FFFFFD0
02FE2FD0
00003FD0
00003FD0
00003FD0
00003FD0
00002FD0
ENDCHAR
STARTCHAR r
ENCODING 114
SWIDTH 398 0
DWIDTH 11 0
BBX 10 14 1 0
BITMAP
7F46F0
7F6FF0
7FFFE0
7FFFE0
7FE400
7FC000
7FC000
7FC000
7FC000
7FC000
7FC000
7FC000
7FC000
7FC000
ENDCHAR
STARTCHAR s
ENCODING 115
SWIDTH 443 0
DWIDTH 12 0
BBX 11 14 1 0
BITMAP
06FE40
2FFFF4
7FFFF0
BF41D0
BF4000
7FE400
2FFF80
07FFE0
006FF4
1007F8
790BF8
FFFFF4
BFFFD0
1BFE40
ENDCHAR
STARTCHAR t
ENCODING 116
SWIDTH 383 0
DWIDTH 11 0
BBX 10 18 0 0
BITMAP
03F800
03F800
07F800
07F800
7FFFE0
BFFFE0
BFFFE0
0BF800
0BF800
0BF800
0BF800
0BF800
0BF800
0BF800
07FD00
03FFE0
01FFF0
006FE0
ENDCHAR
STARTCHAR u
ENCODING 117
SWIDTH 568 0
DWIDTH 16 0
BBX 13 14 1 0
BITMAP
7F803FC0
7F803FC0
7F803FC0
7F803FC0
7F803FC0
7F803FC0
7F803FC0
7F803FC0
7F803FC0
7FC07FC0
3FD1FFC0
2FFFFFC0
1FFF9FC0
06F91FC0
ENDCHAR
STARTCHAR v
ENCODING 118
SWIDTH 523 0
DWIDTH 15 0
BBX 14 14 0 0
BITMAP
7F800BF0
3FC00FE0
2FC01FD0
1FD02FD0
0FE03FC0
0BF03F80
07F47F40
03F4BF00
02F8FE00
01FDFD00
00FEFC00
00BFF800
007FF400
003FF000
ENDCHAR
STARTCHAR w
ENCODING 119
SWIDTH 776 0
DWIDTH 22 0
BBX 21 14 0 0
BITMAP
7FC03FC03FC0
3FC07FC03F80
2FD07FD07F40
1FD0BFE07F40
1FE0FFE0BF00
0FF0FBF0FE00
0BF1F6F4FE00
07F6F6F9FD00
07F6F1F9FC00
03FBF0FEF800
02FFE0FFF800
01FFD0BFF400
01FFD07FF000
00FFC07FF000
ENDCHAR
STARTCHAR x
ENCODING 120
SWIDTH 514 0
DWIDTH 14 0
BBX 14 14 0 0
BITMAP
3FD02FD0
1FF03FC0
0FF4BF40
07FCFE00
02FEFD00
00FFF800
00BFF000
00BFF000
01FFF800
03FBFD00
0BF5FE00
1FE0FF40
2FD07FC0
7FC02FE0
ENDCHAR
STARTCHAR y
ENCODING 121
SWIDTH 521 0
DWIDTH 15 0
BBX 14 20 0 -6
BITMAP
7F800FF0
3FC00FE0
2FD01FD0
1FE02FC0
0FF03F80
0BF47F40
07F87F00
02FCBE00
01FCFD00
00FEFC00
00BFF800
007FF400
003FF000
002FE000
001FD000
002FC000
00BF8000
0FFF0000
1FFD0000
1FE00000
ENDCHAR
STARTCHAR z
ENCODING 122
SWIDTH 460 0
DWIDTH 13 0
BBX 12 14 1 0
BITMAP
7FFFFC
7FFFFC
7FFFF8
001FF0
003FD0
00BF80
01FF00
03FD00
0BF800
1FF400
3FE000
BFFFFD
FFFFFD
FFFFFD
ENDCHAR
STARTCHAR braceleft
ENCODING 123
SWIDTH 344 0
DWIDTH 10 0
BBX 8 25 1 -5
BITMAP
02FD
0BFD
0FFD
0FE0
0FD0
0FD0
0FD0
0BD0
0BD0
0FD0
2FD0
FFC0
FE00
FF80
2FD0
0FD0
0BD0
0BD0
0FD0
0FD0
0FD0
0FE0
0FFD
0BFD
02FD
ENDCHAR
STARTCHAR bar
ENCODING 124
SWIDTH 268 0
DWIDTH 8 0
BBX 3 28 2 -7
BITMAP
BC
BC
BC
BC
BC
BC
BC
BC
BC
BC
BC
BC
BC
BC
BC
BC
BC
BC
BC
BC
BC
BC
BC
BC
BC
BC
BC
BC
ENDCHAR
STARTCHAR braceright
ENCODING 125
SWIDTH 344 0
DWIDTH 10 0
BBX 8 25 1 -5
BITMAP
BE40
BFD0
BFD0
0FE0
0BE0
0BE0
0BD0
0BD0
0BD0
0BD0
0BF4
07FE
01FE
07FE
0BF4
0BD0
0BD0
0BD0
0BD0
0BE0
0BE0
0FE0
BFD0
BFD0
BE40
ENDCHAR
STARTCHAR asciitilde
ENCODING 126
SWIDTH 528 0
DWIDTH 15 0
BBX 13 5 1 7
BITMAP
0BE00500
3FFD1F80
BFFFFF80
BC2FFE00
2406F400
ENDCHAR
STARTCHAR uni00A0
ENCODING 160
SWIDTH 208 0
DWIDTH 6 0
BBX 1 1 0 0
BITMAP
00
ENDCHAR
STARTCHAR exclamdown
ENCODING 161
SWIDTH 340 0
DWIDTH 10 0
BBX 6 20 2 -6
BITMAP
2F40
7FC0
BFD0
7FC0
2F40
0000
0000
2F00
2F40
2F40
2F40
3F40
3F40
3F80
3F80
3F80
7F80
7F80
7F80
1540
ENDCHAR
STARTCHAR cent
ENCODING 162
SWIDTH 528 0
DWIDTH 15 0
BBX 13 19 1 -1
BITMAP
00068000
0007C000
0007C000
006FF900
02FFFF40
0FFFFD00
2FE7C400
3FC7C000
7F87C000
7F87C000
7F87C000
3FC7C000
2FE7C400
0FFFFE00
07FFFF40
006FF900
0007C000
0007C000
00068000
ENDCHAR
STARTCHAR sterling
ENCODING 163
SWIDTH 528 0
DWIDTH 15 0
BBX 13 18 1 0
BITMAP
002BF800
01FFFF40
03FFFF40
0BF91D00
0FF40000
0FF00000
0BF00000
5BFAA400
BFFFF400
BFFFF400
57FD5400
02FC0000
03F80000
0BF00000
2FFFFFC0
BFFFFFC0
BFFFFFC0
BFFFFFC0
ENDCHAR
STARTCHAR currency
ENCODING 164
SWIDTH 528 0
DWIDTH 15 0
BBX 14 13 0 3
BITMAP
1D0002C0
3F6FEBF0
2FFFFFE0
0FFFFF80
1FF47FC0
2FD01FD0
2FC01FD0
2FD01FD0
1FE47FC0
0FFFFF80
2FFFFFD0
7FAFEBF0
1D0002C0
ENDCHAR
STARTCHAR yen
ENCODING 165
SWIDTH 528 0
DWIDTH 15 0
BBX 15 18 0 0
BITMAP
7F800FF4
3FC01FE0
1FE02FD0
0FF03F80
07F47F00
02F8BE00
01FDFC00
00BFF800
3FFFFFE0
3FFFFFE0
002FD000
156FE550
3FFFFFE0
1ABFEA90
002FD000
002FD000
002FD000
002FD000
ENDCHAR
STARTCHAR brokenbar
ENCODING 166
SWIDTH 268 0
DWIDTH 8 0
BBX 3 28 2 -7
BITMAP
BC
BC
BC
BC
BC
BC
BC
BC
BC
BC
BC
BC
14
00
00
68
BC
BC
BC
BC
BC
BC
BC
BC
BC
BC
BC
BC
ENDCHAR
STARTCHAR section
ENCODING 167
SWIDTH 528 0
DWIDTH 15 0
BBX 13 21 1 -2
BITMAP
01BF9000
0BFFF800
1FFFFC00
1FD0B400
1FD00000
1FF90000
0FFF9000
3FFFF800
BF1FFE00
FE01FF40
FE003F80
BFD02F80
3FF97F40
0BFFFE00
01BFF800
001BFC00
0402FC00
1E43FC00
7FFFF800
7FFFF000
06FE4000
ENDCHAR
STARTCHAR dieresis
ENCODING 168
SWIDTH 555 0
DWIDTH 16 0
BBX 11 4 2 16
BITMAP
2E01F4
7F83F8
7F83F8
2E01F4
ENDCHAR
STARTCHAR copyright
ENCODING 169
SWIDTH 750 0
DWIDTH 21 0
BBX 19 19 1 0
BITMAP
000AFE8000
00BFFFF800
02F901BE00
0B80000B80
1F01BE03D0
3D0BFF81F0
782FFFD0B4
B47F424078
B47E000078
B4BD000078
B47E000078
B47F424078
782FFFC0B4
3D0FFFD1F0
1F02FE03D0
0B80000F80
02F901BE00
00BFFFF800
0006FE4000
ENDCHAR
STARTCHAR ordfeminine
ENCODING 170
SWIDTH 359 0
DWIDTH 10 0
BBX 8 10 1 10
BITMAP
1BE4
BFFD
247E
06FF
7FFF
FE3F
F83F
F87F
BFFF
2F5A
ENDCHAR
STARTCHAR guillemotleft
ENCODING 171
SWIDTH 480 0
DWIDTH 13 0
BBX 11 11 1 2
BITMAP
018020
07D0F8
1F83F0
7F0BD0
BD1F80
B81F00
BD1F80
7F0BD0
1F83F0
07D0F8
018020
ENDCHAR
STARTCHAR logicalnot
ENCODING 172
SWIDTH 528 0
DWIDTH 15 0
BBX 13 8 1 3
BITMAP
FFFFFF80
FFFFFF80
FFFFFF80
00001F80
00001F80
00001F80
00001F80
00001F80
ENDCHAR
STARTCHAR uni00AD
ENCODING 173
SWIDTH 332 0
DWIDTH 9 0
BBX 7 3 1 6
BITMAP
BFFC
BFFC
BFFC
ENDCHAR
STARTCHAR registered
ENCODING 174
SWIDTH 462 0
DWIDTH 13 0
BBX 11 10 1 9
BITMAP
06FE40
2E02D0
76FD74
E28F28
D2FD2C
D29D2C
E28B28
740074
2E01D0
06FE40
ENDCHAR
STARTCHAR macron
ENCODING 175
SWIDTH 555 0
DWIDTH 16 0
BBX 9 3 3 17
BITMAP
7FFFC0
7FFFC0
7FFFC0
ENDCHAR
STARTCHAR degree
ENCODING 176
SWIDTH 365 0
DWIDTH 10 0
BBX 8 9 1 10
BITMAP
0BE4
3FFC
7FFE
B82F
F40F
B82F
7FFE
3FFC
0BE4
ENDCHAR
STARTCHAR plusminus
ENCODING 177
SWIDTH 528 0
DWIDTH 15 0
BBX 13 16 1 0
BITMAP
002A0000
003F0000
003F0000
003F0000
003F0000
FFFFFF80
FFFFFF80
FFFFFF80
003F0000
003F0000
003F0000
002A0000
00000000
FFFFFF80
FFFFFF80
FFFFFF80
ENDCHAR
STARTCHAR two.sups
ENCODING 178
SWIDTH 376 0
DWIDTH 11 0
BBX 9 11 1 11
BITMAP
1BE400
BFFD00
747E00
003F00
007E00
00BD00
02F400
0FE000
7FFF40
BFFF40
BFFF40
ENDCHAR
STARTCHAR three.sups
ENCODING 179
SWIDTH 376 0
DWIDTH 11 0
BBX 9 11 1 11
BITMAP
1BE400
7FFE00
287F00
007F00
03FC00
03FD00
007F40
002F40
B43F40
BFFE00
1BE400
ENDCHAR
STARTCHAR acute
ENCODING 180
SWIDTH 555 0
DWIDTH 16 0
BBX 7 7 6 16
BITMAP
0080
03E0
0BF8
2FF4
BFC0
7E00
1800
ENDCHAR
STARTCHAR uni00B5
ENCODING 181
SWIDTH 594 0
DWIDTH 17 0
BBX 16 18 1 -4
BITMAP
7FC03FC0
7FC03FC0
7FC03FC0
7FC03FC0
7FC03FC0
7FC03FC0
7FC03FC0
7FC03FC0
7FC03FC0
7FC07FC0
7FE1FFD0
7FFFFFFC
7FFFDFFD
7FAE06FD
7F800000
7F800000
7F800000
7FC00000
ENDCHAR
STARTCHAR paragraph
ENCODING 182
SWIDTH 636 0
DWIDTH 18 0
BBX 14 21 1 -3
BITMAP
01BF4FF0
0BFF4FF0
2FFF4FF0
7FFF4FF0
BFFF4FF0
FFFF4FF0
FFFF4FF0
BFFF4FF0
BFFF4FF0
3FFF4FF0
1FFF4FF0
07FF4FF0
006A4FF0
00000FF0
00000FF0
00000FF0
00000FF0
00000FF0
00000FF0
00000FF0
00000550
ENDCHAR
STARTCHAR periodcentered
ENCODING 183
SWIDTH 300 0
DWIDTH 8 0
BBX 6 5 1 7
BITMAP
1F80
3FD0
7FE0
3FD0
1F80
ENDCHAR
STARTCHAR cedilla
ENCODING 184
SWIDTH 555 0
DWIDTH 16 0
BBX 7 7 4 -7
BITMAP
0680
0F80
1FE0
06F4
06F4
7FF0
3E40
ENDCHAR
STARTCHAR one.sups
ENCODING 185
SWIDTH 376 0
DWIDTH 11 0
BBX 6 11 2 11
BITMAP
0BE0
BFE0
FFE0
07E0
07E0
07E0
07E0
07E0
07E0
07E0
07E0
ENDCHAR
STARTCHAR ordmasculine
ENCODING 186
SWIDTH 373 0
DWIDTH 10 0
BBX 10 10 0 10
BITMAP
02F900
0FFF40
2F4BC0
3E07E0
7E07E0
7E07E0
3E07E0
2F4BC0
0FFF40
02F900
ENDCHAR
STARTCHAR guillemotright
ENCODING 187
SWIDTH 480 0
DWIDTH 13 0
BBX 11 11 1 2
BITMAP
280600
7D0F80
2F47E0
0BD2F8
03E0BC
02E07C
03E0BC
0BD2F8
2F47E0
7D0F80
280600
ENDCHAR
STARTCHAR onequarter
ENCODING 188
SWIDTH 809 0
DWIDTH 23 0
BBX 22 19 1 0
BITMAP
0000001F4000
07F0002E0000
BFF0007C0000
BFF000B80000
07F001F00000
07F002E00000
07F007C00000
07F00F800000
07F01F01FE00
07F03D02FE00
07F07C07EE00
07F0F40FAE00
0001F01F3E00
0003D03E3E00
0007C0BC3E00
000F40FFFFD0
002F00FFFFD0
003D00003E00
00B800003E00
ENDCHAR
STARTCHAR onehalf
ENCODING 189
SWIDTH 846 0
DWIDTH 24 0
BBX 22 19 1 0
BITMAP
0000002E0000
07F0007D0000
BFF000B80000
BFF001F40000
07F002E00000
07F007C00000
07F00B800000
07F01F000000
07F02E06F900
07F07C2FFF40
07F0B81D1FC0
07F1F0000FC0
0003E0000F80
0007C0002F40
000F4000BE00
001F0002F800
003D000FFFD0
007C002FFFD0
00F4002FFFD0
ENDCHAR
STARTCHAR threequarters
ENCODING 190
SWIDTH 818 0
DWIDTH 23 0
BBX 22 19 1 0
BITMAP
0000000B8000
1BE4000F4000
BFFE002E0000
247F007D0000
007E00B80000
07F801F40000
07FD02E00000
007F07C00000
002F4B80FF00
B43F5F02FF00
BFFE2E03EF00
1BE47C0BAF00
0000B81F6F00
0001F02E2F00
0003E07D2F00
0007C0BFFFE0
000F40BFFFE0
001F00002F00
003D00002F00
ENDCHAR
STARTCHAR questiondown
ENCODING 191
SWIDTH 463 0
DWIDTH 13 0
BBX 11 19 1 -5
BITMAP
00BD00
01FF00
02FF40
01FF00
00BD00
000000
000000
00FE00
01FE00
02FD00
0BF800
2FE000
7FC000
BF4000
BF4000
BF81D0
7FFFF4
2FFFE0
06FE40
ENDCHAR
STARTCHAR Agrave
ENCODING 192
SWIDTH 573 0
DWIDTH 16 0
BBX 16 25 0 0
BITMAP
00600000
00FD0000
02FF4000
00BFE000
001FE000
00028000
00000000
002FF800
003FFC00
007FFD00
00BEFE00
00FEBF00
01FD7F40
02FC7F80
03FC3FC0
03F82FD0
07F41FE0
0BF01FF0
0FFFFFF0
1FFFFFF4
2FFFFFF8
3FC003FC
7F8003FD
BF4002FE
FF4001FF
ENDCHAR
STARTCHAR Aacute
ENCODING 193
SWIDTH 573 0
DWIDTH 16 0
BBX 16 25 0 0
BITMAP
00001800
00007E00
0001FF40
000BFD00
000BE000
00024000
00000000
002FF800
003FFC00
007FFD00
00BEFE00
00FEBF00
01FD7F40
02FC7F80
03FC3FC0
03F82FD0
07F41FE0
0BF01FF0
0FFFFFF0
1FFFFFF4
2FFFFFF8
3FC003FC
7F8003FD
BF4002FE
FF4001FF
ENDCHAR
STARTCHAR Acircumflex
ENCODING 194
SWIDTH 573 0
DWIDTH 16 0
BBX 16 23 0 0
BITMAP
002FF800
00BFFD00
01F87F40
01A00A00
00000000
002FF800
003FFC00
007FFD00
00BEFE00
00FEBF00
01FD7F40
02FC7F80
03FC3FC0
03F82FD0
07F41FE0
0BF01FF0
0FFFFFF0
1FFFFFF4
2FFFFFF8
3FC003FC
7F8003FD
BF4002FE
FF4001FF
ENDCHAR
STARTCHAR Atilde
ENCODING 195
SWIDTH 573 0
DWIDTH 16 0
BBX 16 24 0 0
BITMAP
00BE0100
03FFDBD0
07FFFFD0
07D2FF80
00006900
00000000
002FF800
003FFC00
007FFD00
00BEFE00
00FEBF00
01FD7F40
02FC7F80
03FC3FC0
03F82FD0
07F41FE0
0BF01FF0
0FFFFFF0
1FFFFFF4
2FFFFFF8
3FC003FC
7F8003FD
BF4002FE
FF4001FF
ENDCHAR
STARTCHAR Adieresis
ENCODING 196
SWIDTH 573 0
DWIDTH 16 0
BBX 16 24 0 0
BITMAP
01F41F40
03F83FC0
03F83FC0
01F41F40
00000000
00000000
002FF800
003FFC00
007FFD00
00BEFE00
00FEBF00
01FD7F40
02FC7F80
03FC3FC0
03F82FD0
07F41FE0
0BF01FF0
0FFFFFF0
1FFFFFF4
2FFFFFF8
3FC003FC
7F8003FD
BF4002FE
FF4001FF
ENDCHAR
STARTCHAR Aring
ENCODING 197
SWIDTH 573 0
DWIDTH 16 0
BBX 16 25 0 0
BITMAP
000BE000
003FF800
007C7C00
007C7C00
002FF800
000BE000
00000000
002FF800
003FFC00
007FFD00
00BEFE00
00FEBF00
01FD7F40
02FC7F80
03FC3FC0
03F82FD0
07F41FE0
0BF01FF0
0FFFFFF0
1FFFFFF4
2FFFFFF8
3FC003FC
7F8003FD
BF4002FE
FF4001FF
ENDCHAR
STARTCHAR AE
ENCODING 198
SWIDTH 845 0
DWIDTH 24 0
BBX 23 18 0 0
BITMAP
0000FFFFFFF0
0001FFFFFFF0
0003FFFFFFF0
0007FBFFFFF0
000FF7FC0000
001FE7FC0000
003FD7FC0000
007FC7FFFF80
00BF47FFFF80
01FF07FFFF80
02FE07FC0000
07FFFFFC0000
0BFFFFFC0000
1FFFFFFC0000
2FE007FFFFF4
7FC007FFFFF4
BF8007FFFFF4
FF4007FFFFF4
ENDCHAR
STARTCHAR Ccedilla
ENCODING 199
SWIDTH 582 0
DWIDTH 16 0
BBX 15 25 1 -7
BITMAP
001BF900
01BFFFD0
07FFFFF0
0FFFFFE0
2FF907C0
3FE00000
7FC00000
BF800000
BF800000
BF800000
BF800000
7FC00000
7FE00040
2FF907D0
1FFFFFF4
07FFFFF4
01FFFFD0
001BF900
0001A000
0003E000
0007F800
0001BD00
0001BD00
001FFC00
000F9000
ENDCHAR
STARTCHAR Egrave
ENCODING 200
SWIDTH 548 0
DWIDTH 15 0
BBX 12 25 2 0
BITMAP
020000
0BD000
2FF400
07FE00
01BE00
001800
000000
FFFFFE
FFFFFE
FFFFFE
FFFFFE
FF4000
FF4000
FF4000
FFFFF4
FFFFF4
FFFFF4
FF4000
FF4000
FF4000
FF4000
FFFFFF
FFFFFF
FFFFFF
FFFFFF
ENDCHAR
STARTCHAR Eacute
ENCODING 201
SWIDTH 548 0
DWIDTH 15 0
BBX 12 25 2 0
BITMAP
000090
0007F0
001FF8
00BFE0
00BF40
002800
000000
FFFFFE
FFFFFE
FFFFFE
FFFFFE
FF4000
FF4000
FF4000
FFFFF4
FFFFF4
FFFFF4
FF4000
FF4000
FF4000
FF4000
FFFFFF
FFFFFF
FFFFFF
FFFFFF
ENDCHAR
STARTCHAR Ecircumflex
ENCODING 202
SWIDTH 548 0
DWIDTH 15 0
BBX 12 23 2 0
BITMAP
02FF80
07FFE0
1FD2F4
0A00A0
000000
FFFFFE
FFFFFE
FFFFFE
FFFFFE
FF4000
FF4000
FF4000
FFFFF4
FFFFF4
FFFFF4
FF4000
FF4000
FF4000
FF4000
FFFFFF
FFFFFF
FFFFFF
FFFFFF
ENDCHAR
STARTCHAR Edieresis
ENCODING 203
SWIDTH 548 0
DWIDTH 15 0
BBX 12 24 2 0
BITMAP
1F41F4
3F82FC
3F82FC
1F41F4
000000
000000
FFFFFE
FFFFFE
FFFFFE
FFFFFE
FF4000
FF4000
FF4000
FFFFF4
FFFFF4
FFFFF4
FF4000
FF4000
FF4000
FF4000
FFFFFF
FFFFFF
FFFFFF
FFFFFF
ENDCHAR
STARTCHAR Igrave
ENCODING 204
SWIDTH 301 0
DWIDTH 8 0
BBX 8 25 -1 0
BITMAP
0900
2F40
7FE0
1FF8
02F8
0060
0000
03FD
03FD
03FD
03FD
03FD
03FD
03FD
03FD
03FD
03FD
03FD
03FD
03FD
03FD
03FD
03FD
03FD
03FD
ENDCHAR
STARTCHAR Iacute
ENCODING 205
SWIDTH 301 0
DWIDTH 8 0
BBX 7 25 2 0
BITMAP
0090
03F0
1FF8
7FE0
7F40
2800
0000
FF40
FF40
FF40
FF40
FF40
FF40
FF40
FF40
FF40
FF40
FF40
FF40
FF40
FF40
FF40
FF40
FF40
FF40
ENDCHAR
STARTCHAR Icircumflex
ENCODING 206
SWIDTH 301 0
DWIDTH 8 0
BBX 10 23 -1 0
BITMAP
07FE00
1FFF80
7F4BE0
280190
000000
03FD00
03FD00
03FD00
03FD00
03FD00
03FD00
03FD00
03FD00
03FD00
03FD00
03FD00
03FD00
03FD00
03FD00
03FD00
03FD00
03FD00
03FD00
ENDCHAR
STARTCHAR Idieresis
ENCODING 207
SWIDTH 301 0
DWIDTH 8 0
BBX 11 24 -1 0
BITMAP
7D02E0
BF0BF0
BF0BF4
7D02E0
000000
000000
03FD00
03FD00
03FD00
03FD00
03FD00
03FD00
03FD00
03FD00
03FD00
03FD00
03FD00
03FD00
03FD00
03FD00
03FD00
03FD00
03FD00
03FD00
ENDCHAR
STARTCHAR Eth
ENCODING 208
SWIDTH 660 0
DWIDTH 18 0
BBX 17 18 0 0
BITMAP
03FFFA0000
03FFFFE000
03FFFFFC00
03FFFFFE00
03FC17FF40
03FC00FF80
03FC00BFC0
7FFFF47FC0
7FFFF43FC0
7FFFF43FC0
03FC007FC0
03FC00BFC0
03FC01FF80
03FC1BFF40
03FFFFFE00
03FFFFFC00
03FFFFE000
03FFFA4000
ENDCHAR
STARTCHAR Ntilde
ENCODING 209
SWIDTH 665 0
DWIDTH 19 0
BBX 15 24 2 0
BITMAP
01F90400
0BFF9F80
0FFFFF80
0F8BFF00
0001A800
00000000
FF8007F4
FFD007F4
FFE007F4
FFF407F4
FFF807F4
FEFD07F4
FEBE07F4
FE7F47F4
FF2FC7F4
FF1FD7F4
FF0BF7F4
FF07F7F4
FF02FBF4
FF01FFF4
FF00BFF4
FF003FF4
FF002FF4
FF000FF4
ENDCHAR
STARTCHAR Ograve
ENCODING 210
SWIDTH 684 0
DWIDTH 19 0
BBX 17 25 1 0
BITMAP
0018000000
007E000000
00FF800000
006FF40000
0007F40000
0000900000
0000000000
001BFA0000
01FFFFE000
0BFFFFF800
1FFFFFFD00
2FF807FF00
7FD001FF40
7FC000BF80
BF8000BF80
BF80007F80
BF80007F80
BF8000BF80
7FC000BF80
7FE001FF40
2FF807FF00
1FFFFFFD00
07FFFFF800
01FFFFD000
001BFA0000
ENDCHAR
STARTCHAR Oacute
ENCODING 211
SWIDTH 684 0
DWIDTH 19 0
BBX 17 25 1 0
BITMAP
0000060000
00002F4000
0000BFC000
0003FF4000
0003F80000
0001900000
0000000000
001BFA0000
01FFFFE000
0BFFFFF800
1FFFFFFD00
2FF807FF00
7FD001FF40
7FC000BF80
BF8000BF80
BF80007F80
BF80007F80
BF8000BF80
7FC000BF80
7FE001FF40
2FF807FF00
1FFFFFFD00
07FFFFF800
01FFFFD000
001BFA0000
ENDCHAR
STARTCHAR Ocircumflex
ENCODING 212
SWIDTH 684 0
DWIDTH 19 0
BBX 17 23 1 0
BITMAP
000FFD0000
003FFF0000
00BE1FC000
0074064000
0000000000
001BFA0000
01FFFFE000
0BFFFFF800
1FFFFFFD00
2FF807FF00
7FD001FF40
7FC000BF80
BF8000BF80
BF80007F80
BF80007F80
BF8000BF80
7FC000BF80
7FE001FF40
2FF807FF00
1FFFFFFD00
07FFFFF800
01FFFFD000
001BFA0000
ENDCHAR
STARTCHAR Otilde
ENCODING 213
SWIDTH 684 0
DWIDTH 19 0
BBX 17 24 1 0
BITMAP
006F400000
01FFE7F000
02FFFFE000
02F1FFD000
00002A4000
0000000000
001BFA0000
01FFFFE000
0BFFFFF800
1FFFFFFD00
2FF807FF00
7FD001FF40
7FC000BF80
BF8000BF80
BF80007F80
BF80007F80
BF8000BF80
7FC000BF80
7FE001FF40
2FF807FF00
1FFFFFFD00
07FFFFF800
01FFFFD000
001BFA0000
ENDCHAR
STARTCHAR Odieresis
ENCODING 214
SWIDTH 684 0
DWIDTH 19 0
BBX 17 24 1 0
BITMAP
00B80B8000
01FD1FE000
01FD1FE000
00B80B8000
0000000000
0000000000
001BFA0000
01FFFFE000
0BFFFFF800
1FFFFFFD00
2FF807FF00
7FD001FF40
7FC000BF80
BF8000BF80
BF80007F80
BF80007F80
BF8000BF80
7FC000BF80
7FE001FF40
2FF807FF00
1FFFFFFD00
07FFFFF800
01FFFFD000
001BFA0000
ENDCHAR
STARTCHAR multiply
ENCODING 215
SWIDTH 528 0
DWIDTH 15 0
BBX 12 12 1 3
BITMAP
180018
7E007E
7F81FF
1FE7FC
07FFF0
01FFC0
01FFC0
07FFF0
1FE7FC
7F81FF
7E007E
180018
ENDCHAR
STARTCHAR Oslash
ENCODING 216
SWIDTH 684 0
DWIDTH 19 0
BBX 18 20 1 -1
BITMAP
0000000200
001BFA0BD0
01FFFFEFC0
0BFFFFFF00
1FFFFFFE00
2FF807FF00
7FD00FFF40
7FC03FFF80
BF80FFBF80
BF83FD7FC0
BF8BF47FC0
BFEFD07F80
7FFF80BF80
3FFE01FF40
2FF807FF00
0FFFFFFD00
2FFFFFF800
7FFFFFE000
7D1BFA0000
1800000000
ENDCHAR
STARTCHAR Ugrave
ENCODING 217
SWIDTH 665 0
DWIDTH 19 0
BBX 15 25 2 0
BITMAP
00900000
02F40000
07FE0000
01FF8000
002FC000
00060000
00000000
FF4007F8
FF4007F8
FF4007F8
FF4007F8
FF4007F8
FF4007F8
FF4007F8
FF4007F8
FF4007F8
FF4007F8
FF4007F4
BF400BF4
BF800FF4
7FE06FF0
3FFFFFE0
1FFFFFC0
07FFFF40
00AFE400
ENDCHAR
STARTCHAR Uacute
ENCODING 218
SWIDTH 665 0
DWIDTH 19 0
BBX 15 25 2 0
BITMAP
00002400
0000BD00
0007FF00
001FF800
001FD000
00060000
00000000
FF4007F8
FF4007F8
FF4007F8
FF4007F8
FF4007F8
FF4007F8
FF4007F8
FF4007F8
FF4007F8
FF4007F8
FF4007F4
BF400BF4
BF800FF4
7FE06FF0
3FFFFFE0
1FFFFFC0
07FFFF40
00AFE400
ENDCHAR
STARTCHAR Ucircumflex
ENCODING 219
SWIDTH 665 0
DWIDTH 19 0
BBX 15 23 2 0
BITMAP
007FF000
01FFF800
03F4BE00
02801900
00000000
FF4007F8
FF4007F8
FF4007F8
FF4007F8
FF4007F8
FF4007F8
FF4007F8
FF4007F8
FF4007F8
FF4007F8
FF4007F4
BF400BF4
BF800FF4
7FE06FF0
3FFFFFE0
1FFFFFC0
07FFFF40
00AFE400
ENDCHAR
STARTCHAR Udieresis
ENCODING 220
SWIDTH 665 0
DWIDTH 19 0
BBX 15 24 2 0
BITMAP
02D02E00
0BF07F40
0BF07F40
07D02E00
00000000
00000000
FF4007F8
FF4007F8
FF4007F8
FF4007F8
FF4007F8
FF4007F8
FF4007F8
FF4007F8
FF4007F8
FF4007F8
FF4007F4
BF400BF4
BF800FF4
7FE06FF0
3FFFFFE0
1FFFFFC0
07FFFF40
00AFE400
ENDCHAR
STARTCHAR Yacute
ENCODING 221
SWIDTH 525 0
DWIDTH 15 0
BBX 15 25 0 0
BITMAP
00002400
0000BD00
0007FF00
001FF800
001FD000
00060000
00000000
FF400BF8
BF800FF4
3FD01FE0
2FE02FD0
0FF07F80
0BF4BF40
03F8FE00
02FDFD00
01FFFC00
00BFF400
007FF000
002FD000
002FD000
002FD000
002FD000
002FD000
002FD000
002FD000
ENDCHAR
STARTCHAR Thorn
ENCODING 222
SWIDTH 617 0
DWIDTH 17 0
BBX 14 18 2 0
BITMAP
FF400000
FF400000
FFFFE400
FFFFFE00
FFFFFFC0
FFFFFFD0
FF407FE0
FF401FF0
FF400FF0
FF401FF0
FF407FE0
FFFFFFD0
FFFFFF80
FFFFFE00
FFFFE400
FF400000
FF400000
FF400000
ENDCHAR
STARTCHAR germandbls
ENCODING 223
SWIDTH 632 0
DWIDTH 18 0
BBX 16 20 1 0
BITMAP
006FE400
07FFFE00
0FFFFF80
2FF47FC0
3FD02FD0
3FC02FC0
7FC07F80
7FC0BF00
7FC1FD00
7FC2FC00
7FC2FE00
7FC1FFD0
7FC0BFF8
7FC01FFD
7FC002FE
7FC000FF
7FC191FE
7FC2FFFD
7FC7FFF8
7FC1BF90
ENDCHAR
STARTCHAR agrave
ENCODING 224
SWIDTH 527 0
DWIDTH 15 0
BBX 12 23 1 0
BITMAP
018000
07D000
1FF400
0BFD00
02FF00
007F00
001800
000000
000000
06BF90
2FFFF8
3FFFFD
1E42FE
0000FF
006BFF
0BFFFF
3FFFFF
BFE4FF
BF41FF
BF47FF
BFFFFF
3FFFBF
0BF47F
ENDCHAR
STARTCHAR aacute
ENCODING 225
SWIDTH 527 0
DWIDTH 15 0
BBX 12 23 1 0
BITMAP
000060
0000F8
0002FE
000BFD
002FE0
002F80
000A00
000000
000000
06BF90
2FFFF8
3FFFFD
1E42FE
0000FF
006BFF
0BFFFF
3FFFFF
BFE4FF
BF41FF
BF47FF
BFFFFF
3FFFBF
0BF47F
ENDCHAR
STARTCHAR acircumflex
ENCODING 226
SWIDTH 527 0
DWIDTH 15 0
BBX 12 21 1 0
BITMAP
00BFD0
02FFF0
0BFBFC
1FD0BE
060018
000000
000000
06BF90
2FFFF8
3FFFFD
1E42FE
0000FF
006BFF
0BFFFF
3FFFFF
BFE4FF
BF41FF
BF47FF
BFFFFF
3FFFBF
0BF47F
ENDCHAR
STARTCHAR atilde
ENCODING 227
SWIDTH 527 0
DWIDTH 15 0
BBX 12 21 1 0
BITMAP
02F42F
0BFE3F
1FFFFE
1F5FFD
2F02E4
000000
000000
06BF90
2FFFF8
3FFFFD
1E42FE
0000FF
006BFF
0BFFFF
3FFFFF
BFE4FF
BF41FF
BF47FF
BFFFFF
3FFFBF
0BF47F
ENDCHAR
STARTCHAR adieresis
ENCODING 228
SWIDTH 527 0
DWIDTH 15 0
BBX 12 20 1 0
BITMAP
0B80B8
1FE0FE
1FE0FE
0B80B8
000000
000000
06BF90
2FFFF8
3FFFFD
1E42FE
0000FF
006BFF
0BFFFF
3FFFFF
BFE4FF
BF41FF
BF47FF
BFFFFF
3FFFBF
0BF47F
ENDCHAR
STARTCHAR aring
ENCODING 229
SWIDTH 527 0
DWIDTH 15 0
BBX 12 22 1 0
BITMAP
007F80
02FFF0
03E1F4
03E1F4
02FFF0
007F80
000000
000000
06BF90
2FFFF8
3FFFFD
1E42FE
0000FF
006BFF
0BFFFF
3FFFFF
BFE4FF
BF41FF
BF47FF
BFFFFF
3FFFBF
0BF47F
ENDCHAR
STARTCHAR ae
ENCODING 230
SWIDTH 786 0
DWIDTH 22 0
BBX 20 14 1 0
BITMAP
01BF80BF80
2FFFE7FFF4
2FFFFFFFFC
1E42FF81FD
0000FF00BE
006BFFFFFF
0BFFFFFFFF
2FFFFFFFFF
7FE4BF0000
BF40FF4000
BF86FFD064
7FFFFFFFFC
2FFF8BFFFD
0BF901BF90
ENDCHAR
STARTCHAR ccedilla
ENCODING 231
SWIDTH 467 0
DWIDTH 13 0
BBX 12 21 1 -7
BITMAP
00AFE0
07FFFC
1FFFF4
3FE060
BFC000
BF4000
FF4000
FF4000
FF4000
BFC000
7FE064
2FFFF8
0BFFFD
01BFA0
001A00
002E00
007F80
001BD0
001BD0
01FFC0
00F900
ENDCHAR
STARTCHAR egrave
ENCODING 232
SWIDTH 518 0
DWIDTH 15 0
BBX 13 23 1 0
BITMAP
02400000
0BD00000
1FF40000
0BFC0000
02FE0000
007E0000
00180000
00000000
00000000
01BF9000
0BFFF800
1FFFFD00
3FD0BF00
BF003F40
BFFFFF40
FFFFFF40
FFFFFF40
FF000000
BF800000
7FE41800
2FFFFD00
0BFFFE00
01BFE400
ENDCHAR
STARTCHAR eacute
ENCODING 233
SWIDTH 518 0
DWIDTH 15 0
BBX 13 23 1 0
BITMAP
00006000
0001F800
0003FE00
000BF800
002FE000
002F8000
00090000
00000000
00000000
01BF9000
0BFFF800
1FFFFD00
3FD0BF00
BF003F40
BFFFFF40
FFFFFF40
FFFFFF40
FF000000
BF800000
7FE41800
2FFFFD00
0BFFFE00
01BFE400
ENDCHAR
STARTCHAR ecircumflex
ENCODING 234
SWIDTH 518 0
DWIDTH 15 0
BBX 13 21 1 0
BITMAP
00FFC000
02FFF000
0BFBF800
1FD0BD00
0A002800
00000000
00000000
01BF9000
0BFFF800
1FFFFD00
3FD0BF00
BF003F40
BFFFFF40
FFFFFF40
FFFFFF40
FF000000
BF800000
7FE41800
2FFFFD00
0BFFFE00
01BFE400
ENDCHAR
STARTCHAR edieresis
ENCODING 235
SWIDTH 518 0
DWIDTH 15 0
BBX 13 20 1 0
BITMAP
0B80B800
1FD1FE00
1FD1FE00
0B80B800
00000000
00000000
01BF9000
0BFFF800
1FFFFD00
3FD0BF00
BF003F40
BFFFFF40
FFFFFF40
FFFFFF40
FF000000
BF800000
7FE41800
2FFFFD00
0BFFFE00
01BFE400
ENDCHAR
STARTCHAR igrave
ENCODING 236
SWIDTH 276 0
DWIDTH 8 0
BBX 8 23 -2 0
BITMAP
0600
1F80
7FD0
2FF4
07FD
01FD
0024
0000
0000
01FF
01FF
01FF
01FF
01FF
01FF
01FF
01FF
01FF
01FF
01FF
01FF
01FF
01FF
ENDCHAR
STARTCHAR iacute
ENCODING 237
SWIDTH 276 0
DWIDTH 8 0
BBX 8 23 1 0
BITMAP
0020
00BC
02FF
0BFD
1FF4
1F80
0600
0000
0000
7FC0
7FC0
7FC0
7FC0
7FC0
7FC0
7FC0
7FC0
7FC0
7FC0
7FC0
7FC0
7FC0
7FC0
ENDCHAR
STARTCHAR icircumflex
ENCODING 238
SWIDTH 276 0
DWIDTH 8 0
BBX 10 21 -1 0
BITMAP
0BFD00
2FFF40
7FBFC0
FD0BE0
640180
000000
000000
07FC00
07FC00
07FC00
07FC00
07FC00
07FC00
07FC00
07FC00
07FC00
07FC00
07FC00
07FC00
07FC00
07FC00
ENDCHAR
STARTCHAR idieresis
ENCODING 239
SWIDTH 276 0
DWIDTH 8 0
BBX 10 20 -1 0
BITMAP
7D07D0
FE0FE0
FE0FE0
7D07D0
000000
000000
07FC00
07FC00
07FC00
07FC00
07FC00
07FC00
07FC00
07FC00
07FC00
07FC00
07FC00
07FC00
07FC00
07FC00
ENDCHAR
STARTCHAR eth
ENCODING 240
SWIDTH 560 0
DWIDTH 16 0
BBX 14 20 1 0
BITMAP
01800100
07F41F40
0BFEFE40
01FFE000
02FFF400
1FD7FD00
0901FE00
0055BF40
07FFBF80
1FFFFFC0
3FEAFFC0
BF802FD0
BF002FD0
BF002FD0
BF002FC0
BF403F80
7FD1BF40
2FFFFE00
0BFFF800
01BF9000
ENDCHAR
STARTCHAR ntilde
ENCODING 241
SWIDTH 572 0
DWIDTH 16 0
BBX 14 21 1 0
BITMAP
00BD0BC0
03FF9F80
07FFFF80
0BD7FF00
0BC0B900
00000000
00000000
7F46F900
7FAFFF40
7FFFFF80
7FF47FC0
7FD03FD0
7FC02FD0
7FC02FD0
7FC02FD0
7FC02FD0
7FC02FD0
7FC02FD0
7FC02FD0
7FC02FD0
7FC02FD0
ENDCHAR
STARTCHAR ograve
ENCODING 242
SWIDTH 555 0
DWIDTH 16 0
BBX 14 23 1 0
BITMAP
01800000
07D00000
1FF40000
0BFD0000
01FF0000
007F0000
00180000
00000000
00000000
01BF9000
0BFFFD00
2FFFFF00
3FD0BF80
BF803FC0
FF403FD0
FF402FD0
FF402FD0
FF403FD0
BF803FC0
7FD0BF80
2FFFFF00
0BFFFD00
01BF9000
ENDCHAR
STARTCHAR oacute
ENCODING 243
SWIDTH 555 0
DWIDTH 16 0
BBX 14 23 1 0
BITMAP
00002000
0000F800
0002FE00
000BFD00
002FE000
001F8000
00060000
00000000
00000000
01BF9000
0BFFFD00
2FFFFF00
3FD0BF80
BF803FC0
FF403FD0
FF402FD0
FF402FD0
FF403FD0
BF803FC0
7FD0BF80
2FFFFF00
0BFFFD00
01BF9000
ENDCHAR
STARTCHAR ocircumflex
ENCODING 244
SWIDTH 555 0
DWIDTH 16 0
BBX 14 21 1 0
BITMAP
00BFD000
02FFF400
07FBFC00
0FD0BE00
06001800
00000000
00000000
01BF9000
0BFFFD00
2FFFFF00
3FD0BF80
BF803FC0
FF403FD0
FF402FD0
FF402FD0
FF403FD0
BF803FC0
7FD0BF80
2FFFFF00
0BFFFD00
01BF9000
ENDCHAR
STARTCHAR otilde
ENCODING 245
SWIDTH 555 0
DWIDTH 16 0
BBX 14 21 1 0
BITMAP
02F42F00
0BFE3F00
1FFFFE00
1F5FFD00
1F02E400
00000000
00000000
01BF9000
0BFFFD00
2FFFFF00
3FD0BF80
BF803FC0
FF403FD0
FF402FD0
FF402FD0
FF403FD0
BF803FC0
7FD0BF80
2FFFFF00
0BFFFD00
01BF9000
ENDCHAR
STARTCHAR odieresis
ENCODING 246
SWIDTH 555 0
DWIDTH 16 0
BBX 14 20 1 0
BITMAP
0B807D00
1FE0FE00
1FE0FE00
0B807D00
00000000
00000000
01BF9000
0BFFFD00
2FFFFF00
3FD0BF80
BF803FC0
FF403FD0
FF402FD0
FF402FD0
FF403FD0
BF803FC0
7FD0BF80
2FFFFF00
0BFFFD00
01BF9000
ENDCHAR
STARTCHAR divide
ENCODING 247
SWIDTH 528 0
DWIDTH 15 0
BBX 13 15 1 2
BITMAP
00140000
007F4000
00BF8000
00BF4000
002E0000
00000000
AAAAAA80
FFFFFF80
FFFFFF80
55555540
00040000
007F4000
00BF8000
00BF4000
002E0000
ENDCHAR
STARTCHAR oslash
ENCODING 248
SWIDTH 555 0
DWIDTH 16 0
BBX 14 15 1 0
BITMAP
00000100
01BF9380
0BFFFF80
2FFFFF00
7FD0FF80
BF81FFC0
FF07FFD0
FF1F5FD0
FF3E1FD0
FFF82FD0
BFF03FC0
3FE0BF80
2FFFFF00
7FFFFD00
79BF9000
ENDCHAR
STARTCHAR ugrave
ENCODING 249
SWIDTH 568 0
DWIDTH 16 0
BBX 13 23 1 0
BITMAP
01800000
07E00000
0FF80000
07FD0000
01FF4000
007F4000
00090000
00000000
00000000
7F803FC0
7F803FC0
7F803FC0
7F803FC0
7F803FC0
7F803FC0
7F803FC0
7F803FC0
7F803FC0
7FC07FC0
3FD1FFC0
2FFFFFC0
1FFF9FC0
06F91FC0
ENDCHAR
STARTCHAR uacute
ENCODING 250
SWIDTH 568 0
DWIDTH 16 0
BBX 13 23 1 0
BITMAP
00002400
0000BD00
0002FF00
0007FD00
001FF400
001FC000
00060000
00000000
00000000
7F803FC0
7F803FC0
7F803FC0
7F803FC0
7F803FC0
7F803FC0
7F803FC0
7F803FC0
7F803FC0
7FC07FC0
3FD1FFC0
2FFFFFC0
1FFF9FC0
06F91FC0
ENDCHAR
STARTCHAR ucircumflex
ENCODING 251
SWIDTH 568 0
DWIDTH 16 0
BBX 13 21 1 0
BITMAP
00BFE000
01FFF400
07FAFD00
0FE0BF00
06401900
00000000
00000000
7F803FC0
7F803FC0
7F803FC0
7F803FC0
7F803FC0
7F803FC0
7F803FC0
7F803FC0
7F803FC0
7FC07FC0
3FD1FFC0
2FFFFFC0
1FFF9FC0
06F91FC0
ENDCHAR
STARTCHAR udieresis
ENCODING 252
SWIDTH 568 0
DWIDTH 16 0
BBX 13 20 1 0
BITMAP
07D07D00
0FE0FF00
0FE0FF00
07D07D00
00000000
00000000
7F803FC0
7F803FC0
7F803FC0
7F803FC0
7F803FC0
7F803FC0
7F803FC0
7F803FC0
7F803FC0
7FC07FC0
3FD1FFC0
2FFFFFC0
1FFF9FC0
06F91FC0
ENDCHAR
STARTCHAR yacute
ENCODING 253
SWIDTH 521 0
DWIDTH 15 0
BBX 14 29 0 -6
BITMAP
00001800
00007E00
0001FF40
0003FE00
000BF800
000BD000
00024000
00000000
00000000
7F800FF0
3FC00FE0
2FD01FD0
1FE02FC0
0FF03F80
0BF47F40
07F87F00
02FCBE00
01FCFD00
00FEFC00
00BFF800
007FF400
003FF000
002FE000
001FD000
002FC000
00BF8000
0FFF0000
1FFD0000
1FE00000
ENDCHAR
STARTCHAR thorn
ENCODING 254
SWIDTH 573 0
DWIDTH 16 0
BBX 14 26 1 -6
BITMAP
7FC00000
7FC00000
7FC00000
7FC00000
7FC00000
7FC00000
7FDBF800
7FFFFF00
7FFFFF80
7FE47FD0
7FC02FE0
7FC01FF0
7FC01FF0
7FC01FF0
7FC01FE0
7FC02FE0
7FE0BFC0
7FFFFF80
7FFFFE00
7FDBE400
7FC00000
7FC00000
7FC00000
7FC00000
7FC00000
7FC00000
ENDCHAR
STARTCHAR ydieresis
ENCODING 255
SWIDTH 521 0
DWIDTH 15 0
BBX 14 26 0 -6
BITMAP
02E02E00
0BF47F40
0BF47F40
02E02E00
00000000
00000000
7F800FF0
3FC00FE0
2FD01FD0
1FE02FC0
0FF03F80
0BF47F40
07F87F00
02FCBE00
01FCFD00
00FEFC00
00BFF800
007FF400
003FF000
002FE000
001FD000
002FC000
00BF8000
0FFF0000
1FFD0000
1FE00000
ENDCHAR
STARTCHAR Amacron
ENCODING 256
SWIDTH 573 0
DWIDTH 16 0
BBX 16 23 0 0
BITMAP
01FFFF00
01FFFF00
01FFFF00
00000000
00000000
002FF800
003FFC00
007FFD00
00BEFE00
00FEBF00
01FD7F40
02FC7F80
03FC3FC0
03F82FD0
07F41FE0
0BF01FF0
0FFFFFF0
1FFFFFF4
2FFFFFF8
3FC003FC
7F8003FD
BF4002FE
FF4001FF
ENDCHAR
STARTCHAR amacron
ENCODING 257
SWIDTH 527 0
DWIDTH 15 0
BBX 12 20 1 0
BITMAP
07FFFC
07FFFC
07FFFC
000000
000000
000000
06BF90
2FFFF8
3FFFFD
1E42FE
0000FF
006BFF
0BFFFF
3FFFFF
BFE4FF
BF41FF
BF47FF
BFFFFF
3FFFBF
0BF47F
ENDCHAR
STARTCHAR Abreve
ENCODING 258
SWIDTH 573 0
DWIDTH 16 0
BBX 16 24 0 0
BITMAP
01A00E40
01F82F40
00BFFE00
001BE400
00000000
00000000
002FF800
003FFC00
007FFD00
00BEFE00
00FEBF00
01FD7F40
02FC7F80
03FC3FC0
03F82FD0
07F41FE0
0BF01FF0
0FFFFFF0
1FFFFFF4
2FFFFFF8
3FC003FC
7F8003FD
BF4002FE
FF4001FF
ENDCHAR
STARTCHAR abreve
ENCODING 259
SWIDTH 527 0
DWIDTH 15 0
BBX 12 22 1 0
BITMAP
010010
0F807D
0BD1BD
07FFFC
02FFF4
00BF90
000000
000000
06BF90
2FFFF8
3FFFFD
1E42FE
0000FF
006BFF
0BFFFF
3FFFFF
BFE4FF
BF41FF
BF47FF
BFFFFF
3FFFBF
0BF47F
ENDCHAR
STARTCHAR Aogonek
ENCODING 260
SWIDTH 573 0
DWIDTH 16 0
BBX 17 24 0 -6
BITMAP
002FF80000
003FFC0000
007FFD0000
00BEFE0000
00FEBF0000
01FD7F4000
02FC7F8000
03FC3FC000
03F82FD000
07F41FE000
0BF01FF000
0FFFFFF000
1FFFFFF400
2FFFFFF800
3FC003FC00
7F8003FD00
BF4002FE00
FF4001FF00
000000B900
000002F000
000003E100
000007FF40
000003FF80
000001BE00
ENDCHAR
STARTCHAR aogonek
ENCODING 261
SWIDTH 527 0
DWIDTH 15 0
BBX 13 20 1 -6
BITMAP
06BF9000
2FFFF800
3FFFFD00
1E42FE00
0000FF00
006BFF00
0BFFFF00
3FFFFF00
BFE4FF00
BF41FF00
BF47FF00
BFFFFF00
3FFFBF00
0BF47F00
0000BD00
0002F000
0003E000
0003F000
0003FF40
0000BE40
ENDCHAR
STARTCHAR Cacute
ENCODING 262
SWIDTH 582 0
DWIDTH 16 0
BBX 15 25 1 0
BITMAP
00000600
00002F40
0000BFD0
0003FF40
0003F800
00019000
00000000
001BF900
01BFFFD0
07FFFFF0
0FFFFFE0
2FF907C0
3FE00000
7FC00000
BF800000
BF800000
BF800000
BF800000
7FC00000
7FE00040
2FF907D0
1FFFFFF4
07FFFFF4
01FFFFD0
001BF900
ENDCHAR
STARTCHAR cacute
ENCODING 263
SWIDTH 467 0
DWIDTH 13 0
BBX 13 23 1 0
BITMAP
00002400
0000BD00
0001FF40
0007FE00
001FF400
001FD000
00060000
00000000
00000000
00AFE000
07FFFC00
1FFFF400
3FE06000
BFC00000
BF400000
FF400000
FF400000
FF400000
BFC00000
7FE06400
2FFFF800
0BFFFD00
01BFA000
ENDCHAR
STARTCHAR Ccircumflex
ENCODING 264
SWIDTH 582 0
DWIDTH 16 0
BBX 15 23 1 0
BITMAP
000FFD00
003FFF40
00BE1FC0
00640640
00000000
001BF900
01BFFFD0
07FFFFF0
0FFFFFE0
2FF907C0
3FE00000
7FC00000
BF800000
BF800000
BF800000
BF800000
7FC00000
7FE00040
2FF907D0
1FFFFFF4
07FFFFF4
01FFFFD0
001BF900
ENDCHAR
STARTCHAR ccircumflex
ENCODING 265
SWIDTH 467 0
DWIDTH 13 0
BBX 12 21 1 0
BITMAP
007FE0
01FFF4
03FEFD
0BE07F
024019
000000
000000
00AFE0
07FFFC
1FFFF4
3FE060
BFC000
BF4000
FF4000
FF4000
FF4000
BFC000
7FE064
2FFFF8
0BFFFD
01BFA0
ENDCHAR
STARTCHAR Cdotaccent
ENCODING 266
SWIDTH 582 0
DWIDTH 16 0
BBX 15 24 1 0
BITMAP
0002E400
000BFC00
000BFC00
0002F400
00000000
00000000
001BF900
01BFFFD0
07FFFFF0
0FFFFFE0
2FF907C0
3FE00000
7FC00000
BF800000
BF800000
BF800000
BF800000
7FC00000
7FE00040
2FF907D0
1FFFFFF4
07FFFFF4
01FFFFD0
001BF900
ENDCHAR
STARTCHAR cdotaccent
ENCODING 267
SWIDTH 467 0
DWIDTH 13 0
BBX 12 20 1 0
BITMAP
001F80
003FD0
003FD0
001F80
000000
000000
00AFE0
07FFFC
1FFFF4
3FE060
BFC000
BF4000
FF4000
FF4000
FF4000
BFC000
7FE064
2FFFF8
0BFFFD
01BFA0
ENDCHAR
STARTCHAR Ccaron
ENCODING 268
SWIDTH 582 0
DWIDTH 16 0
BBX 15 24 1 0
BITMAP
00640640
00BE1FC0
003FFF40
000FFD00
00000000
00000000
001BF900
01BFFFD0
07FFFFF0
0FFFFFE0
2FF907C0
3FE00000
7FC00000
BF800000
BF800000
BF800000
BF800000
7FC00000
7FE00040
2FF907D0
1FFFFFF4
07FFFFF4
01FFFFD0
001BF900
ENDCHAR
STARTCHAR ccaron
ENCODING 269
SWIDTH 467 0
DWIDTH 13 0
BBX 12 21 1 0
BITMAP
024019
0BE07F
03FEFD
01FFF4
007FE0
000000
000000
00AFE0
07FFFC
1FFFF4
3FE060
BFC000
BF4000
FF4000
FF4000
FF4000
BFC000
7FE064
2FFFF8
0BFFFD
01BFA0
ENDCHAR
STARTCHAR Dcaron
ENCODING 270
SWIDTH 635 0
DWIDTH 18 0
BBX 15 24 2 0
BITMAP
02802800
07E1FD00
02FFF400
00BFE000
00000000
00000000
FFFE9000
FFFFFD00
FFFFFF40
FFFFFFC0
FF45BFE0
FF402FF0
FF401FF4
FF400FF4
FF400BF4
FF400BF4
FF400FF4
FF401FF4
FF402FF0
FF41FFE0
FFFFFFC0
FFFFFF40
FFFFF900
FFFF9000
ENDCHAR
STARTCHAR dcaron
ENCODING 271
SWIDTH 614 0
DWIDTH 17 0
BBX 17 21 1 0
BITMAP
0000000BC0
00003FDBC0
00003FDB80
00003FDB80
00003FDB40
00003FDB40
00003FD000
01BE6FD000
0BFFFFD000
2FFFFFD000
3FE0BFD000
BF803FD000
BF403FD000
FF403FD000
FF403FD000
BF403FD000
BF803FD000
7FE0BFD000
2FFFFFD000
0FFFEFD000
02FE1FD000
ENDCHAR
STARTCHAR Dcroat
ENCODING 272
SWIDTH 660 0
DWIDTH 18 0
BBX 17 18 0 0
BITMAP
03FFFA0000
03FFFFE000
03FFFFFC00
03FFFFFE00
03FC17FF40
03FC00FF80
03FC00BFC0
7FFFF47FC0
7FFFF43FC0
7FFFF43FC0
03FC007FC0
03FC00BFC0
03FC01FF80
03FC1BFF40
03FFFFFE00
03FFFFFC00
03FFFFE000
03FFFA4000
ENDCHAR
STARTCHAR dcroat
ENCODING 273
SWIDTH 573 0
DWIDTH 16 0
BBX 15 20 1 0
BITMAP
00003FD0
00003FD0
003FFFFC
003FFFFC
003FFFF8
00003FD0
00003FD0
00003FD0
01BE6FD0
0BFFFFD0
2FFFFFD0
7FD0BFD0
BF803FD0
FF403FD0
FF403FD0
BF803FD0
7FD0BFD0
3FFFFFD0
1FFFEFD0
02FE5FD0
ENDCHAR
STARTCHAR Emacron
ENCODING 274
SWIDTH 548 0
DWIDTH 15 0
BBX 12 23 2 0
BITMAP
1FFFF4
1FFFF4
1FFFF4
000000
000000
FFFFFE
FFFFFE
FFFFFE
FFFFFE
FF4000
FF4000
FF4000
FFFFF4
FFFFF4
FFFFF4
FF4000
FF4000
FF4000
FF4000
FFFFFF
FFFFFF
FFFFFF
FFFFFF
ENDCHAR
STARTCHAR emacron
ENCODING 275
SWIDTH 518 0
DWIDTH 15 0
BBX 13 20 1 0
BITMAP
0BFFF800
0BFFF800
0BFFF800
00000000
00000000
00000000
01BF9000
0BFFF800
1FFFFD00
3FD0BF00
BF003F40
BFFFFF40
FFFFFF40
FFFFFF40
FF000000
BF800000
7FE41800
2FFFFD00
0BFFFE00
01BFE400
ENDCHAR
STARTCHAR Ebreve
ENCODING 276
SWIDTH 548 0
DWIDTH 15 0
BBX 12 24 2 0
BITMAP
1B00A4
1F82F4
0BFFE0
01BE40
000000
000000
FFFFFE
FFFFFE
FFFFFE
FFFFFE
FF4000
FF4000
FF4000
FFFFF4
FFFFF4
FFFFF4
FF4000
FF4000
FF4000
FF4000
FFFFFF
FFFFFF
FFFFFF
FFFFFF
ENDCHAR
STARTCHAR ebreve
ENCODING 277
SWIDTH 518 0
DWIDTH 15 0
BBX 13 22 1 0
BITMAP
01001000
0F407D00
0FD1FC00
0BFFF800
03FFF000
00BF8000
00000000
00000000
01BF9000
0BFFF800
1FFFFD00
3FD0BF00
BF003F40
BFFFFF40
FFFFFF40
FFFFFF40
FF000000
BF800000
7FE41800
2FFFFD00
0BFFFE00
01BFE400
ENDCHAR
STARTCHAR Edotaccent
ENCODING 278
SWIDTH 548 0
DWIDTH 15 0
BBX 12 24 2 0
BITMAP
007E00
01FF40
01FF40
007E00
000000
000000
FFFFFE
FFFFFE
FFFFFE
FFFFFE
FF4000
FF4000
FF4000
FFFFF4
FFFFF4
FFFFF4
FF4000
FF4000
FF4000
FF4000
FFFFFF
FFFFFF
FFFFFF
FFFFFF
ENDCHAR
STARTCHAR edotaccent
ENCODING 279
SWIDTH 518 0
DWIDTH 15 0
BBX 13 20 1 0
BITMAP
002E4000
00BF8000
00BF8000
002E4000
00000000
00000000
01BF9000
0BFFF800
1FFFFD00
3FD0BF00
BF003F40
BFFFFF40
FFFFFF40
FFFFFF40
FF000000
BF800000
7FE41800
2FFFFD00
0BFFFE00
01BFE400
ENDCHAR
STARTCHAR Eogonek
ENCODING 280
SWIDTH 548 0
DWIDTH 15 0
BBX 13 24 2 -6
BITMAP
FFFFFE00
FFFFFE00
FFFFFE00
FFFFFE00
FF400000
FF400000
FF400000
FFFFF400
FFFFF400
FFFFF400
FF400000
FF400000
FF400000
FF400000
FFFFFF00
FFFFFF00
FFFFFF00
FFFFFF00
0001F400
0003D000
000BE000
000BFF00
0007FF40
0001FD00
ENDCHAR
STARTCHAR eogonek
ENCODING 281
SWIDTH 518 0
DWIDTH 15 0
BBX 13 20 1 -6
BITMAP
01BF9000
0BFFF800
1FFFFD00
3FD0BF00
BF003F40
BFFFFF40
FFFFFF40
FFFFFF40
FF000000
BF800000
7FE41800
2FFFFD00
0BFFFE00
01BFFD00
0002F000
0007D000
000BC000
000BD000
0007FE00
0002F900
ENDCHAR
STARTCHAR Ecaron
ENCODING 282
SWIDTH 548 0
DWIDTH 15 0
BBX 12 24 2 0
BITMAP
0A00A0
1FD2F4
07FFE0
02FF80
000000
000000
FFFFFE
FFFFFE
FFFFFE
FFFFFE
FF4000
FF4000
FF4000
FFFFF4
FFFFF4
FFFFF4
FF4000
FF4000
FF4000
FF4000
FFFFFF
FFFFFF
FFFFFF
FFFFFF
ENDCHAR
STARTCHAR ecaron
ENCODING 283
SWIDTH 518 0
DWIDTH 15 0
BBX 13 21 1 0
BITMAP
0A002800
1FD0BD00
0BFBF800
02FFF000
00FFC000
00000000
00000000
01BF9000
0BFFF800
1FFFFD00
3FD0BF00
BF003F40
BFFFFF40
FFFFFF40
FFFFFF40
FF000000
BF800000
7FE41800
2FFFFD00
0BFFFE00
01BFE400
ENDCHAR
STARTCHAR Gcircumflex
ENCODING 284
SWIDTH 638 0
DWIDTH 18 0
BBX 16 23 1 0
BITMAP
0007FF00
001FFF80
003F4BE0
00280190
00000000
001BFE40
00BFFFE0
07FFFFF8
0FFFFFF4
2FF902E0
3FE00040
7FC00000
BF800000
BF807FFD
BF807FFD
BF807FFD
7FC001FD
3FE001FD
2FF902FD
1FFFFFFD
07FFFFFD
01FFFFF4
001BFE40
ENDCHAR
STARTCHAR gcircumflex
ENCODING 285
SWIDTH 534 0
DWIDTH 15 0
BBX 14 27 1 -6
BITMAP
00BFD000
02FFF400
07FBFC00
0FD0BE00
06001800
00000000
00000000
02BFFFD0
1FFFFFD0
3FFFFFD0
7F82FD00
BF40FD00
BF40FE00
7F82FD00
2FFFFC00
0FFFF400
2FFF8000
3F000000
7F400000
3FFFFA00
2FFFFFC0
2FFFFFD0
BE002FD0
FE407FD0
FFFFFF80
7FFFFE00
06FF9000
ENDCHAR
STARTCHAR Gbreve
ENCODING 286
SWIDTH 638 0
DWIDTH 18 0
BBX 16 24 1 0
BITMAP
002C02E0
003E07E0
001FFFC0
0006FE00
00000000
00000000
001BFE40
00BFFFE0
07FFFFF8
0FFFFFF4
2FF902E0
3FE00040
7FC00000
BF800000
BF807FFD
BF807FFD
BF807FFD
7FC001FD
3FE001FD
2FF902FD
1FFFFFFD
07FFFFFD
01FFFFF4
001BFE40
ENDCHAR
STARTCHAR gbreve
ENCODING 287
SWIDTH 534 0
DWIDTH 15 0
BBX 14 28 1 -6
BITMAP
01401400
0F803D00
0BD0BD00
07FFFC00
02FFF400
007F9000
00000000
00000000
02BFFFD0
1FFFFFD0
3FFFFFD0
7F82FD00
BF40FD00
BF40FE00
7F82FD00
2FFFFC00
0FFFF400
2FFF8000
3F000000
7F400000
3FFFFA00
2FFFFFC0
2FFFFFD0
BE002FD0
FE407FD0
FFFFFF80
7FFFFE00
06FF9000
ENDCHAR
STARTCHAR Gdotaccent
ENCODING 288
SWIDTH 638 0
DWIDTH 18 0
BBX 16 24 1 0
BITMAP
0001F800
0003FE00
0003FE00
0001F800
00000000
00000000
001BFE40
00BFFFE0
07FFFFF8
0FFFFFF4
2FF902E0
3FE00040
7FC00000
BF800000
BF807FFD
BF807FFD
BF807FFD
7FC001FD
3FE001FD
2FF902FD
1FFFFFFD
07FFFFFD
01FFFFF4
001BFE40
ENDCHAR
STARTCHAR gdotaccent
ENCODING 289
SWIDTH 534 0
DWIDTH 15 0
BBX 14 26 1 -6
BITMAP
002F4000
007FC000
007FC000
002F4000
00000000
00000000
02BFFFD0
1FFFFFD0
3FFFFFD0
7F82FD00
BF40FD00
BF40FE00
7F82FD00
2FFFFC00
0FFFF400
2FFF8000
3F000000
7F400000
3FFFFA00
2FFFFFC0
2FFFFFD0
BE002FD0
FE407FD0
FFFFFF80
7FFFFE00
06FF9000
ENDCHAR
STARTCHAR uni0122
ENCODING 290
SWIDTH 638 0
DWIDTH 18 0
BBX 16 25 1 -7
BITMAP
001BFE40
00BFFFE0
07FFFFF8
0FFFFFF4
2FF902E0
3FE00040
7FC00000
BF800000
BF807FFD
BF807FFD
BF807FFD
7FC001FD
3FE001FD
2FF902FD
1FFFFFFD
07FFFFFD
01FFFFF4
001BFE40
00000000
0001E400
0002FD00
00007E00
0000BE00
000FFD00
000B9000
ENDCHAR
STARTCHAR uni0123
ENCODING 291
SWIDTH 534 0
DWIDTH 15 0
BBX 14 28 1 -6
BITMAP
0006E000
007FF000
00BE0000
00BD0000
007F8000
001B4000
00000000
00000000
02BFFFD0
1FFFFFD0
3FFFFFD0
7F82FD00
BF40FD00
BF40FE00
7F82FD00
2FFFFC00
0FFFF400
2FFF8000
3F000000
7F400000
3FFFFA00
2FFFFFC0
2FFFFFD0
BE002FD0
FE407FD0
FFFFFF80
7FFFFE00
06FF9000
ENDCHAR
STARTCHAR Hcircumflex
ENCODING 292
SWIDTH 674 0
DWIDTH 19 0
BBX 15 23 2 0
BITMAP
007FF000
01FFFC00
03F4BE00
01901D00
00000000
FF4007F8
FF4007F8
FF4007F8
FF4007F8
FF4007F8
FF4007F8
FFFFFFF8
FFFFFFF8
FFFFFFF8
FFFFFFF8
FF4007F8
FF4007F8
FF4007F8
FF4007F8
FF4007F8
FF4007F8
FF4007F8
FF4007F8
ENDCHAR
STARTCHAR hcircumflex
ENCODING 293
SWIDTH 571 0
DWIDTH 16 0
BBX 16 24 -1 0
BITMAP
0BFD0000
2FFF4000
BE1FD000
64028000
07FC0000
07FC0000
07FC0000
07FC0000
07FC0000
07FC0000
07FC6F90
07FAFFF4
07FFFFF8
07FF47FC
07FD03FD
07FC02FD
07FC02FD
07FC02FD
07FC02FD
07FC02FD
07FC02FD
07FC02FD
07FC02FD
07FC02FD
ENDCHAR
STARTCHAR Hbar
ENCODING 294
SWIDTH 712 0
DWIDTH 20 0
BBX 20 18 0 0
BITMAP
07F8003FD0
07F8003FD0
7FFFFFFFFD
7FFFFFFFFD
7FFFFFFFFD
07F8003FD0
07F8003FD0
07FFFFFFD0
07FFFFFFD0
07FFFFFFD0
07F8003FD0
07F8003FD0
07F8003FD0
07F8003FD0
07F8003FD0
07F8003FD0
07F8003FD0
07F8003FD0
ENDCHAR
STARTCHAR hbar
ENCODING 295
SWIDTH 571 0
DWIDTH 16 0
BBX 15 20 0 0
BITMAP
1FF00000
1FF00000
FFFFF800
FFFFF800
FFFFF800
1FF00000
1FF00000
1FF01400
1FE2FF80
1FFFFFE0
1FFFBFF0
1FF80FF4
1FF00FF4
1FF00BF4
1FF00BF4
1FF00BF4
1FF00BF4
1FF00BF4
1FF00BF4
1FF00BF4
ENDCHAR
STARTCHAR Itilde
ENCODING 296
SWIDTH 301 0
DWIDTH 8 0
BBX 12 24 -2 0
BITMAP
0BE010
2FFD7E
3FFFFD
7E2FFC
0006A0
000000
00FF40
00FF40
00FF40
00FF40
00FF40
00FF40
00FF40
00FF40
00FF40
00FF40
00FF40
00FF40
00FF40
00FF40
00FF40
00FF40
00FF40
00FF40
ENDCHAR
STARTCHAR itilde
ENCODING 297
SWIDTH 276 0
DWIDTH 8 0
BBX 11 21 -2 0
BITMAP
0BD07C
2FF8BC
3FFFF8
7E7FF4
7D0BD0
000000
000000
01FF00
01FF00
01FF00
01FF00
01FF00
01FF00
01FF00
01FF00
01FF00
01FF00
01FF00
01FF00
01FF00
01FF00
ENDCHAR
STARTCHAR Imacron
ENCODING 298
SWIDTH 301 0
DWIDTH 8 0
BBX 9 23 0 0
BITMAP
FFFF40
FFFF40
FFFF40
000000
000000
0FF400
0FF400
0FF400
0FF400
0FF400
0FF400
0FF400
0FF400
0FF400
0FF400
0FF400
0FF400
0FF400
0FF400
0FF400
0FF400
0FF400
0FF400
ENDCHAR
STARTCHAR imacron
ENCODING 299
SWIDTH 276 0
DWIDTH 8 0
BBX 9 20 -1 0
BITMAP
7FFFC0
7FFFC0
7FFFC0
000000
000000
000000
07FC00
07FC00
07FC00
07FC00
07FC00
07FC00
07FC00
07FC00
07FC00
07FC00
07FC00
07FC00
07FC00
07FC00
ENDCHAR
STARTCHAR uni012C
ENCODING 300
SWIDTH 301 0
DWIDTH 8 0
BBX 10 24 -1 0
BITMAP
6C02D0
3E07D0
1FFFC0
06FE00
000000
000000
03FD00
03FD00
03FD00
03FD00
03FD00
03FD00
03FD00
03FD00
03FD00
03FD00
03FD00
03FD00
03FD00
03FD00
03FD00
03FD00
03FD00
03FD00
ENDCHAR
STARTCHAR uni012D
ENCODING 301
SWIDTH 276 0
DWIDTH 8 0
BBX 10 22 -1 0
BITMAP
140140
B803E0
BD0BD0
7FFFC0
2FFF40
06F900
000000
000000
07FC00
07FC00
07FC00
07FC00
07FC00
07FC00
07FC00
07FC00
07FC00
07FC00
07FC00
07FC00
07FC00
07FC00
ENDCHAR
STARTCHAR Iogonek
ENCODING 302
SWIDTH 301 0
DWIDTH 8 0
BBX 6 24 1 -6
BITMAP
3FD0
3FD0
3FD0
3FD0
3FD0
3FD0
3FD0
3FD0
3FD0
3FD0
3FD0
3FD0
3FD0
3FD0
3FD0
3FD0
3FD0
3FD0
1F40
7D00
BD00
BFE0
BFF0
2F90
ENDCHAR
STARTCHAR iogonek
ENCODING 303
SWIDTH 276 0
DWIDTH 8 0
BBX 6 26 1 -6
BITMAP
2F40
7FC0
7FC0
2F40
0000
0000
7FC0
7FC0
7FC0
7FC0
7FC0
7FC0
7FC0
7FC0
7FC0
7FC0
7FC0
7FC0
7FC0
7FC0
2F40
7D00
BC00
BD00
BFE0
2F90
ENDCHAR
STARTCHAR Idotaccent
ENCODING 304
SWIDTH 301 0
DWIDTH 8 0
BBX 5 24 2 0
BITMAP
7E00
FF40
FF40
7E00
0000
0000
FF40
FF40
FF40
FF40
FF40
FF40
FF40
FF40
FF40
FF40
FF40
FF40
FF40
FF40
FF40
FF40
FF40
FF40
ENDCHAR
STARTCHAR dotlessi
ENCODING 305
SWIDTH 276 0
DWIDTH 8 0
BBX 5 14 1 0
BITMAP
7FC0
7FC0
7FC0
7FC0
7FC0
7FC0
7FC0
7FC0
7FC0
7FC0
7FC0
7FC0
7FC0
7FC0
ENDCHAR
STARTCHAR uni0132
ENCODING 306
SWIDTH 602 0
DWIDTH 17 0
BBX 13 23 2 -5
BITMAP
FF407F80
FF407F80
FF407F80
FF407F80
FF407F80
FF407F80
FF407F80
FF407F80
FF407F80
FF407F80
FF407F80
FF407F80
FF407F80
FF407F80
FF407F80
FF407F80
FF407F80
FF407F80
0000BF80
000FFF40
001FFF00
002FFD00
001FE400
ENDCHAR
STARTCHAR uni0133
ENCODING 307
SWIDTH 554 0
DWIDTH 16 0
BBX 13 27 1 -6
BITMAP
05000400
3F807F80
7FD0BFC0
7FC0BFC0
2F402E40
00000000
00000000
7FC07F80
7FC07F80
7FC07F80
7FC07F80
7FC07F80
7FC07F80
7FC07F80
7FC07F80
7FC07F80
7FC07F80
7FC07F80
7FC07F80
7FC07F80
7FC07F80
00007F80
0000BF80
0000BF40
000FFF00
001FFD00
001FE400
ENDCHAR
STARTCHAR Jcircumflex
ENCODING 308
SWIDTH 509 0
DWIDTH 14 0
BBX 15 23 0 0
BITMAP
0002FF80
0007FFE0
001FD2F4
000A00A0
00000000
0000FF40
0000FF40
0000FF40
0000FF40
0000FF40
0000FF40
0000FF40
0000FF40
0000FF40
0000FF40
0000FF40
0000FF40
0500FF00
2F42FF00
7FFFFE00
2FFFFD00
0BFFF400
01BF9000
ENDCHAR
STARTCHAR jcircumflex
ENCODING 309
SWIDTH 278 0
DWIDTH 8 0
BBX 11 27 -2 -6
BITMAP
02FF40
07FFD0
1FEBF4
3F42F8
190060
000000
000000
00FF00
00FF00
00FF00
00FF00
00FF00
00FF00
00FF00
00FF00
00FF00
00FF00
00FF00
00FF00
00FF00
00FF00
00FF00
01FE00
02FE00
3FFD00
3FF800
7F9000
ENDCHAR
STARTCHAR uni0136
ENCODING 310
SWIDTH 614 0
DWIDTH 17 0
BBX 15 25 2 -7
BITMAP
FF402FF0
FF407FD0
FF40FF40
FF42FE00
FF47FC00
FF5FF400
FF7FD000
FFFFC000
FFFFE000
FFFFF400
FFFBF800
FFE3FD00
FF81FF00
FF40BF80
FF407FD0
FF402FE0
FF400FF4
FF4007FC
00000000
001E4000
002FE000
0007F000
0007E000
00BFD000
00BA0000
ENDCHAR
STARTCHAR uni0137
ENCODING 311
SWIDTH 548 0
DWIDTH 15 0
BBX 14 27 1 -7
BITMAP
7F800000
7F800000
7F800000
7F800000
7F800000
7F800000
7F803FD0
7F80BF80
7F82FE00
7F87F800
7F9FF000
7FFFD000
7FFFD000
7FFFF000
7FFBF800
7FE2FD00
7FC1FF00
7F80BF80
7F803FD0
7F802FE0
00000000
001E4000
002FE000
0007F000
0007E000
00BFD000
00BA0000
ENDCHAR
STARTCHAR kgreenlandic
ENCODING 312
SWIDTH 548 0
DWIDTH 15 0
BBX 14 14 1 0
BITMAP
7FC03FD0
7FC0BF80
7FC2FE00
7FC7FC00
7FCFF000
7FFFD000
7FFFE000
7FFFF000
7FFFF800
7FF3FD00
7FC1FF00
7FC0BF80
7FC07FD0
7FC02FF0
ENDCHAR
STARTCHAR Lacute
ENCODING 313
SWIDTH 518 0
DWIDTH 15 0
BBX 12 25 2 0
BITMAP
009000
02F400
1FFC00
7FE000
7F4000
180000
000000
FF4000
FF4000
FF4000
FF4000
FF4000
FF4000
FF4000
FF4000
FF4000
FF4000
FF4000
FF4000
FF4000
FF4000
FFFFFE
FFFFFE
FFFFFE
FFFFFE
ENDCHAR
STARTCHAR lacute
ENCODING 314
SWIDTH 286 0
DWIDTH 8 0
BBX 8 27 1 0
BITMAP
0020
01F8
07FE
2FF8
2F90
0900
0000
7FC0
7FC0
7FC0
7FC0
7FC0
7FC0
7FC0
7FC0
7FC0
7FC0
7FC0
7FC0
7FC0
7FC0
7FC0
3FC0
3FC0
3FF4
1FF4
07F4
ENDCHAR
STARTCHAR uni013B
ENCODING 315
SWIDTH 518 0
DWIDTH 15 0
BBX 12 25 2 -7
BITMAP
FF4000
FF4000
FF4000
FF4000
FF4000
FF4000
FF4000
FF4000
FF4000
FF4000
FF4000
FF4000
FF4000
FF4000
FFFFFE
FFFFFE
FFFFFE
FFFFFE
000000
007900
00BF40
001F80
002F80
03FF00
02E400
ENDCHAR
STARTCHAR uni013C
ENCODING 316
SWIDTH 286 0
DWIDTH 8 0
BBX 7 27 1 -7
BITMAP
7FC0
7FC0
7FC0
7FC0
7FC0
7FC0
7FC0
7FC0
7FC0
7FC0
7FC0
7FC0
7FC0
7FC0
7FC0
3FC0
3FC0
3FF4
1FF4
07F4
0000
0790
0BF8
01FC
01F8
3FF4
2E80
ENDCHAR
STARTCHAR Lcaron
ENCODING 317
SWIDTH 518 0
DWIDTH 15 0
BBX 12 20 2 0
BITMAP
0001F4
0001F4
FF41F4
FF41F0
FF40F0
FF40E0
FF4000
FF4000
FF4000
FF4000
FF4000
FF4000
FF4000
FF4000
FF4000
FF4000
FFFFFE
FFFFFE
FFFFFE
FFFFFE
ENDCHAR
STARTCHAR lcaron
ENCODING 318
SWIDTH 319 0
DWIDTH 9 0
BBX 9 21 1 0
BITMAP
000F80
7FCF80
7FCF40
7FCF40
7FCF00
7FCF00
7FC000
7FC000
7FC000
7FC000
7FC000
7FC000
7FC000
7FC000
7FC000
7FC000
3FC000
3FC000
3FF400
1FF400
07F400
ENDCHAR
STARTCHAR Ldot
ENCODING 319
SWIDTH 518 0
DWIDTH 15 0
BBX 12 18 2 0
BITMAP
FF4000
FF4000
FF4000
FF4000
FF4000
FF4000
FF40B8
FF42FE
FF43FF
FF42FE
FF40B8
FF4000
FF4000
FF4000
FFFFFE
FFFFFE
FFFFFE
FFFFFE
ENDCHAR
STARTCHAR ldot
ENCODING 320
SWIDTH 453 0
DWIDTH 13 0
BBX 12 20 1 0
BITMAP
7FC000
7FC000
7FC000
7FC000
7FC000
7FC000
7FC000
7FC000
7FC1F8
7FC3FD
7FC7FE
7FC3FD
7FC1F8
7FC000
7FC000
3FC000
3FC000
3FF400
1FF400
07F400
ENDCHAR
STARTCHAR Lslash
ENCODING 321
SWIDTH 524 0
DWIDTH 15 0
BBX 15 18 -1 0
BITMAP
02FD0000
02FD0000
02FD0000
02FD0000
02FD0000
02FD0B40
02FE7FC0
02FFFF80
02FFF800
0BFF8000
7FFD0000
3FFD0000
1AFD0000
02FD0000
02FFFFF8
02FFFFF8
02FFFFF8
02FFFFF8
ENDCHAR
STARTCHAR lslash
ENCODING 322
SWIDTH 303 0
DWIDTH 8 0
BBX 10 20 -1 0
BITMAP
03FD00
03FD00
03FD00
03FD00
03FD00
03FD00
03FD80
03FFD0
03FFE0
1BFF40
7FFD00
3FFD00
17FD00
03FD00
03FD00
03FD00
02FD00
02FF80
01FF80
006F80
ENDCHAR
STARTCHAR Nacute
ENCODING 323
SWIDTH 665 0
DWIDTH 19 0
BBX 15 25 2 0
BITMAP
00002400
0000BD00
0007FF00
001FF800
001FD000
00060000
00000000
FF8007F4
FFD007F4
FFE007F4
FFF407F4
FFF807F4
FEFD07F4
FEBE07F4
FE7F47F4
FF2FC7F4
FF1FD7F4
FF0BF7F4
FF07F7F4
FF02FBF4
FF01FFF4
FF00BFF4
FF003FF4
FF002FF4
FF000FF4
ENDCHAR
STARTCHAR nacute
ENCODING 324
SWIDTH 572 0
DWIDTH 16 0
BBX 14 23 1 0
BITMAP
00001800
00003E00
0000FF80
0002FF00
000BF800
000BE000
00024000
00000000
00000000
7F46F900
7FAFFF40
7FFFFF80
7FF47FC0
7FD03FD0
7FC02FD0
7FC02FD0
7FC02FD0
7FC02FD0
7FC02FD0
7FC02FD0
7FC02FD0
7FC02FD0
7FC02FD0
ENDCHAR
STARTCHAR uni0145
ENCODING 325
SWIDTH 665 0
DWIDTH 19 0
BBX 15 25 2 -7
BITMAP
FF8007F4
FFD007F4
FFE007F4
FFF407F4
FFF807F4
FEFD07F4
FEBE07F4
FE7F47F4
FF2FC7F4
FF1FD7F4
FF0BF7F4
FF07F7F4
FF02FBF4
FF01FFF4
FF00BFF4
FF003FF4
FF002FF4
FF000FF4
00000000
000E8000
001FF000
0007F400
0007F000
007FE000
007A4000
ENDCHAR
STARTCHAR uni0146
ENCODING 326
SWIDTH 572 0
DWIDTH 16 0
BBX 14 21 1 -7
BITMAP
7F46F900
7FAFFF40
7FFFFF80
7FF47FC0
7FD03FD0
7FC02FD0
7FC02FD0
7FC02FD0
7FC02FD0
7FC02FD0
7FC02FD0
7FC02FD0
7FC02FD0
7FC02FD0
00000000
001E4000
002FD000
0007E000
000BE000
00FFD000
00B90000
ENDCHAR
STARTCHAR Ncaron
ENCODING 327
SWIDTH 665 0
DWIDTH 19 0
BBX 15 24 2 0
BITMAP
01801900
03F4BE00
01FFF800
007FF000
00000000
00000000
FF8007F4
FFD007F4
FFE007F4
FFF407F4
FFF807F4
FEFD07F4
FEBE07F4
FE7F47F4
FF2FC7F4
FF1FD7F4
FF0BF7F4
FF07F7F4
FF02FBF4
FF01FFF4
FF00BFF4
FF003FF4
FF002FF4
FF000FF4
ENDCHAR
STARTCHAR ncaron
ENCODING 328
SWIDTH 572 0
DWIDTH 16 0
BBX 14 21 1 0
BITMAP
01800A00
07F42F80
02FEFE00
00BFFC00
003FF400
00000000
00000000
7F46F900
7FAFFF40
7FFFFF80
7FF47FC0
7FD03FD0
7FC02FD0
7FC02FD0
7FC02FD0
7FC02FD0
7FC02FD0
7FC02FD0
7FC02FD0
7FC02FD0
7FC02FD0
ENDCHAR
STARTCHAR napostrophe
ENCODING 329
SWIDTH 852 0
DWIDTH 24 0
BBX 20 19 2 0
BITMAP
7E00000000
BF80000000
BF80000000
7FC0000000
0B80000000
0B41FC2FE4
2F01FDFFFC
BD01FFFFFE
B401FF92FF
0001FF00FF
0001FE00FF
0001FE00FF
0001FE00FF
0001FE00FF
0001FE00FF
0001FE00FF
0001FE00FF
0001FE00FF
0001FE00FF
ENDCHAR
STARTCHAR uni014A
ENCODING 330
SWIDTH 666 0
DWIDTH 19 0
BBX 16 18 2 0
BITMAP
FF06FA00
FF7FFFC0
FFFFFFF0
FFFFFFF4
FFD41FF8
FF400BFC
FF4003FD
FF4003FD
FF4003FD
FF4003FD
FF4003FD
FF4003FD
FF4007FC
FF400BFC
FF41FFF8
FF42FFF0
FF42FFD0
FF42FE40
ENDCHAR
STARTCHAR uni014B
ENCODING 331
SWIDTH 572 0
DWIDTH 16 0
BBX 14 19 1 -5
BITMAP
7F46F900
7F6FFF40
7FFFFFC0
7FF47FC0
7FD03FD0
7FC02FD0
7FC02FD0
7FC02FD0
7FC02FD0
7FC02FD0
7FC02FD0
7FC02FD0
7FC02FD0
7FC02FD0
00003FD0
00007FC0
000BFF80
000BFF40
000BF800
ENDCHAR
STARTCHAR Omacron
ENCODING 332
SWIDTH 684 0
DWIDTH 19 0
BBX 17 23 1 0
BITMAP
00BFFF8000
00BFFF8000
00BFFF8000
0000000000
0000000000
001BFA0000
01FFFFE000
0BFFFFF800
1FFFFFFD00
2FF807FF00
7FD001FF40
7FC000BF80
BF8000BF80
BF80007F80
BF80007F80
BF8000BF80
7FC000BF80
7FE001FF40
2FF807FF00
1FFFFFFD00
07FFFFF800
01FFFFD000
001BFA0000
ENDCHAR
STARTCHAR omacron
ENCODING 333
SWIDTH 555 0
DWIDTH 16 0
BBX 14 20 1 0
BITMAP
07FFFC00
07FFFC00
07FFFC00
00000000
00000000
00000000
01BF9000
0BFFFD00
2FFFFF00
3FD0BF80
BF803FC0
FF403FD0
FF402FD0
FF402FD0
FF403FD0
BF803FC0
7FD0BF80
2FFFFF00
0BFFFD00
01BF9000
ENDCHAR
STARTCHAR uni014E
ENCODING 334
SWIDTH 684 0
DWIDTH 19 0
BBX 17 24 1 0
BITMAP
00B4078000
00BD1F8000
003FFF4000
000BF90000
0000000000
0000000000
001BFA0000
01FFFFE000
0BFFFFF800
1FFFFFFD00
2FF807FF00
7FD001FF40
7FC000BF80
BF8000BF80
BF80007F80
BF80007F80
BF8000BF80
7FC000BF80
7FE001FF40
2FF807FF00
1FFFFFFD00
07FFFFF800
01FFFFD000
001BFA0000
ENDCHAR
STARTCHAR uni014F
ENCODING 335
SWIDTH 555 0
DWIDTH 16 0
BBX 14 22 1 0
BITMAP
01001000
0F803D00
0BD0BD00
07FFFC00
02FFF400
00BF9000
00000000
00000000
01BF9000
0BFFFD00
2FFFFF00
3FD0BF80
BF803FC0
FF403FD0
FF402FD0
FF402FD0
FF403FD0
BF803FC0
7FD0BF80
2FFFFF00
0BFFFD00
01BF9000
ENDCHAR
STARTCHAR Ohungarumlaut
ENCODING 336
SWIDTH 684 0
DWIDTH 19 0
BBX 17 24 1 0
BITMAP
0002806400
0007F1FD00
000FD2F400
002F4BD000
001D068000
0000000000
001BFA0000
01FFFFE000
0BFFFFF800
1FFFFFFD00
2FF807FF00
7FD001FF40
7FC000BF80
BF8000BF80
BF80007F80
BF80007F80
BF8000BF80
7FC000BF80
7FE001FF40
2FF807FF00
1FFFFFFD00
07FFFFF800
01FFFFD000
001BFA0000
ENDCHAR
STARTCHAR ohungarumlaut
ENCODING 337
SWIDTH 555 0
DWIDTH 16 0
BBX 14 22 1 0
BITMAP
00280900
003F0FC0
00BE2F80
00FC3F00
02F4BD00
01A06800
00000000
00000000
01BF9000
0BFFFD00
2FFFFF00
3FD0BF80
BF803FC0
FF403FD0
FF402FD0
FF402FD0
FF403FD0
BF803FC0
7FD0BF80
2FFFFF00
0BFFFD00
01BF9000
ENDCHAR
STARTCHAR OE
ENCODING 338
SWIDTH 871 0
DWIDTH 24 0
BBX 22 18 1 0
BITMAP
001AFFFFFFE0
01FFFFFFFFE0
07FFFFFFFFE0
1FFFFFFFFFE0
2FF907F80000
7FE007F80000
7FC007F80000
BF8007FFFF80
BF8007FFFF80
BF8007FFFF80
BF8007F80000
7FC007F80000
3FE007F80000
2FF907F80000
1FFFFFFFFFF0
07FFFFFFFFF0
01FFFFFFFFF0
001BFFFFFFF0
ENDCHAR
STARTCHAR oe
ENCODING 339
SWIDTH 822 0
DWIDTH 23 0
BBX 21 14 1 0
BITMAP
01BF802FE000
0BFFF5FFFD00
2FFFFFFFFF00
7FD1FFE03F80
BF807FC02F80
FF403FFFFFC0
FF403FFFFFC0
FF403FFFFFC0
FF403FC00000
BF807FD00000
7FD1FFF40900
2FFFFFFFFF00
0BFFF4FFFF40
01BF802FE400
ENDCHAR
STARTCHAR Racute
ENCODING 340
SWIDTH 613 0
DWIDTH 17 0
BBX 15 25 2 0
BITMAP
00006000
0002F800
000BFD00
003FF400
003F8000
00190000
00000000
FFFFE400
FFFFFE00
FFFFFF80
FFFFFFD0
FF407FE0
FF401FE0
FF401FE0
FF402FE0
FF407FD0
FFFFFF80
FFFFFE00
FFFFF800
FF47FD00
FF42FF00
FF40FF40
FF407FC0
FF402FE0
FF401FF4
ENDCHAR
STARTCHAR racute
ENCODING 341
SWIDTH 398 0
DWIDTH 11 0
BBX 11 23 1 0
BITMAP
000080
0002F0
000BFC
002FF4
007FD0
007E00
001800
000000
000000
7F46F0
7F6FF0
7FFFE0
7FFFE0
7FE400
7FC000
7FC000
7FC000
7FC000
7FC000
7FC000
7FC000
7FC000
7FC000
ENDCHAR
STARTCHAR uni0156
ENCODING 342
SWIDTH 613 0
DWIDTH 17 0
BBX 15 25 2 -7
BITMAP
FFFFE400
FFFFFE00
FFFFFF80
FFFFFFD0
FF407FE0
FF401FE0
FF401FE0
FF402FE0
FF407FD0
FFFFFF80
FFFFFE00
FFFFF800
FF47FD00
FF42FF00
FF40FF40
FF407FC0
FF402FE0
FF401FF4
00000000
001E4000
002FD000
000BE000
000BE000
00FFC000
00B90000
ENDCHAR
STARTCHAR uni0157
ENCODING 343
SWIDTH 398 0
DWIDTH 11 0
BBX 11 21 0 -7
BITMAP
1FD1BC
1FDBFC
1FFFF8
1FFFF8
1FF900
1FF000
1FF000
1FF000
1FF000
1FF000
1FF000
1FF000
1FF000
1FF000
000000
0B9000
0FF400
02F400
06F400
7FE000
3E4000
ENDCHAR
STARTCHAR Rcaron
ENCODING 344
SWIDTH 613 0
DWIDTH 17 0
BBX 15 24 2 0
BITMAP
06406400
0BE1FC00
03FFF400
00FFD000
00000000
00000000
FFFFE400
FFFFFE00
FFFFFF80
FFFFFFD0
FF407FE0
FF401FE0
FF401FE0
FF402FE0
FF407FD0
FFFFFF80
FFFFFE00
FFFFF800
FF47FD00
FF42FF00
FF40FF40
FF407FC0
FF402FE0
FF401FF4
ENDCHAR
STARTCHAR rcaron
ENCODING 345
SWIDTH 398 0
DWIDTH 11 0
BBX 11 21 1 0
BITMAP
190060
3F42F8
1FEBF4
07FFD0
02FF40
000000
000000
7F46F0
7F6FF0
7FFFE0
7FFFE0
7FE400
7FC000
7FC000
7FC000
7FC000
7FC000
7FC000
7FC000
7FC000
7FC000
ENDCHAR
STARTCHAR Sacute
ENCODING 346
SWIDTH 556 0
DWIDTH 16 0
BBX 14 25 1 0
BITMAP
00002400
0001FC00
0007FE00
001FF800
001FD000
000A0000
00000000
00AFE400
07FFFE00
1FFFFF80
3FFFFF40
7FD06E00
7FC00000
3FE40000
2FFF9000
0BFFF900
01FFFF40
001BFFC0
0000BFD0
08002FE0
2F907FE0
BFFFFFD0
7FFFFF80
1FFFFE00
01BFA400
ENDCHAR
STARTCHAR sacute
ENCODING 347
SWIDTH 443 0
DWIDTH 12 0
BBX 11 23 1 0
BITMAP
000180
0007E0
000FF8
002FE0
00BF80
00BE00
002400
000000
000000
06FE40
2FFFF4
7FFFF0
BF41D0
BF4000
7FE400
2FFF80
07FFE0
006FF4
1007F8
790BF8
FFFFF4
BFFFD0
1BFE40
ENDCHAR
STARTCHAR Scircumflex
ENCODING 348
SWIDTH 556 0
DWIDTH 16 0
BBX 14 23 1 0
BITMAP
00BFE000
01FFF800
07F4BE00
02802900
00000000
00AFE400
07FFFE00
1FFFFF80
3FFFFF40
7FD06E00
7FC00000
3FE40000
2FFF9000
0BFFF900
01FFFF40
001BFFC0
0000BFD0
08002FE0
2F907FE0
BFFFFFD0
7FFFFF80
1FFFFE00
01BFA400
ENDCHAR
STARTCHAR scircumflex
ENCODING 349
SWIDTH 443 0
DWIDTH 12 0
BBX 11 21 1 0
BITMAP
03FF00
0BFFC0
2FEFE0
7F42F4
2800A0
000000
000000
06FE40
2FFFF4
7FFFF0
BF41D0
BF4000
7FE400
2FFF80
07FFE0
006FF4
1007F8
790BF8
FFFFF4
BFFFD0
1BFE40
ENDCHAR
STARTCHAR uni015E
ENCODING 350
SWIDTH 556 0
DWIDTH 16 0
BBX 14 25 1 -7
BITMAP
00AFE400
07FFFE00
1FFFFF80
3FFFFF40
7FD06E00
7FC00000
3FE40000
2FFF9000
0BFFF900
01FFFF40
001BFFC0
0000BFD0
08002FE0
2F907FE0
BFFFFFD0
7FFFFF80
1FFFFE00
01BFA400
001A0000
003E0000
007F8000
001BD000
001BD000
01FFC000
00F90000
ENDCHAR
STARTCHAR uni015F
ENCODING 351
SWIDTH 443 0
DWIDTH 12 0
BBX 11 21 1 -7
BITMAP
06FE40
2FFFF4
7FFFF0
BF41D0
BF4000
7FE400
2FFF80
07FFE0
006FF4
1007F8
790BF8
FFFFF4
BFFFD0
1BFE40
00A800
00F400
02FD00
007F00
007F40
07FE00
07E400
ENDCHAR
STARTCHAR Scaron
ENCODING 352
SWIDTH 556 0
DWIDTH 16 0
BBX 14 24 1 0
BITMAP
02802900
07F4BE00
01FFF800
00BFE000
00000000
00000000
00AFE400
07FFFE00
1FFFFF80
3FFFFF40
7FD06E00
7FC00000
3FE40000
2FFF9000
0BFFF900
01FFFF40
001BFFC0
0000BFD0
08002FE0
2F907FE0
BFFFFFD0
7FFFFF80
1FFFFE00
01BFA400
ENDCHAR
STARTCHAR scaron
ENCODING 353
SWIDTH 443 0
DWIDTH 12 0
BBX 11 21 1 0
BITMAP
2800A0
7F42F4
2FEFE0
0BFFC0
03FF00
000000
000000
06FE40
2FFFF4
7FFFF0
BF41D0
BF4000
7FE400
2FFF80
07FFE0
006FF4
1007F8
790BF8
FFFFF4
BFFFD0
1BFE40
ENDCHAR
STARTCHAR uni0162
ENCODING 354
SWIDTH 556 0
DWIDTH 16 0
BBX 15 25 0 -7
BITMAP
7FFFFFFC
7FFFFFFC
7FFFFFFC
7FFFFFFC
001FF000
001FF000
001FF000
001FF000
001FF000
001FF000
001FF000
001FF000
001FF000
001FF000
001FF000
001FF000
001FF000
001FF000
00068000
000F8000
001FE000
0006F400
0006F400
007FF000
003E4000
ENDCHAR
STARTCHAR uni0163
ENCODING 355
SWIDTH 383 0
DWIDTH 11 0
BBX 10 25 0 -7
BITMAP
03F800
03F800
07F800
07F800
7FFFE0
BFFFE0
BFFFE0
0BF800
0BF800
0BF800
0BF800
0BF800
0BF800
0BF800
07FD00
03FFE0
01FFF0
006FE0
001A00
003D00
007F40
001BD0
001BD0
01FF80
01F900
ENDCHAR
STARTCHAR Tcaron
ENCODING 356
SWIDTH 556 0
DWIDTH 16 0
BBX 15 24 0 0
BITMAP
01900A00
02F87F40
00BFFD00
002FF400
00000000
00000000
7FFFFFFC
7FFFFFFC
7FFFFFFC
7FFFFFFC
001FF000
001FF000
001FF000
001FF000
001FF000
001FF000
001FF000
001FF000
001FF000
001FF000
001FF000
001FF000
001FF000
001FF000
ENDCHAR
STARTCHAR tcaron
ENCODING 357
SWIDTH 383 0
DWIDTH 11 0
BBX 11 21 0 0
BITMAP
0001F4
0001F4
0001F0
03F9F0
03F9F0
07F9E0
07F800
7FFFE0
BFFFE0
BFFFE0
0BF800
0BF800
0BF800
0BF800
0BF800
0BF800
0BF800
07FD00
03FFE0
01FFF0
006FE0
ENDCHAR
STARTCHAR uni0166
ENCODING 358
SWIDTH 556 0
DWIDTH 16 0
BBX 15 18 0 0
BITMAP
7FFFFFFC
7FFFFFFC
7FFFFFFC
001FFFFC
001FF000
001FF000
001FF000
07FFFFC0
0BFFFFC0
0BFFFFC0
001FF000
001FF000
001FF000
001FF000
001FF000
001FF000
001FF000
001FF000
ENDCHAR
STARTCHAR uni0167
ENCODING 359
SWIDTH 383 0
DWIDTH 11 0
BBX 10 18 0 0
BITMAP
03F800
03F800
07F800
07F800
7FFFE0
BFFFE0
BFFFE0
0BF800
0BF800
0BF800
7FFFE0
BFFFE0
BFFFE0
0BF800
0BF800
07FFE0
02FFF0
006FE0
ENDCHAR
STARTCHAR Utilde
ENCODING 360
SWIDTH 665 0
DWIDTH 19 0
BBX 15 24 2 0
BITMAP
01F90400
0BFF5F80
0FFFFF80
0F8BFF00
0001A800
00000000
FF4007F8
FF4007F8
FF4007F8
FF4007F8
FF4007F8
FF4007F8
FF4007F8
FF4007F8
FF4007F8
FF4007F8
FF4007F4
BF400BF4
BF800FF4
7FE06FF0
3FFFFFE0
1FFFFFC0
07FFFF40
00AFE400
ENDCHAR
STARTCHAR utilde
ENCODING 361
SWIDTH 568 0
DWIDTH 16 0
BBX 13 21 1 0
BITMAP
02F81F40
0BFE6F40
0FFFFF00
1F8BFD00
1F42F400
00000000
00000000
7F803FC0
7F803FC0
7F803FC0
7F803FC0
7F803FC0
7F803FC0
7F803FC0
7F803FC0
7F803FC0
7FC07FC0
3FD1FFC0
2FFFFFC0
1FFF9FC0
06F91FC0
ENDCHAR
STARTCHAR Umacron
ENCODING 362
SWIDTH 665 0
DWIDTH 19 0
BBX 15 23 2 0
BITMAP
03FFFE00
03FFFE00
03FFFE00
00000000
00000000
FF4007F8
FF4007F8
FF4007F8
FF4007F8
FF4007F8
FF4007F8
FF4007F8
FF4007F8
FF4007F8
FF4007F8
FF4007F4
BF400BF4
BF800FF4
7FE06FF0
3FFFFFE0
1FFFFFC0
07FFFF40
00AFE400
ENDCHAR
STARTCHAR umacron
ENCODING 363
SWIDTH 568 0
DWIDTH 16 0
BBX 13 20 1 0
BITMAP
07FFFC00
07FFFC00
07FFFC00
00000000
00000000
00000000
7F803FC0
7F803FC0
7F803FC0
7F803FC0
7F803FC0
7F803FC0
7F803FC0
7F803FC0
7F803FC0
7FC07FC0
3FD1FFC0
2FFFFFC0
1FFF9FC0
06F91FC0
ENDCHAR
STARTCHAR Ubreve
ENCODING 364
SWIDTH 665 0
DWIDTH 19 0
BBX 15 24 2 0
BITMAP
02C02E00
03E07E00
01FFFC00
006FE000
00000000
00000000
FF4007F8
FF4007F8
FF4007F8
FF4007F8
FF4007F8
FF4007F8
FF4007F8
FF4007F8
FF4007F8
FF4007F8
FF4007F4
BF400BF4
BF800FF4
7FE06FF0
3FFFFFE0
1FFFFFC0
07FFFF40
00AFE400
ENDCHAR
STARTCHAR ubreve
ENCODING 365
SWIDTH 568 0
DWIDTH 16 0
BBX 13 22 1 0
BITMAP
01401400
0BC03E00
0BE0BE00
07FFFC00
02FFF800
006F9000
00000000
00000000
7F803FC0
7F803FC0
7F803FC0
7F803FC0
7F803FC0
7F803FC0
7F803FC0
7F803FC0
7F803FC0
7FC07FC0
3FD1FFC0
2FFFFFC0
1FFF9FC0
06F91FC0
ENDCHAR
STARTCHAR Uring
ENCODING 366
SWIDTH 665 0
DWIDTH 19 0
BBX 15 25 2 0
BITMAP
001F9000
007FF000
00B4B400
00B4B400
007FF000
001F9000
00000000
FF4007F8
FF4007F8
FF4007F8
FF4007F8
FF4007F8
FF4007F8
FF4007F8
FF4007F8
FF4007F8
FF4007F8
FF4007F4
BF400BF4
BF800FF4
7FE06FF0
3FFFFFE0
1FFFFFC0
07FFFF40
00AFE400
ENDCHAR
STARTCHAR uring
ENCODING 367
SWIDTH 568 0
DWIDTH 16 0
BBX 13 22 1 0
BITMAP
006F9000
01FFF400
02F0F800
02F0F800
01FFF400
006F9000
00000000
00000000
7F803FC0
7F803FC0
7F803FC0
7F803FC0
7F803FC0
7F803FC0
7F803FC0
7F803FC0
7F803FC0
7FC07FC0
3FD1FFC0
2FFFFFC0
1FFF9FC0
06F91FC0
ENDCHAR
STARTCHAR Uhungarumlaut
ENCODING 368
SWIDTH 665 0
DWIDTH 19 0
BBX 15 24 2 0
BITMAP
00090280
002F87F0
007E1FD0
00FC2F40
00A01D00
00000000
FF4007F8
FF4007F8
FF4007F8
FF4007F8
FF4007F8
FF4007F8
FF4007F8
FF4007F8
FF4007F8
FF4007F8
FF4007F4
BF400BF4
BF800FF4
7FE06FF0
3FFFFFE0
1FFFFFC0
07FFFF40
00AFE400
ENDCHAR
STARTCHAR uhungarumlaut
ENCODING 369
SWIDTH 568 0
DWIDTH 16 0
BBX 14 22 1 0
BITMAP
00190600
003F4BD0
007E1FC0
00FC2F40
01F47E00
00A06C00
00000000
00000000
7F803FC0
7F803FC0
7F803FC0
7F803FC0
7F803FC0
7F803FC0
7F803FC0
7F803FC0
7F803FC0
7FC07FC0
3FD1FFC0
2FFFFFC0
1FFF9FC0
06F91FC0
ENDCHAR
STARTCHAR Uogonek
ENCODING 370
SWIDTH 665 0
DWIDTH 19 0
BBX 15 24 2 -6
BITMAP
FF4007F8
FF4007F8
FF4007F8
FF4007F8
FF4007F8
FF4007F8
FF4007F8
FF4007F8
FF4007F8
FF4007F8
FF4007F8
FF400BF4
BF800FF4
7FE06FF0
3FFFFFE0
1FFFFFC0
0BFFFF40
01BFF400
000B8000
002F0000
003F0000
003FF400
003FF800
000BE400
ENDCHAR
STARTCHAR uogonek
ENCODING 371
SWIDTH 568 0
DWIDTH 16 0
BBX 14 20 1 -6
BITMAP
7F803FC0
7F803FC0
7F803FC0
7F803FC0
7F803FC0
7F803FC0
7F803FC0
7F803FC0
7F803FC0
7FC07FC0
3FD1FFC0
2FFFFFC0
1FFF9FC0
06F91FC0
00003F40
0000BC00
0000F800
0000FC00
0000BFD0
00002F90
ENDCHAR
STARTCHAR Wcircumflex
ENCODING 372
SWIDTH 813 0
DWIDTH 23 0
BBX 23 23 0 0
BITMAP
00007FF00000
0001FFF80000
0003F4BE0000
000190190000
000000000000
BF801FD00BF4
7FC02FE00BF0
3FC02FF00FF0
3FC03FF00FE0
2FD07FF41FE0
2FD0BFF81FD0
1FE0BEF82FD0
1FE0FDFC2FC0
0FF1FCFD2FC0
0BF1F8FD3F80
0BF2F4BE3F80
07F6F47F7F40
07F7F07F7F00
03FBE03FBF00
03FFE02FFE00
02FFD02FFE00
02FFD01FFD00
01FFC00FFD00
ENDCHAR
STARTCHAR wcircumflex
ENCODING 373
SWIDTH 776 0
DWIDTH 22 0
BBX 21 21 0 0
BITMAP
0000BFD00000
0001FFF40000
0007FBFC0000
000FD0BE0000
000640180000
000000000000
000000000000
7FC03FC03FC0
3FC07FC03F80
2FD07FD07F40
1FD0BFE07F40
1FE0FFE0BF00
0FF0FBF0FE00
0BF1F6F4FE00
07F6F6F9FD00
07F6F1F9FC00
03FBF0FEF800
02FFE0FFF800
01FFD0BFF400
01FFD07FF000
00FFC07FF000
ENDCHAR
STARTCHAR Ycircumflex
ENCODING 374
SWIDTH 525 0
DWIDTH 15 0
BBX 15 23 0 0
BITMAP
007FF000
01FFF800
03F4BE00
01901900
00000000
FF400BF8
BF800FF4
3FD01FE0
2FE02FD0
0FF07F80
0BF4BF40
03F8FE00
02FDFD00
01FFFC00
00BFF400
007FF000
002FD000
002FD000
002FD000
002FD000
002FD000
002FD000
002FD000
ENDCHAR
STARTCHAR ycircumflex
ENCODING 375
SWIDTH 521 0
DWIDTH 15 0
BBX 14 27 0 -6
BITMAP
003FF000
00FFF800
02FEFE00
07E07F40
02800A00
00000000
00000000
7F800FF0
3FC00FE0
2FD01FD0
1FE02FC0
0FF03F80
0BF47F40
07F87F00
02FCBE00
01FCFD00
00FEFC00
00BFF800
007FF400
003FF000
002FE000
001FD000
002FC000
00BF8000
0FFF0000
1FFD0000
1FE00000
ENDCHAR
STARTCHAR Ydieresis
ENCODING 376
SWIDTH 525 0
DWIDTH 15 0
BBX 15 24 0 0
BITMAP
02D02E00
0BF07F40
0BF07F40
02D02E00
00000000
00000000
FF400BF8
BF800FF4
3FD01FE0
2FE02FD0
0FF07F80
0BF4BF40
03F8FE00
02FDFD00
01FFFC00
00BFF400
007FF000
002FD000
002FD000
002FD000
002FD000
002FD000
002FD000
002FD000
ENDCHAR
STARTCHAR Zacute
ENCODING 377
SWIDTH 541 0
DWIDTH 15 0
BBX 14 25 1 0
BITMAP
00006000
0001F800
000BFD00
002FF400
002F8000
00090000
00000000
7FFFFFC0
7FFFFFC0
7FFFFFC0
7FFFFF80
0001FF00
0003FD00
000BF800
001FE000
007FC000
00FF4000
02FE0000
07FC0000
1FF40000
3FD00000
BFFFFFD0
FFFFFFD0
FFFFFFD0
FFFFFFD0
ENDCHAR
STARTCHAR zacute
ENCODING 378
SWIDTH 460 0
DWIDTH 13 0
BBX 12 23 1 0
BITMAP
000080
0002F0
000BFC
002FF4
007FD0
007E00
001800
000000
000000
7FFFFC
7FFFFC
7FFFF8
001FF0
003FD0
00BF80
01FF00
03FD00
0BF800
1FF400
3FE000
BFFFFD
FFFFFD
FFFFFD
ENDCHAR
STARTCHAR Zdotaccent
ENCODING 379
SWIDTH 541 0
DWIDTH 15 0
BBX 14 24 1 0
BITMAP
002F4000
007FC000
007FC000
002F4000
00000000
00000000
7FFFFFC0
7FFFFFC0
7FFFFFC0
7FFFFF80
0001FF00
0003FD00
000BF800
001FE000
007FC000
00FF4000
02FE0000
07FC0000
1FF40000
3FD00000
BFFFFFD0
FFFFFFD0
FFFFFFD0
FFFFFFD0
ENDCHAR
STARTCHAR zdotaccent
ENCODING 380
SWIDTH 460 0
DWIDTH 13 0
BBX 12 20 1 0
BITMAP
00BD00
01FF00
01FF00
00BD00
000000
000000
7FFFFC
7FFFFC
7FFFF8
001FF0
003FD0
00BF80
01FF00
03FD00
0BF800
1FF400
3FE000
BFFFFD
FFFFFD
FFFFFD
ENDCHAR
STARTCHAR Zcaron
ENCODING 381
SWIDTH 541 0
DWIDTH 15 0
BBX 14 24 1 0
BITMAP
06802800
07E1FD00
02FFF400
00BFE000
00000000
00000000
7FFFFFC0
7FFFFFC0
7FFFFFC0
7FFFFF80
0001FF00
0003FD00
000BF800
001FE000
007FC000
00FF4000
02FE0000
07FC0000
1FF40000
3FD00000
BFFFFFD0
FFFFFFD0
FFFFFFD0
FFFFFFD0
ENDCHAR
STARTCHAR zcaron
ENCODING 382
SWIDTH 460 0
DWIDTH 13 0
BBX 12 21 1 0
BITMAP
190060
3F42F8
1FEFF0
0BFFD0
02FF40
000000
000000
7FFFFC
7FFFFC
7FFFF8
001FF0
003FD0
00BF80
01FF00
03FD00
0BF800
1FF400
3FE000
BFFFFD
FFFFFD
FFFFFD
ENDCHAR
STARTCHAR uni0180
ENCODING 384
SWIDTH 571 0
DWIDTH 16 0
BBX 15 20 0 0
BITMAP
1FF00000
1FF00000
FFFFF800
FFFFF800
FFFFF800
1FF00000
1FF00000
1FF00000
1FF2FE40
1FFFFFD0
1FFFFFF0
1FF91FF8
1FF00BF8
1FF007FC
1FF007FC
1FF00BF8
1FF81FF4
1FFFFFE0
1FEFFF80
1FC6F900
ENDCHAR
STARTCHAR uni018F
ENCODING 399
SWIDTH 675 0
DWIDTH 19 0
BBX 17 18 1 0
BITMAP
001BFA0000
01FFFFD000
0BFFFFF800
07FFFFFD00
02E41BFE00
004001FF00
000000FF40
000000BF80
BFFFFFFF80
BFFFFFFF80
7FFFFFFF40
7F8000BF40
3FD001FF00
2FF407FE00
1FFFFFFD00
0BFFFFF400
02FFFFD000
002BF90000
ENDCHAR
STARTCHAR uni0192
ENCODING 402
SWIDTH 528 0
DWIDTH 15 0
BBX 13 21 1 -3
BITMAP
0002BF80
000FFF80
002FFF40
003FD000
007F8000
007F8000
0BFFFD00
0FFFFD00
0FFFFD00
00BF0000
00FF0000
00FF0000
00FE0000
01FE0000
01FE0000
01FD0000
02FD0000
07FC0000
BFF80000
FFE00000
BF800000
ENDCHAR
STARTCHAR uni0193
ENCODING 403
SWIDTH 638 0
DWIDTH 18 0
BBX 17 23 1 0
BITMAP
0000006F80
000001FF80
000003FF40
000007F800
000007F000
001BFFF400
00BFFFF800
07FFFFF800
0FFFFFF000
2FF901D000
3FE0000000
7FC0000000
BF80000000
BF807FFD00
BF807FFD00
BF807FFD00
7FC001FD00
3FE001FD00
2FF902FD00
1FFFFFFD00
07FFFFFD00
01FFFFF400
001BFE4000
ENDCHAR
STARTCHAR Ohorn
ENCODING 416
SWIDTH 684 0
DWIDTH 19 0
BBX 18 22 1 0
BITMAP
0000000180
0000000FD0
0000000FE0
0000000FE0
001BF91FD0
01FFFFFF40
07FFFFF800
1FFFFFFD00
2FF807FE00
7FE001FF40
7FC000BF80
BF80007F80
BF80007FC0
BF80007FC0
BF8000BF80
7FC000BF80
3FE001FF40
2FF807FF00
1FFFFFFD00
07FFFFF800
01FFFFE000
001BFA0000
ENDCHAR
STARTCHAR ohorn
ENCODING 417
SWIDTH 555 0
DWIDTH 16 0
BBX 15 19 1 0
BITMAP
00000064
000002F8
000002F8
000002F8
000003F4
01BFAFE0
0BFFFE40
2FFFFF00
3FD0BF80
BF803FC0
FF403FD0
FF402FD0
FF402FD0
FF403FD0
BF803FC0
7FD0BF80
2FFFFF00
0BFFFD00
01BF9000
ENDCHAR
STARTCHAR Uhorn
ENCODING 431
SWIDTH 683 0
DWIDTH 19 0
BBX 19 23 2 0
BITMAP
00000001A0
00000007F0
00000007F4
00000007F0
0000001BF0
FF4007FFD0
FF4007FE00
FF4007F800
FF4007F800
FF4007F800
FF4007F800
FF4007F800
FF4007F800
FF4007F800
FF4007F800
FF4007F800
BF400BF400
BF800FF400
7FE06FF000
3FFFFFE000
1FFFFFC000
07FFFF4000
00AFE40000
ENDCHAR
STARTCHAR uhorn
ENCODING 432
SWIDTH 568 0
DWIDTH 16 0
BBX 16 20 1 0
BITMAP
00000004
0000006E
000000BF
0000007F
000000BE
000001FD
7F803FF4
7F803FC0
7F803FC0
7F803FC0
7F803FC0
7F803FC0
7F803FC0
7F803FC0
7F803FC0
7FC03FC0
3FD1FFC0
2FFFFFC0
1FFFAFC0
06F91FC0
ENDCHAR
STARTCHAR uni01C2
ENCODING 450
SWIDTH 330 0
DWIDTH 9 0
BBX 9 29 0 -7
BITMAP
01A000
02F000
02F000
02F000
02F000
02F000
02F000
02F000
02F000
02F000
BFFFC0
BFFFC0
BFFFC0
02F000
02F000
BFFFC0
BFFFC0
BFFFC0
02F000
02F000
02F000
02F000
02F000
02F000
02F000
02F000
02F000
02F000
01A000
ENDCHAR
STARTCHAR uni01CD
ENCODING 461
SWIDTH 573 0
DWIDTH 16 0
BBX 16 24 0 0
BITMAP
00A00A00
01F87F40
00BFFD00
002FF800
00000000
00000000
002FF800
003FFC00
007FFD00
00BEFE00
00FEBF00
01FD7F40
02FC7F80
03FC3FC0
03F82FD0
07F41FE0
0BF01FF0
0FFFFFF0
1FFFFFF4
2FFFFFF8
3FC003FC
7F8003FD
BF4002FE
FF4001FF
ENDCHAR
STARTCHAR uni01CE
ENCODING 462
SWIDTH 527 0
DWIDTH 15 0
BBX 12 21 1 0
BITMAP
060018
1FD0BE
0BFBFC
02FFF0
00BFD0
000000
000000
06BF90
2FFFF8
3FFFFD
1E42FE
0000FF
006BFF
0BFFFF
3FFFFF
BFE4FF
BF41FF
BF47FF
BFFFFF
3FFFBF
0BF47F
ENDCHAR
STARTCHAR uni01CF
ENCODING 463
SWIDTH 301 0
DWIDTH 8 0
BBX 10 24 -1 0
BITMAP
280190
7F4BE0
1FFF80
07FE00
000000
000000
03FD00
03FD00
03FD00
03FD00
03FD00
03FD00
03FD00
03FD00
03FD00
03FD00
03FD00
03FD00
03FD00
03FD00
03FD00
03FD00
03FD00
03FD00
ENDCHAR
STARTCHAR uni01D0
ENCODING 464
SWIDTH 276 0
DWIDTH 8 0
BBX 10 21 -1 0
BITMAP
640180
FD0BE0
7FBFC0
2FFF40
0BFD00
000000
000000
07FC00
07FC00
07FC00
07FC00
07FC00
07FC00
07FC00
07FC00
07FC00
07FC00
07FC00
07FC00
07FC00
07FC00
ENDCHAR
STARTCHAR uni01D1
ENCODING 465
SWIDTH 684 0
DWIDTH 19 0
BBX 17 24 1 0
BITMAP
0064064000
00BE1FC000
003FFF0000
000FFD0000
0000000000
0000000000
001BFA0000
01FFFFE000
0BFFFFF800
1FFFFFFD00
2FF807FF00
7FD001FF40
7FC000BF80
BF8000BF80
BF80007F80
BF80007F80
BF8000BF80
7FC000BF80
7FE001FF40
2FF807FF00
1FFFFFFD00
07FFFFF800
01FFFFD000
001BFA0000
ENDCHAR
STARTCHAR uni01D2
ENCODING 466
SWIDTH 555 0
DWIDTH 16 0
BBX 14 21 1 0
BITMAP
06001800
0FD0BE00
07FBFC00
02FFF400
00BFD000
00000000
00000000
01BF9000
0BFFFD00
2FFFFF00
3FD0BF80
BF803FC0
FF403FD0
FF402FD0
FF402FD0
FF403FD0
BF803FC0
7FD0BF80
2FFFFF00
0BFFFD00
01BF9000
ENDCHAR
STARTCHAR uni01D3
ENCODING 467
SWIDTH 665 0
DWIDTH 19 0
BBX 15 24 2 0
BITMAP
02801900
03F4BE00
01FFF800
007FF000
00000000
00000000
FF4007F8
FF4007F8
FF4007F8
FF4007F8
FF4007F8
FF4007F8
FF4007F8
FF4007F8
FF4007F8
FF4007F8
FF4007F4
BF400BF4
BF800FF4
7FE06FF0
3FFFFFE0
1FFFFFC0
07FFFF40
00AFE400
ENDCHAR
STARTCHAR uni01D4
ENCODING 468
SWIDTH 568 0
DWIDTH 16 0
BBX 13 21 1 0
BITMAP
06401900
0FE0BF00
07FAFD00
01FFF400
00BFE000
00000000
00000000
7F803FC0
7F803FC0
7F803FC0
7F803FC0
7F803FC0
7F803FC0
7F803FC0
7F803FC0
7F803FC0
7FC07FC0
3FD1FFC0
2FFFFFC0
1FFF9FC0
06F91FC0
ENDCHAR
STARTCHAR uni01D5
ENCODING 469
SWIDTH 665 0
DWIDTH 19 0
BBX 15 26 2 0
BITMAP
03FFFE00
03FFFE00
00000000
03D02E00
07F07F00
03D02E00
00000000
00000000
FF4007F8
FF4007F8
FF4007F8
FF4007F8
FF4007F8
FF4007F8
FF4007F8
FF4007F8
FF4007F8
FF4007F8
FF4007F4
BF400BF4
BF800FF4
7FE06FF0
3FFFFFE0
1FFFFFC0
07FFFF40
00AFE400
ENDCHAR
STARTCHAR uni01D6
ENCODING 470
SWIDTH 568 0
DWIDTH 16 0
BBX 13 23 1 0
BITMAP
03FFFC00
03FFFC00
00000000
00000000
07D07D00
0BE0BE00
07D07D00
00000000
00000000
7F803FC0
7F803FC0
7F803FC0
7F803FC0
7F803FC0
7F803FC0
7F803FC0
7F803FC0
7F803FC0
7FC07FC0
3FD1FFC0
2FFFFFC0
1FFF9FC0
06F91FC0
ENDCHAR
STARTCHAR uni01D7
ENCODING 471
SWIDTH 665 0
DWIDTH 19 0
BBX 15 28 2 0
BITMAP
00009000
0002F800
0007F000
000FC000
00060000
03D02E00
07F07F00
03D02E00
00000000
00000000
FF4007F8
FF4007F8
FF4007F8
FF4007F8
FF4007F8
FF4007F8
FF4007F8
FF4007F8
FF4007F8
FF4007F8
FF4007F4
BF400BF4
BF800FF4
7FE06FF0
3FFFFFE0
1FFFFFC0
07FFFF40
00AFE400
ENDCHAR
STARTCHAR uni01D8
ENCODING 472
SWIDTH 568 0
DWIDTH 16 0
BBX 13 24 1 0
BITMAP
0002D000
0007E000
000F8000
000A0000
00000000
07D07D00
0BE0BE00
07D07D00
00000000
00000000
7F803FC0
7F803FC0
7F803FC0
7F803FC0
7F803FC0
7F803FC0
7F803FC0
7F803FC0
7F803FC0
7FC07FC0
3FD1FFC0
2FFFFFC0
1FFF9FC0
06F91FC0
ENDCHAR
STARTCHAR uni01D9
ENCODING 473
SWIDTH 665 0
DWIDTH 19 0
BBX 15 28 2 0
BITMAP
01D02800
02F9FD00
00BFF400
003FD000
00000000
03D02E00
07F07F00
03D02E00
00000000
00000000
FF4007F8
FF4007F8
FF4007F8
FF4007F8
FF4007F8
FF4007F8
FF4007F8
FF4007F8
FF4007F8
FF4007F8
FF4007F4
BF400BF4
BF800FF4
7FE06FF0
3FFFFFE0
1FFFFFC0
07FFFF40
00AFE400
ENDCHAR
STARTCHAR uni01DA
ENCODING 474
SWIDTH 568 0
DWIDTH 16 0
BBX 13 24 1 0
BITMAP
02D07800
02F5F800
00FFF000
003FC000
00000000
07D07D00
0BE0BE00
07D07D00
00000000
00000000
7F803FC0
7F803FC0
7F803FC0
7F803FC0
7F803FC0
7F803FC0
7F803FC0
7F803FC0
7F803FC0
7FC07FC0
3FD1FFC0
2FFFFFC0
1FFF9FC0
06F91FC0
ENDCHAR
STARTCHAR uni01DB
ENCODING 475
SWIDTH 665 0
DWIDTH 19 0
BBX 15 28 2 0
BITMAP
00280000
00FD0000
007F0000
001F8000
00060000
03D02E00
07F07F00
03D02E00
00000000
00000000
FF4007F8
FF4007F8
FF4007F8
FF4007F8
FF4007F8
FF4007F8
FF4007F8
FF4007F8
FF4007F8
FF4007F8
FF4007F4
BF400BF4
BF800FF4
7FE06FF0
3FFFFFE0
1FFFFFC0
07FFFF40
00AFE400
ENDCHAR
STARTCHAR uni01DC
ENCODING 476
SWIDTH 568 0
DWIDTH 16 0
BBX 13 25 1 0
BITMAP
00240000
00BC0000
007E0000
001F0000
000A0000
00000000
07D07D00
0BE0BE00
07D07D00
00000000
00000000
7F803FC0
7F803FC0
7F803FC0
7F803FC0
7F803FC0
7F803FC0
7F803FC0
7F803FC0
7F803FC0
7FC07FC0
3FD1FFC0
2FFFFFC0
1FFF9FC0
06F91FC0
ENDCHAR
STARTCHAR uni01E2
ENCODING 482
SWIDTH 845 0
DWIDTH 24 0
BBX 23 24 0 0
BITMAP
000007FFFD00
000007FFFD00
000007FFFD00
000000000000
000000000000
000000000000
0000FFFFFFF0
0001FFFFFFF0
0003FFFFFFF0
0007FBFFFFF0
000FF7FC0000
001FE7FC0000
003FD7FC0000
007FC7FFFF80
00BF47FFFF80
01FF07FFFF80
02FE07FC0000
07FFFFFC0000
0BFFFFFC0000
1FFFFFFC0000
2FE007FFFFF4
7FC007FFFFF4
BF8007FFFFF4
FF4007FFFFF4
ENDCHAR
STARTCHAR uni01E3
ENCODING 483
SWIDTH 786 0
DWIDTH 22 0
BBX 20 20 1 0
BITMAP
000BFFF800
000BFFF800
000BFFF800
0000000000
0000000000
0000000000
01BF80BF80
2FFFE7FFF4
2FFFFFFFFC
1E42FF81FD
0000FF00BE
006BFFFFFF
0BFFFFFFFF
2FFFFFFFFF
7FE4BF0000
BF40FF4000
BF86FFD064
7FFFFFFFFC
2FFF8BFFFD
0BF901BF90
ENDCHAR
STARTCHAR Gcaron
ENCODING 486
SWIDTH 638 0
DWIDTH 18 0
BBX 16 24 1 0
BITMAP
00280190
003F4BE0
001FFF80
0007FF00
00000000
00000000
001BFE40
00BFFFE0
07FFFFF8
0FFFFFF4
2FF902E0
3FE00040
7FC00000
BF800000
BF807FFD
BF807FFD
BF807FFD
7FC001FD
3FE001FD
2FF902FD
1FFFFFFD
07FFFFFD
01FFFFF4
001BFE40
ENDCHAR
STARTCHAR gcaron
ENCODING 487
SWIDTH 534 0
DWIDTH 15 0
BBX 14 27 1 -6
BITMAP
06001800
0FD0BE00
07FBFC00
02FFF400
00BFD000
00000000
00000000
02BFFFD0
1FFFFFD0
3FFFFFD0
7F82FD00
BF40FD00
BF40FE00
7F82FD00
2FFFFC00
0FFFF400
2FFF8000
3F000000
7F400000
3FFFFA00
2FFFFFC0
2FFFFFD0
BE002FD0
FE407FD0
FFFFFF80
7FFFFE00
06FF9000
ENDCHAR
STARTCHAR uni01EA
ENCODING 490
SWIDTH 684 0
DWIDTH 19 0
BBX 17 24 1 -6
BITMAP
001BFA0000
01FFFFE000
0BFFFFF800
1FFFFFFD00
2FF807FF00
7FD001FF40
7FC000BF80
BF8000BF80
BF80007F80
BF80007F80
BF8000BF80
7FC000BF80
7FE001FF40
2FF807FF00
1FFFFFFD00
0BFFFFF800
01FFFFD000
002BFE0000
0002F40000
0007D00000
000BD00000
000FFE0000
000BFF0000
0002F90000
ENDCHAR
STARTCHAR uni01EB
ENCODING 491
SWIDTH 555 0
DWIDTH 16 0
BBX 14 20 1 -6
BITMAP
00BF9000
07FFFD00
1FFFFF00
3FD0BF80
BF803FC0
FF403FD0
FF402FD0
FF402FD0
FF403FD0
BF803FC0
7FD0BF80
2FFFFF00
0BFFF800
01BFD000
002F0000
007D0000
00BC0000
00BD0000
007FE000
001FE000
ENDCHAR
STARTCHAR uni01F4
ENCODING 500
SWIDTH 638 0
DWIDTH 18 0
BBX 16 25 1 0
BITMAP
00000240
00000BD0
00007FF0
0001FF80
0001FD00
00006000
00000000
001BFE40
00BFFFE0
07FFFFF8
0FFFFFF4
2FF902E0
3FE00040
7FC00000
BF800000
BF807FFD
BF807FFD
BF807FFD
7FC001FD
3FE001FD
2FF902FD
1FFFFFFD
07FFFFFD
01FFFFF4
001BFE40
ENDCHAR
STARTCHAR uni01F5
ENCODING 501
SWIDTH 534 0
DWIDTH 15 0
BBX 14 29 1 -6
BITMAP
00002000
0000FC00
0002FF00
000BFD00
001FF000
001F8000
00060000
00000000
00000000
02BFFFD0
1FFFFFD0
3FFFFFD0
7F82FD00
BF40FD00
BF40FE00
7F82FD00
2FFFFC00
0FFFF400
2FFF8000
3F000000
7F400000
3FFFFA00
2FFFFFC0
2FFFFFD0
BE002FD0
FE407FD0
FFFFFF80
7FFFFE00
06FF9000
ENDCHAR
STARTCHAR uni01F8
ENCODING 504
SWIDTH 665 0
DWIDTH 19 0
BBX 15 25 2 0
BITMAP
00900000
02F40000
07FE0000
01FF8000
002FC000
00060000
00000000
FF8007F4
FFD007F4
FFE007F4
FFF407F4
FFF807F4
FEFD07F4
FEBE07F4
FE7F47F4
FF2FC7F4
FF1FD7F4
FF0BF7F4
FF07F7F4
FF02FBF4
FF01FFF4
FF00BFF4
FF003FF4
FF002FF4
FF000FF4
ENDCHAR
STARTCHAR uni01F9
ENCODING 505
SWIDTH 572 0
DWIDTH 16 0
BBX 14 23 1 0
BITMAP
00500000
02F40000
07FD0000
02FF0000
00BFC000
001F8000
00060000
00000000
00000000
7F46F900
7FAFFF40
7FFFFF80
7FF47FC0
7FD03FD0
7FC02FD0
7FC02FD0
7FC02FD0
7FC02FD0
7FC02FD0
7FC02FD0
7FC02FD0
7FC02FD0
7FC02FD0
ENDCHAR
STARTCHAR uni01FC
ENCODING 508
SWIDTH 845 0
DWIDTH 24 0
BBX 23 26 0 0
BITMAP
000000002000
00000001FC00
00000007FE00
0000002FF800
0000002F9000
0000000A0000
000000000000
000000000000
0000FFFFFFF0
0001FFFFFFF0
0003FFFFFFF0
0007FBFFFFF0
000FF7FC0000
001FE7FC0000
003FD7FC0000
007FC7FFFF80
00BF47FFFF80
01FF07FFFF80
02FE07FC0000
07FFFFFC0000
0BFFFFFC0000
1FFFFFFC0000
2FE007FFFFF4
7FC007FFFFF4
BF8007FFFFF4
FF4007FFFFF4
ENDCHAR
STARTCHAR uni01FD
ENCODING 509
SWIDTH 786 0
DWIDTH 22 0
BBX 20 23 1 0
BITMAP
0000006000
000001F800
000003FE00
00000FF800
00002FE000
00002F8000
0000090000
0000000000
0000000000
01BF80BF80
2FFFE7FFF4
2FFFFFFFFC
1E42FF81FD
0000FF00BE
006BFFFFFF
0BFFFFFFFF
2FFFFFFFFF
7FE4BF0000
BF40FF4000
BF86FFD064
7FFFFFFFFC
2FFF8BFFFD
0BF901BF90
ENDCHAR
STARTCHAR uni0218
ENCODING 536
SWIDTH 556 0
DWIDTH 16 0
BBX 14 25 1 -7
BITMAP
00AFE400
07FFFE00
1FFFFF80
3FFFFF40
7FD06E00
7FC00000
3FE40000
2FFF9000
0BFFF900
01FFFF40
001BFFC0
0000BFD0
08002FE0
2F907FE0
BFFFFFD0
7FFFFF80
1FFFFE00
01BFA400
00000000
002E4000
003FC000
000BD000
001BD000
01FF8000
00F90000
ENDCHAR
STARTCHAR uni0219
ENCODING 537
SWIDTH 443 0
DWIDTH 12 0
BBX 11 21 1 -7
BITMAP
06FE40
2FFFF4
7FFFF0
BF41D0
BF4000
7FE400
2FFF80
07FFE0
006FF4
1007F8
790BF8
FFFFF4
BFFFD0
1BFE40
000000
00E800
01FE00
007F00
007F00
0BFD00
07A400
ENDCHAR
STARTCHAR uni021A
ENCODING 538
SWIDTH 556 0
DWIDTH 16 0
BBX 15 25 0 -7
BITMAP
7FFFFFFC
7FFFFFFC
7FFFFFFC
7FFFFFFC
001FF000
001FF000
001FF000
001FF000
001FF000
001FF000
001FF000
001FF000
001FF000
001FF000
001FF000
001FF000
001FF000
001FF000
00000000
000B9000
000FF000
0002F400
0006F400
007FE000
003E4000
ENDCHAR
STARTCHAR uni021B
ENCODING 539
SWIDTH 383 0
DWIDTH 11 0
BBX 10 25 0 -7
BITMAP
03F800
03F800
07F800
07F800
7FFFE0
BFFFE0
BFFFE0
0BF800
0BF800
0BF800
0BF800
0BF800
0BF800
0BF800
07FD00
03FFE0
01FFF0
006FE0
000000
003A00
007FC0
001FD0
001FC0
02FF80
01E900
ENDCHAR
STARTCHAR uni0237
ENCODING 567
SWIDTH 278 0
DWIDTH 8 0
BBX 8 20 -2 -6
BITMAP
00FF
00FF
00FF
00FF
00FF
00FF
00FF
00FF
00FF
00FF
00FF
00FF
00FF
00FF
00FF
01FE
02FE
3FFD
3FF8
7F90
ENDCHAR
STARTCHAR uni0243
ENCODING 579
SWIDTH 628 0
DWIDTH 18 0
BBX 17 18 0 0
BITMAP
07FFFE9000
07FFFFF800
07FFFFFD00
07FC06FE00
07FC01FE00
07FC01FD00
07FD57F800
07FFFFD000
07FFFFF800
07FD56FE00
07FC00BF40
6FFFF47F80
7FFFF47F80
07FC00BF80
07FC06FF40
07FFFFFE00
07FFFFF800
07FFFE9000
ENDCHAR
STARTCHAR uni0250
ENCODING 592
SWIDTH 534 0
DWIDTH 15 0
BBX 13 14 1 0
BITMAP
7F0BF800
7F7FFF00
7FFFFF40
7FF4BF80
7FC0BF40
7F86FF00
7FFFFD00
7FFFF400
7FFA4000
7FC00000
3FE02D00
1FFFFF00
0BFFFE00
01BFA400
ENDCHAR
STARTCHAR uni0251
ENCODING 593
SWIDTH 573 0
DWIDTH 16 0
BBX 14 14 1 0
BITMAP
01BE4FD0
0BFFEFD0
2FFFFFD0
3FE1BFD0
BF803FD0
BF403FD0
FF403FD0
FF403FD0
BF403FD0
BF803FD0
7FE0BFD0
2FFFFFD0
0FFFEFD0
02FE1FD0
ENDCHAR
STARTCHAR uni0252
ENCODING 594
SWIDTH 573 0
DWIDTH 16 0
BBX 14 14 1 0
BITMAP
7F4BF800
7FBFFF40
7FFFFFC0
7FF47FD0
7FC02FE0
7FC01FF0
7FC01FF0
7FC01FF0
7FC01FE0
7FC02FE0
7FE0BFC0
7FFFFF80
7FBFFE00
7F1BE400
ENDCHAR
STARTCHAR uni0253
ENCODING 595
SWIDTH 573 0
DWIDTH 16 0
BBX 14 20 1 0
BITMAP
01BF8000
0BFFC000
1FFF8000
2FE00000
3FC00000
3FC00000
7FCBF800
7FFFFF40
7FFFFFC0
7FE47FD0
7FC02FE0
7FC01FF0
7FC01FF0
7FC01FF0
7FC01FE0
7FC02FE0
7FE0BFC0
7FFFFF80
7FFFFE00
7F5BE400
ENDCHAR
STARTCHAR uni0254
ENCODING 596
SWIDTH 467 0
DWIDTH 13 0
BBX 11 14 1 0
BITMAP
2BF900
FFFF80
7FFFE0
142FF4
000BF8
0007FC
0007FC
0007FC
0007FC
000BF8
242FF4
BFFFE0
FFFF80
2BF900
ENDCHAR
STARTCHAR uni0255
ENCODING 597
SWIDTH 467 0
DWIDTH 13 0
BBX 12 16 1 -2
BITMAP
00AFE0
07FFFC
1FFFF4
3FE060
BF8000
FF4000
FF1BE4
FFBFFD
BFFFFE
BFF47E
3FE4BE
3FFFFD
BFFFF8
FEAF90
BD0000
080000
ENDCHAR
STARTCHAR uni0256
ENCODING 598
SWIDTH 573 0
DWIDTH 16 0
BBX 16 25 1 -5
BITMAP
00003FD0
00003FD0
00003FD0
00003FD0
00003FD0
00003FD0
01BE6FD0
0BFFFFD0
2FFFFFD0
3FE0BFD0
BF803FD0
BF403FD0
FF403FD0
FF403FD0
BF403FD0
BF803FD0
7FE0BFD0
2FFFFFD0
0FFFFFD0
02FE2FD0
00002FD0
00002FE0
00001FFD
00000BFE
000002FE
ENDCHAR
STARTCHAR uni0257
ENCODING 599
SWIDTH 573 0
DWIDTH 16 0
BBX 16 20 1 0
BITMAP
000001BE
00000BFE
00001FFD
00002FE0
00002FD0
00002FD0
01BE6FD0
0BFFFFD0
2FFFFFD0
3FE0BFD0
BF803FD0
BF403FD0
FF403FD0
FF403FD0
BF403FD0
BF803FD0
7FE0BFD0
2FFFFFD0
0FFFEFD0
02FE1FD0
ENDCHAR
STARTCHAR uni0258
ENCODING 600
SWIDTH 518 0
DWIDTH 15 0
BBX 13 14 1 0
BITMAP
01BF8000
0FFFF400
3FFFFC00
7F41FE00
BE00BF00
FFFFFF40
FFFFFF40
FFFFFF40
0000BF40
0000FF00
1907FE00
3FFFFC00
7FFFF400
06FE4000
ENDCHAR
STARTCHAR uni0259
ENCODING 601
SWIDTH 518 0
DWIDTH 15 0
BBX 13 14 1 0
BITMAP
06FE8000
3FFFF400
1FFFFC00
0906FE00
0000FF00
0000BF40
FFFFFF40
FFFFFF40
FFFFFF40
BE00BF00
7F41FE00
3FFFFC00
1FFFF400
02FE4000
ENDCHAR
STARTCHAR uni025A
ENCODING 602
SWIDTH 707 0
DWIDTH 20 0
BBX 19 14 1 0
BITMAP
06FE400000
3FFFF40000
1FFFFD7E00
0902FFFF40
0006FFEF80
007FFF4BFC
0BFFFF42F8
BFFE7F4000
FF907F4000
BF00BF0000
7F82FE0000
2FFFFC0000
0BFFF40000
01BF800000
ENDCHAR
STARTCHAR uni025B
ENCODING 603
SWIDTH 462 0
DWIDTH 13 0
BBX 12 14 1 0
BITMAP
01BF90
1FFFF8
3FFFF4
3FD060
2FD000
1FFF80
07FF80
3FFF80
BF8000
BF4000
BFD060
7FFFF8
1FFFFD
01BFA0
ENDCHAR
STARTCHAR uni025C
ENCODING 604
SWIDTH 476 0
DWIDTH 13 0
BBX 11 14 1 0
BITMAP
1BFE40
7FFFE0
3FFFF4
140FF4
000FF0
07FFD0
07FF80
07FFF4
0007F8
0003FC
240BFC
7FFFF8
BFFFE0
1BFE40
ENDCHAR
STARTCHAR uni025E
ENCODING 606
SWIDTH 566 0
DWIDTH 16 0
BBX 14 14 1 0
BITMAP
01BF9000
1FFFFD00
3FFFFF40
3FD0BFC0
2FD02FD0
1FFE1FE0
07FE1FF0
3FFE1FF0
BF801FE0
BF402FD0
BF90BFC0
7FFFFF40
1FFFFD00
01BFA000
ENDCHAR
STARTCHAR uni025F
ENCODING 607
SWIDTH 321 0
DWIDTH 9 0
BBX 10 20 -1 -6
BITMAP
02FE00
02FE00
02FE00
02FE00
02FE00
02FE00
2FFFE0
2FFFE0
2FFFE0
02FE00
02FE00
02FE00
02FE00
02FE00
02FE00
02FD00
03FD00
7FFC00
BFF400
BF9000
ENDCHAR
STARTCHAR uni0260
ENCODING 608
SWIDTH 583 0
DWIDTH 16 0
BBX 16 24 1 -6
BITMAP
000001BF
00000BFE
00001FFE
00001FE0
01BE6FD0
0BFFFFD0
1FFFFFD0
3FE0BFD0
7FC02FD0
BF802FD0
BF402FD0
BF802FD0
BF802FD0
7FE0BFD0
2FFFFFD0
0BFFFFD0
01BE6FD0
00002FD0
00003FD0
00007FD0
0A41BFC0
1FFFFF40
2FFFFE00
06BFA400
ENDCHAR
STARTCHAR uni0261
ENCODING 609
SWIDTH 583 0
DWIDTH 16 0
BBX 14 20 1 -6
BITMAP
01BE4FD0
0BFFEFD0
1FFFFFD0
3FE0BFD0
7FC03FD0
BF802FD0
BF402FD0
BF802FD0
BF802FD0
7FE0BFD0
2FFFFFD0
0BFFFFD0
01BE6FD0
00002FD0
00003FD0
00007FD0
0A41BFC0
1FFFFF40
2FFFFE00
06BFA000
ENDCHAR
STARTCHAR uni0262
ENCODING 610
SWIDTH 517 0
DWIDTH 14 0
BBX 13 14 1 0
BITMAP
00AFE400
07FFFE00
1FFFFD00
3FE42800
BF800000
BF400000
FF4BFF40
FF4BFF40
FF4BFF40
BF807F40
7FE07F40
2FFFFF40
0BFFFE00
01BFE400
ENDCHAR
STARTCHAR uni0263
ENCODING 611
SWIDTH 523 0
DWIDTH 15 0
BBX 14 20 0 -6
BITMAP
7F800BF0
3FC00FE0
2FD01FD0
1FE02FC0
0FF03F80
0BF07F40
07F4BF00
02F8FE00
01FDFD00
00FFF800
00BFF400
007FF400
00BFF800
01FEFC00
02F8FD00
03F8BE00
03F8BE00
02FFFD00
00FFF800
002FE000
ENDCHAR
STARTCHAR uni0264
ENCODING 612
SWIDTH 569 0
DWIDTH 16 0
BBX 16 14 0 0
BITMAP
6FE00BF9
7FFD7FFC
2FFFFFF8
00BFFE00
003FFC00
00FFFF00
02FEBF80
07F83FC0
07F41FD0
07F41FD0
07F82FD0
03FFFFC0
01FFFF40
002FF800
ENDCHAR
STARTCHAR uni0265
ENCODING 613
SWIDTH 572 0
DWIDTH 16 0
BBX 14 20 1 -6
BITMAP
7F803FD0
7F803FD0
7F803FD0
7F803FD0
7F803FD0
7F803FD0
7F803FD0
7F803FD0
7F803FD0
7FC03FD0
3FD0BFD0
2FFFFFD0
1FFFFFD0
06FE6FD0
00003FD0
00003FD0
00003FD0
00003FD0
00003FD0
00003FD0
ENDCHAR
STARTCHAR uni0266
ENCODING 614
SWIDTH 571 0
DWIDTH 16 0
BBX 14 20 1 0
BITMAP
01BF8000
0BFFC000
1FFF8000
2FE00000
3FC00000
3FC00000
7F86F900
7FAFFF40
7FFFFF80
7FF47FC0
7FD03FD0
7FC02FD0
7FC02FD0
7FC02FD0
7FC02FD0
7FC02FD0
7FC02FD0
7FC02FD0
7FC02FD0
7FC02FD0
ENDCHAR
STARTCHAR uni0267
ENCODING 615
SWIDTH 571 0
DWIDTH 16 0
BBX 14 25 1 -5
BITMAP
01BF8000
0BFFC000
1FFF8000
2FE00000
3FC00000
3FC00000
7F86F900
7FAFFF40
7FFFFF80
7FF47FC0
7FD03FD0
7FC02FD0
7FC02FD0
7FC02FD0
7FC02FD0
7FC02FD0
7FC02FD0
7FC02FD0
7FC02FD0
7FC02FD0
00003FD0
00007FC0
000BFF80
000BFF40
000BF800
ENDCHAR
STARTCHAR uni0268
ENCODING 616
SWIDTH 321 0
DWIDTH 9 0
BBX 9 20 0 0
BITMAP
06E400
0BF800
0BF800
06E400
000000
000000
0BF800
0BF800
0BF800
0BF800
0BF800
0BF800
BFFF80
BFFF80
BFFF80
0BF800
0BF800
0BF800
0BF800
0BF800
ENDCHAR
STARTCHAR uni026A
ENCODING 618
SWIDTH 395 0
DWIDTH 11 0
BBX 9 14 1 0
BITMAP
BFFF80
BFFF80
BFFF80
0BF800
0BF800
0BF800
0BF800
0BF800
0BF800
0BF800
0BF800
BFFF80
BFFF80
BFFF80
ENDCHAR
STARTCHAR uni026C
ENCODING 620
SWIDTH 377 0
DWIDTH 11 0
BBX 11 20 -1 0
BITMAP
003FD0
003FD0
003FD0
003FD0
003FD0
003FD0
0ABFD0
2FFFD0
7DBFD0
7D3FD0
2FFFFC
0BFFFC
003FD0
003FD0
003FD0
003FD0
003FD0
002FF8
001FF8
0006F8
ENDCHAR
STARTCHAR uni026D
ENCODING 621
SWIDTH 286 0
DWIDTH 8 0
BBX 8 25 1 -5
BITMAP
7FC0
7FC0
7FC0
7FC0
7FC0
7FC0
7FC0
7FC0
7FC0
7FC0
7FC0
7FC0
7FC0
7FC0
7FC0
7FC0
7FC0
7FC0
7FC0
7FC0
3FC0
3FD0
2FFC
0FFD
02FD
ENDCHAR
STARTCHAR uni026E
ENCODING 622
SWIDTH 640 0
DWIDTH 18 0
BBX 17 26 1 -6
BITMAP
7FC0000000
7FC0000000
7FC0000000
7FC0000000
7FC0000000
7FC0000000
7FFFFFFE00
7FFFFFFE00
7FFFFFFD00
7FC00BF800
7FC01FF000
7FC03FD000
7FC0BF8000
7FC1FE0000
7FC3FFE000
7FC7FFF800
7FC2FFFE00
7FC002FF00
7FC000FF40
7FC000FF40
000000FF40
000401FF00
002D07FE00
007FFFFC00
007FFFF400
0006FE4000
ENDCHAR
STARTCHAR uni026F
ENCODING 623
SWIDTH 857 0
DWIDTH 24 0
BBX 22 14 1 0
BITMAP
7FC03FC02FD0
7FC03FC02FD0
7FC03FC02FD0
7FC03FC02FD0
7FC03FC02FD0
7FC03FC02FD0
7FC03FC02FD0
7FC03FC02FD0
7FC03FC02FD0
7FC0BFD07FD0
3FD1FFE1FFD0
2FFFFFFFFFD0
1FFF8FFF9FD0
06F902FD0FD0
ENDCHAR
STARTCHAR uni0270
ENCODING 624
SWIDTH 857 0
DWIDTH 24 0
BBX 22 20 1 -6
BITMAP
7FC03FC02FD0
7FC03FC02FD0
7FC03FC02FD0
7FC03FC02FD0
7FC03FC02FD0
7FC03FC02FD0
7FC03FC02FD0
7FC03FC02FD0
7FC03FC02FD0
7FC0BFD07FD0
3FD1FFE1FFD0
2FFFFFFFFFD0
1FFF8FFFAFD0
06F902FD2FD0
000000002FD0
000000002FD0
000000002FD0
000000002FD0
000000002FD0
000000002FD0
ENDCHAR
STARTCHAR uni0271
ENCODING 625
SWIDTH 857 0
DWIDTH 24 0
BBX 22 19 1 -5
BITMAP
7F46F806F900
7F6FFF2FFF40
7FFFFFFFFF80
7FF4BFF87FC0
7FD03FE03FD0
7FC03FC02FD0
7FC03FC02FD0
7FC03FC02FD0
7FC03FC02FD0
7FC03FC02FD0
7FC03FC02FD0
7FC03FC02FD0
7FC03FC02FD0
7FC03FC02FD0
000000003FD0
000000007FC0
00000003FF80
00000007FF40
00000007F800
ENDCHAR
STARTCHAR uni0272
ENCODING 626
SWIDTH 572 0
DWIDTH 16 0
BBX 16 19 -1 -5
BITMAP
07F46F90
07F6FFF4
07FFFFF8
07FF47FC
07FD03FD
07FC02FD
07FC02FD
07FC02FD
07FC02FD
07FC02FD
07FC02FD
07FC02FD
07FC02FD
07FC02FD
07FC0000
0BF80000
7FF40000
BFF00000
BF800000
ENDCHAR
STARTCHAR uni0273
ENCODING 627
SWIDTH 572 0
DWIDTH 16 0
BBX 16 19 1 -5
BITMAP
7F46F900
7F6FFF40
7FFFFF80
7FF47FC0
7FD03FD0
7FC02FD0
7FC02FD0
7FC02FD0
7FC02FD0
7FC02FD0
7FC02FD0
7FC02FD0
7FC02FD0
7FC02FD0
00002FD0
00002FE0
00001FFE
00000BFE
000001BE
ENDCHAR
STARTCHAR uni0274
ENCODING 628
SWIDTH 561 0
DWIDTH 16 0
BBX 13 14 1 0
BITMAP
7FC03FC0
7FD03FC0
7FF03FC0
7FF83FC0
7FFC3FC0
7FBE3FC0
7F7F6FC0
7FAFAFC0
7F8FEFC0
7F87FFC0
7F83FFC0
7F81FFC0
7F80BFC0
7F807FC0
ENDCHAR
STARTCHAR uni0275
ENCODING 629
SWIDTH 555 0
DWIDTH 16 0
BBX 14 14 1 0
BITMAP
01BF9000
0BFFFD00
2FFFFF00
7FD07F80
BF402FC0
FFFFFFD0
FFFFFFD0
FFFFFFD0
FF002FD0
BF403FC0
7FD0BF80
2FFFFF00
0BFFFD00
01BF9000
ENDCHAR
STARTCHAR uni0276
ENCODING 630
SWIDTH 726 0
DWIDTH 20 0
BBX 19 14 1 0
BITMAP
00AFEAAAA4
07FFFFFFF4
1FFFFFFFF4
3FE4BF8000
BF807F8000
BF407FFFD0
FF407FFFD0
FF407FFFD0
FF407F8000
BF807F8000
7FE0BF8000
2FFFFFFFF8
0BFFFFFFF8
00AFFAAAA4
ENDCHAR
STARTCHAR uni0278
ENCODING 632
SWIDTH 738 0
DWIDTH 21 0
BBX 19 26 1 -6
BITMAP
0002FD0000
0002FD0000
0002FD0000
0002FD0000
0002FD0000
0002FD0000
006FFFA400
07FFFFFE00
1FFFFFFFC0
3FE6FD7FE0
BFC2FD1FF4
BF42FD0BF4
FF42FD0BF8
FF42FD0BF8
BF42FD0BF4
BFC2FD1FF4
3FE6FD7FE0
1FFFFFFFC0
07FFFFFE00
006FFFA400
0002FD0000
0002FD0000
0002FD0000
0002FD0000
0002FD0000
0002FD0000
ENDCHAR
STARTCHAR uni0279
ENCODING 633
SWIDTH 398 0
DWIDTH 11 0
BBX 10 14 0 0
BITMAP
002FD0
002FD0
002FD0
002FD0
002FD0
002FD0
002FD0
003FD0
007FD0
01FFD0
7FFFD0
BFEFD0
BF9FD0
BD0FD0
ENDCHAR
STARTCHAR uni027A
ENCODING 634
SWIDTH 398 0
DWIDTH 11 0
BBX 10 20 0 0
BITMAP
002FD0
002FD0
002FD0
002FD0
002FD0
002FD0
002FD0
002FD0
002FD0
002FD0
002FD0
002FD0
002FD0
003FD0
007FD0
01FFD0
7FFFD0
BFEFD0
BF9FD0
BD0FD0
ENDCHAR
STARTCHAR uni027B
ENCODING 635
SWIDTH 398 0
DWIDTH 11 0
BBX 12 19 0 -5
BITMAP
002FD0
002FD0
002FD0
002FD0
002FD0
002FD0
002FD0
003FD0
007FD0
01FFD0
7FFFD0
BFEFD0
BF9FD0
BD1FD0
001FD0
001FE0
000FFE
0007FE
0001BE
ENDCHAR
STARTCHAR uni027D
ENCODING 637
SWIDTH 398 0
DWIDTH 11 0
BBX 10 19 1 -5
BITMAP
7F46F0
7F6FF0
7FBFE0
7FFFE0
7FF800
7FE000
7FC000
7FC000
7FC000
7FC000
7FC000
7FC000
7FC000
7FC000
3FC000
3FD000
2FFC00
0FFD00
02FD00
ENDCHAR
STARTCHAR uni027E
ENCODING 638
SWIDTH 380 0
DWIDTH 11 0
BBX 10 14 1 0
BITMAP
01BFD0
0BFFD0
1FFFD0
3FE400
3FD000
7FC000
7FC000
7FC000
7FC000
7FC000
7FC000
7FC000
7FC000
7FC000
ENDCHAR
STARTCHAR uni0280
ENCODING 640
SWIDTH 532 0
DWIDTH 15 0
BBX 13 14 1 0
BITMAP
7FFFA000
7FFFFC00
7FFFFE00
7FD6FF00
7FC0FF40
7FC0FF40
7FC1FF00
7FFFFE00
7FFFF800
7FFFF400
7FC7FC00
7FC2FE00
7FC0FF40
7FC07FC0
ENDCHAR
STARTCHAR uni0281
ENCODING 641
SWIDTH 532 0
DWIDTH 15 0
BBX 13 14 0 0
BITMAP
7FD03FC0
2FE03FC0
0FF43FC0
0BF83FC0
03FD3FC0
01FFFFC0
02FFFFC0
0BFFFFC0
1FF43FC0
1FE03FC0
1FF43FC0
0FFFFFC0
07FFFFC0
01AFFFC0
ENDCHAR
STARTCHAR uni0282
ENCODING 642
SWIDTH 443 0
DWIDTH 12 0
BBX 12 19 0 -5
BITMAP
01BF90
0BFFFD
1FFFFC
2FD074
2FD000
1FF900
0BFFE0
01FFF8
001BFD
0001FE
1E42FE
2FFFFD
7FFFF4
7FFF90
7F4000
7F8000
3FFC00
1FFD00
06FD00
ENDCHAR
STARTCHAR uni0283
ENCODING 643
SWIDTH 278 0
DWIDTH 8 0
BBX 11 26 -2 -6
BITMAP
0006FC
002FFC
007FF8
00FF80
00FF00
00FF00
00FF00
00FF00
00FF00
00FF00
00FF00
00FF00
00FF00
00FF00
00FF00
00FF00
00FF00
00FF00
00FF00
00FF00
00FF00
01FE00
02FE00
3FFD00
3FF800
7F9000
ENDCHAR
STARTCHAR uni0284
ENCODING 644
SWIDTH 321 0
DWIDTH 9 0
BBX 11 26 -1 -6
BITMAP
001BF8
007FF8
00FFF4
01FF40
01FE00
02FE00
02FE00
02FE00
02FE00
02FE00
02FE00
02FE00
2FFFE0
2FFFE0
02FE00
02FE00
02FE00
02FE00
02FE00
02FE00
02FE00
02FD00
03FD00
7FFC00
BFF400
BF9000
ENDCHAR
STARTCHAR uni0288
ENCODING 648
SWIDTH 383 0
DWIDTH 11 0
BBX 10 23 0 -5
BITMAP
02A400
03F800
07F800
07F800
7FFFE0
BFFFE0
BFFFE0
0BF800
0BF800
0BF800
0BF800
0BF800
0BF800
0BF800
0BF800
0BF800
0BF800
0BF800
0BF800
07FD00
03FFE0
01FFF0
006FE0
ENDCHAR
STARTCHAR uni0289
ENCODING 649
SWIDTH 617 0
DWIDTH 17 0
BBX 17 14 0 0
BITMAP
0BF807FC00
0BF807FC00
0BF807FC00
0BF807FC00
0BF807FC00
BFFFFFFF80
BFFFFFFF80
0BF807FC00
0BF807FC00
0BF80BFC00
07FD2FFC00
03FFFFFC00
02FFF6FC00
00BF92FC00
ENDCHAR
STARTCHAR uni028A
ENCODING 650
SWIDTH 558 0
DWIDTH 16 0
BBX 15 14 0 0
BITMAP
7FF87FF8
7FF87FF8
7FF43FF8
07F01F80
0FE00FE0
1FD00BF0
2FD00BF4
2FD00BF4
2FD00BF4
2FE00FF4
1FF42FF0
0BFFFFD0
02FFFF40
006FE800
ENDCHAR
STARTCHAR uni028B
ENCODING 651
SWIDTH 552 0
DWIDTH 15 0
BBX 14 14 1 0
BITMAP
7F87F800
7F83FF40
7F83FF80
7F807FC0
7F803FD0
7F803FD0
7F803FD0
7F803FD0
7FC03FC0
3FC07F80
3FE1FF40
1FFFFE00
0BFFF800
01BF9000
ENDCHAR
STARTCHAR uni028C
ENCODING 652
SWIDTH 523 0
DWIDTH 15 0
BBX 14 14 0 0
BITMAP
007FE000
00BFF000
00FFF400
01FEF800
02F9FC00
03F8FD00
07F4FE00
0BF0BF00
0FE07F40
1FE03F80
2FD02FC0
3FC02FD0
7F801FE0
7F400FF0
ENDCHAR
STARTCHAR uni028D
ENCODING 653
SWIDTH 776 0
DWIDTH 22 0
BBX 21 14 0 0
BITMAP
00FFC07FE000
01FFC07FF000
02FFD0BFF400
03FFE0FFF400
03F7E0FAF800
07F3F1F6FC00
0BF2F6F6FD00
0BE2F6F1FD00
0FE1FBF1FE00
1FD0FFE0FF00
1FD0FFD0BF40
2FC0BFC0BF40
3F807FC07F80
7F803F803FC0
ENDCHAR
STARTCHAR uni028E
ENCODING 654
SWIDTH 521 0
DWIDTH 15 0
BBX 14 20 0 0
BITMAP
00006FD0
0001FFC0
0007FFC0
000BF400
001FE000
002FD000
003FC000
007FD000
00BFE000
00FFF000
01FBF800
02FAFC00
03F5FD00
07F0FE00
0BE0BF00
0FE07F40
1FD03FC0
2FC02FD0
3F801FE0
7F400FF0
ENDCHAR
STARTCHAR uni028F
ENCODING 655
SWIDTH 466 0
DWIDTH 13 0
BBX 13 14 0 0
BITMAP
FF407FC0
7F80BF80
3FC0FF00
2FD1FE00
0FE2FC00
0BF7F800
03FFF000
02FFE000
00FFD000
00BF8000
00BF8000
00BF8000
00BF8000
00BF8000
ENDCHAR
STARTCHAR uni0290
ENCODING 656
SWIDTH 460 0
DWIDTH 13 0
BBX 14 19 1 -5
BITMAP
7FFFFC00
7FFFFC00
7FFFF800
001FF000
003FD000
00BF8000
01FF0000
03FD0000
0BF80000
1FF40000
3FE00000
BFFFFC00
FFFFFC00
FFFFFC00
0003FC00
0003FD00
0002FFC0
0001FFD0
00002FD0
ENDCHAR
STARTCHAR uni0291
ENCODING 657
SWIDTH 503 0
DWIDTH 14 0
BBX 14 16 1 -2
BITMAP
7FFFF800
7FFFF800
7FFFF400
001FE000
003FC000
00BF4000
01FE0000
03FD2A40
0BF8BFC0
1FF2E7D0
3FD3C3D0
BFFFEFD0
FFFFFF80
FFFFF900
002D0000
002C0000
ENDCHAR
STARTCHAR uni0292
ENCODING 658
SWIDTH 460 0
DWIDTH 13 0
BBX 13 20 0 -6
BITMAP
3FFFFE00
3FFFFE00
3FFFFD00
000BF800
001FF000
003FD000
00BF4000
01FE0000
07FFE000
07FFFC00
02FFFE00
0002FF00
0000FF40
0000FF40
0000FF40
0001FF00
2D07FE00
BFFFFC00
7FFFF400
06FE4000
ENDCHAR
STARTCHAR uni0294
ENCODING 660
SWIDTH 448 0
DWIDTH 13 0
BBX 12 20 0 0
BITMAP
06FE40
7FFFF4
FFFFFC
7E07FE
1401FF
0000FF
0001FF
0002FE
0007FD
001FFC
00BFF0
01FFD0
01FF00
01FE00
01FE00
01FE00
01FE00
01FE00
01FE00
01FE00
ENDCHAR
STARTCHAR uni0295
ENCODING 661
SWIDTH 506 0
DWIDTH 14 0
BBX 12 20 1 0
BITMAP
01BFA0
0BFFFD
2FFFFF
7FD07D
BF8004
BF4000
BF4000
BF8000
7FE000
2FF800
0BFE40
02FF80
00BF80
007F80
007F80
007F80
007F80
007F80
007F80
007F80
ENDCHAR
STARTCHAR uni0298
ENCODING 664
SWIDTH 556 0
DWIDTH 16 0
BBX 14 20 1 0
BITMAP
00BF9000
03FFF800
0FFFFD00
1FE1FF00
2FC07F40
3F803F80
7F402FC0
BF402FC0
BF1E2FC0
BF3F6FD0
BF3F6FD0
BF1E2FC0
BF402FC0
7F402FC0
3F803F80
2FC07F40
1FE1FF00
0BFFFD00
03FFF800
00BF9000
ENDCHAR
STARTCHAR uni0299
ENCODING 665
SWIDTH 528 0
DWIDTH 15 0
BBX 13 14 1 0
BITMAP
7FFFE400
7FFFFE00
7FFFFF00
7F80FF40
7F80BF00
7FFFFD00
7FFFF800
7FFFFF00
7F80BF80
7F807F80
7F80BF80
7FFFFF40
7FFFFE00
7FFFE400
ENDCHAR
STARTCHAR uni029C
ENCODING 668
SWIDTH 582 0
DWIDTH 16 0
BBX 13 14 2 0
BITMAP
FF00BF80
FF00BF80
FF00BF80
FF00BF80
FF00BF80
FFFFFF80
FFFFFF80
FFFFFF80
FFFFFF80
FF00BF80
FF00BF80
FF00BF80
FF00BF80
FF00BF80
ENDCHAR
STARTCHAR uni029D
ENCODING 669
SWIDTH 360 0
DWIDTH 10 0
BBX 14 28 -2 -8
BITMAP
0007E000
000FF800
000FF800
0007E000
00000000
00000000
000BF400
000BF400
000BF400
000BF400
000BF400
000BF400
000BF400
000BF400
000BF400
000BF400
000BF400
000BF400
07FFF400
2FFFF400
7FFFF400
7E0FF800
7F1FFE00
3FFFFF40
1FFFBF80
06F92FD0
00000F90
00000500
ENDCHAR
STARTCHAR uni029F
ENCODING 671
SWIDTH 432 0
DWIDTH 12 0
BBX 11 14 1 0
BITMAP
7FC000
7FC000
7FC000
7FC000
7FC000
7FC000
7FC000
7FC000
7FC000
7FC000
7FC000
7FFFF4
7FFFF4
7FFFF4
ENDCHAR
STARTCHAR uni02A1
ENCODING 673
SWIDTH 476 0
DWIDTH 13 0
BBX 13 20 0 0
BITMAP
06FF9000
2FFFF800
7FFFFE00
2E42FF00
0800FF40
0000BF40
0000BF40
0000FF00
0002FE00
000BF800
002FE000
BFFFFFC0
BFFFFFC0
BFFFFFC0
00FF0000
00FF0000
00FF0000
00FF0000
00FF0000
00FF0000
ENDCHAR
STARTCHAR uni02A2
ENCODING 674
SWIDTH 476 0
DWIDTH 13 0
BBX 13 20 0 0
BITMAP
006FE400
07FFFF40
1FFFFF80
2FF42F00
3FD00500
3FC00000
3FC00000
2FD00000
1FF00000
07FC0000
01FF4000
BFFFFFC0
BFFFFFC0
BFFFFFC0
002FD000
002FD000
002FD000
002FD000
002FD000
002FD000
ENDCHAR
STARTCHAR h.sups
ENCODING 688
SWIDTH 384 0
DWIDTH 11 0
BBX 9 12 1 11
BITMAP
BC0000
BC0000
BC0000
BCBD00
BFFF40
BE1F80
BC1F80
BC1F80
BC1F80
BC1F80
BC1F80
BC1F80
ENDCHAR
STARTCHAR j.sups
ENCODING 690
SWIDTH 190 0
DWIDTH 5 0
BBX 6 17 -1 7
BITMAP
0780
0FD0
0780
0000
0BC0
0BC0
0BC0
0BC0
0BC0
0BC0
0BC0
0BC0
0BC0
0BC0
0FC0
BF80
BE00
ENDCHAR
STARTCHAR r.sups
ENCODING 691
SWIDTH 272 0
DWIDTH 8 0
BBX 7 9 1 11
BITMAP
A5B4
BBF4
BFF4
BE00
BC00
BC00
BC00
BC00
BC00
ENDCHAR
STARTCHAR w.sups
ENCODING 695
SWIDTH 523 0
DWIDTH 15 0
BBX 14 9 0 11
BITMAP
7D0F82F0
3E1FC2F0
3E1FD3E0
2F2EE7D0
1F7DE7C0
0F7DFBC0
0FF8FB80
0BF4BF40
07F47F00
ENDCHAR
STARTCHAR y.sups
ENCODING 696
SWIDTH 353 0
DWIDTH 10 0
BBX 10 13 0 7
BITMAP
BD07D0
7E0BC0
2F0B80
1F4F40
0F9F00
0BAF00
07FE00
02FD00
01FC00
01F400
02F000
2FD000
3E4000
ENDCHAR
STARTCHAR uni02B9
ENCODING 697
SWIDTH 300 0
DWIDTH 8 0
BBX 5 8 2 11
BITMAP
7F80
7F80
7F40
7F40
7F00
BE00
BD00
BC00
ENDCHAR
STARTCHAR uni02BB
ENCODING 699
SWIDTH 300 0
DWIDTH 8 0
BBX 6 9 1 10
BITMAP
02C0
0FD0
2F00
3D00
7C00
7F80
7FD0
3FD0
1F80
ENDCHAR
STARTCHAR uni02BC
ENCODING 700
SWIDTH 300 0
DWIDTH 8 0
BBX 5 9 2 10
BITMAP
7E00
BF80
BF80
7FC0
0B80
0B40
2F00
BD00
B400
ENDCHAR
STARTCHAR uni02BE
ENCODING 702
SWIDTH 176 0
DWIDTH 5 0
BBX 5 7 0 15
BITMAP
7900
7F00
0B40
0780
0B40
7F00
7900
ENDCHAR
STARTCHAR uni02BF
ENCODING 703
SWIDTH 176 0
DWIDTH 5 0
BBX 5 7 0 15
BITMAP
1B40
3F40
B800
B400
7800
3F40
1B40
ENDCHAR
STARTCHAR uni02C1
ENCODING 705
SWIDTH 343 0
DWIDTH 10 0
BBX 9 14 0 10
BITMAP
02F900
0FFF40
2FFF80
3F4700
7E0000
3F0000
2F8000
0FE000
02F800
01F800
01F800
01F800
01F800
01F400
ENDCHAR
STARTCHAR circumflex
ENCODING 710
SWIDTH 555 0
DWIDTH 16 0
BBX 10 5 3 16
BITMAP
0BFD00
2FFF40
7FBFC0
FD0BE0
600180
ENDCHAR
STARTCHAR caron
ENCODING 711
SWIDTH 555 0
DWIDTH 16 0
BBX 10 5 3 16
BITMAP
600180
FD0BE0
7FBFC0
2FFF40
0BFD00
ENDCHAR
STARTCHAR uni02C8
ENCODING 712
SWIDTH 147 0
DWIDTH 4 0
BBX 4 6 0 15
BITMAP
BE
BE
BE
7E
7E
7E
ENDCHAR
STARTCHAR uni02C9
ENCODING 713
SWIDTH 308 0
DWIDTH 9 0
BBX 9 3 0 17
BITMAP
BFFF40
BFFF40
BFFF40
ENDCHAR
STARTCHAR uni02CA
ENCODING 714
SWIDTH 236 0
DWIDTH 7 0
BBX 7 7 2 16
BITMAP
0240
07D0
1FF4
7FE0
FF80
FD00
2400
ENDCHAR
STARTCHAR uni02CB
ENCODING 715
SWIDTH 236 0
DWIDTH 7 0
BBX 7 7 -2 16
BITMAP
0900
2F00
BF80
7FE0
0BF8
02F8
00A0
ENDCHAR
STARTCHAR uni02CC
ENCODING 716
SWIDTH 147 0
DWIDTH 4 0
BBX 4 6 0 -8
BITMAP
7E
7E
7E
BE
BE
BE
ENDCHAR
STARTCHAR uni02D0
ENCODING 720
SWIDTH 300 0
DWIDTH 8 0
BBX 6 14 1 0
BITMAP
BFF0
3FD0
1F80
0B40
0600
0000
0000
0000
0000
0600
0B40
1F80
3FD0
BFF0
ENDCHAR
STARTCHAR uni02D1
ENCODING 721
SWIDTH 300 0
DWIDTH 8 0
BBX 6 5 1 8
BITMAP
BFF0
3FD0
1F80
0B40
0600
ENDCHAR
STARTCHAR breve
ENCODING 728
SWIDTH 555 0
DWIDTH 16 0
BBX 10 6 3 16
BITMAP
100100
F803D0
BD0BD0
7FFFC0
2FFF40
07F900
ENDCHAR
STARTCHAR dotaccent
ENCODING 729
SWIDTH 555 0
DWIDTH 16 0
BBX 5 4 5 16
BITMAP
2F40
7FC0
7FC0
2F40
ENDCHAR
STARTCHAR ring
ENCODING 730
SWIDTH 555 0
DWIDTH 16 0
BBX 8 6 4 16
BITMAP
1BE0
7FFC
B87D
B87D
7FFC
1BE4
ENDCHAR
STARTCHAR ogonek
ENCODING 731
SWIDTH 555 0
DWIDTH 16 0
BBX 6 6 5 -6
BITMAP
0640
2E00
7D00
BD00
7FE0
2FE0
ENDCHAR
STARTCHAR tilde
ENCODING 732
SWIDTH 555 0
DWIDTH 16 0
BBX 11 5 2 16
BITMAP
0BD0BC
2FF8FC
7FFFF8
7D7FF4
7C0B90
ENDCHAR
STARTCHAR hungarumlaut
ENCODING 733
SWIDTH 555 0
DWIDTH 16 0
BBX 10 6 4 16
BITMAP
0A0140
0FC3F0
2F8BE0
3F0FC0
BD1F40
681A00
ENDCHAR
STARTCHAR uni02DE
ENCODING 734
SWIDTH 189 0
DWIDTH 5 0
BBX 10 7 -4 6
BITMAP
006000
0BF400
7FF800
7FFD00
797FD0
102FE0
000BD0
ENDCHAR
STARTCHAR uni02E0
ENCODING 736
SWIDTH 353 0
DWIDTH 10 0
BBX 10 13 0 7
BITMAP
BD07D0
7E0BC0
2F0F80
1F4F40
0F9F00
0BEE00
07FD00
03FC00
07FD00
0BAF00
0F9F00
0BFE00
02F800
ENDCHAR
STARTCHAR l.sups
ENCODING 737
SWIDTH 194 0
DWIDTH 5 0
BBX 4 13 1 10
BITMAP
BC
BC
BC
BC
BC
BC
BC
BC
BC
BC
BD
BF
2F
ENDCHAR
STARTCHAR s.sups
ENCODING 738
SWIDTH 297 0
DWIDTH 8 0
BBX 8 10 0 10
BITMAP
0BF8
2FFD
3E18
3F40
2FF4
07FD
007E
243E
7FFD
1BE4
ENDCHAR
STARTCHAR x.sups
ENCODING 739
SWIDTH 348 0
DWIDTH 10 0
BBX 10 9 0 11
BITMAP
7E0FC0
2F5F80
0FEF00
07FD00
03FC00
0BFC00
1FBE00
2F1F40
7D0FD0
ENDCHAR
STARTCHAR uni0300
ENCODING 768
SWIDTH 0 0
DWIDTH 0 0
BBX 7 7 -5 16
BITMAP
1800
7E00
FF80
7FD0
1FF4
03F4
0090
ENDCHAR
STARTCHAR uni0301
ENCODING 769
SWIDTH 0 0
DWIDTH 0 0
BBX 7 7 -2 16
BITMAP
0090
02F4
0BFC
1FF4
7FD0
7F00
1800
ENDCHAR
STARTCHAR uni0302
ENCODING 770
SWIDTH 0 0
DWIDTH 0 0
BBX 10 5 -5 16
BITMAP
0BFE00
1FFF40
7FAFD0
FE0BF0
640190
ENDCHAR
STARTCHAR uni0303
ENCODING 771
SWIDTH 0 0
DWIDTH 0 0
BBX 12 5 -6 16
BITMAP
0BE07D
2FF9BD
3FFFFC
7E2FF8
7D0BD0
ENDCHAR
STARTCHAR uni0304
ENCODING 772
SWIDTH 0 0
DWIDTH 0 0
BBX 8 3 -4 17
BITMAP
FFFF
FFFF
FFFF
ENDCHAR
STARTCHAR uni0305
ENCODING 773
SWIDTH 0 0
DWIDTH 0 0
BBX 8 3 -4 17
BITMAP
FFFF
FFFF
FFFF
ENDCHAR
STARTCHAR uni0306
ENCODING 774
SWIDTH 0 0
DWIDTH 0 0
BBX 10 6 -5 16
BITMAP
140140
BC03E0
BE0BE0
7FFFD0
2FFF80
06F900
ENDCHAR
STARTCHAR uni0307
ENCODING 775
SWIDTH 0 0
DWIDTH 0 0
BBX 4 4 -2 16
BITMAP
7D
FF
FF
7D
ENDCHAR
STARTCHAR uni0308
ENCODING 776
SWIDTH 0 0
DWIDTH 0 0
BBX 10 4 -5 16
BITMAP
7D07D0
FF0FF0
FF0FF0
7D07D0
ENDCHAR
STARTCHAR uni0309
ENCODING 777
SWIDTH 0 0
DWIDTH 0 0
BBX 6 7 -3 15
BITMAP
7900
7F80
7FD0
0BE0
07E0
1FC0
1900
ENDCHAR
STARTCHAR uni030A
ENCODING 778
SWIDTH 0 0
DWIDTH 0 0
BBX 8 6 -4 16
BITMAP
1BE4
7FFD
BC3E
BC3E
7FFD
1BE4
ENDCHAR
STARTCHAR uni030B
ENCODING 779
SWIDTH 0 0
DWIDTH 0 0
BBX 11 6 -4 16
BITMAP
064180
0FD2F4
1F87F0
3F0BD0
7E1F80
281B00
ENDCHAR
STARTCHAR uni030C
ENCODING 780
SWIDTH 0 0
DWIDTH 0 0
BBX 10 5 -5 16
BITMAP
640190
FE0BF0
7FAFD0
1FFF40
0BFE00
ENDCHAR
STARTCHAR uni030F
ENCODING 783
SWIDTH 0 0
DWIDTH 0 0
BBX 11 6 -7 16
BITMAP
190640
7F1FC0
2F4BD0
1FC3F0
0BD2F4
0280A0
ENDCHAR
STARTCHAR uni0311
ENCODING 785
SWIDTH 0 0
DWIDTH 0 0
BBX 10 5 -5 16
BITMAP
06F900
2FFF80
7FFFD0
BE0BE0
680290
ENDCHAR
STARTCHAR uni0312
ENCODING 786
SWIDTH 0 0
DWIDTH 0 0
BBX 4 6 -2 16
BITMAP
08
3D
B0
FC
BD
7C
ENDCHAR
STARTCHAR uni0313
ENCODING 787
SWIDTH 0 0
DWIDTH 0 0
BBX 4 6 -2 16
BITMAP
3D
7E
7E
0E
7C
20
ENDCHAR
STARTCHAR uni0318
ENCODING 792
SWIDTH 0 0
DWIDTH 0 0
BBX 6 7 -3 -7
BITMAP
01E0
01E0
7FE0
7FE0
7FE0
01E0
01E0
ENDCHAR
STARTCHAR uni0319
ENCODING 793
SWIDTH 0 0
DWIDTH 0 0
BBX 6 7 -3 -7
BITMAP
B400
B400
BFD0
BFD0
BFD0
B400
B400
ENDCHAR
STARTCHAR uni031A
ENCODING 794
SWIDTH 0 0
DWIDTH 0 0
BBX 6 6 -3 14
BITMAP
7FE0
7FE0
7FE0
01E0
01E0
0040
ENDCHAR
STARTCHAR uni031B
ENCODING 795
SWIDTH 0 0
DWIDTH 0 0
BBX 6 7 -1 12
BITMAP
0190
0BF0
07F0
07F0
1FE0
7F80
3900
ENDCHAR
STARTCHAR uni031C
ENCODING 796
SWIDTH 0 0
DWIDTH 0 0
BBX 4 7 -2 -8
BITMAP
2E
BE
F4
F0
F4
BE
2E
ENDCHAR
STARTCHAR uni031D
ENCODING 797
SWIDTH 0 0
DWIDTH 0 0
BBX 6 6 -3 -6
BITMAP
0F00
0F00
0F00
FFF0
FFF0
FFF0
ENDCHAR
STARTCHAR uni031E
ENCODING 798
SWIDTH 0 0
DWIDTH 0 0
BBX 6 6 -3 -7
BITMAP
FFF0
FFF0
FFF0
0F00
0F00
0F00
ENDCHAR
STARTCHAR uni031F
ENCODING 799
SWIDTH 0 0
DWIDTH 0 0
BBX 6 7 -3 -7
BITMAP
0F00
0F00
FFF0
FFF0
FFF0
0F00
0F00
ENDCHAR
STARTCHAR uni0320
ENCODING 800
SWIDTH 0 0
DWIDTH 0 0
BBX 6 3 -3 -5
BITMAP
FFF0
FFF0
FFF0
ENDCHAR
STARTCHAR uni0323
ENCODING 803
SWIDTH 0 0
DWIDTH 0 0
BBX 4 4 -2 -6
BITMAP
7D
FF
FF
7D
ENDCHAR
STARTCHAR uni0324
ENCODING 804
SWIDTH 0 0
DWIDTH 0 0
BBX 10 4 -5 -6
BITMAP
7D07D0
FF0FF0
FF0FF0
7D07D0
ENDCHAR
STARTCHAR uni0325
ENCODING 805
SWIDTH 0 0
DWIDTH 0 0
BBX 8 6 -4 -7
BITMAP
1BE4
7FFD
BC3E
BC3E
7FFD
1BE4
ENDCHAR
STARTCHAR uni0326
ENCODING 806
SWIDTH 0 0
DWIDTH 0 0
BBX 6 6 -3 -7
BITMAP
1E40
3FD0
0BE0
1BE0
FFC0
F900
ENDCHAR
STARTCHAR uni0327
ENCODING 807
SWIDTH 0 0
DWIDTH 0 0
BBX 6 7 -3 -7
BITMAP
1A00
2E00
7F80
0BE0
0BE0
FFD0
FA00
ENDCHAR
STARTCHAR uni0328
ENCODING 808
SWIDTH 0 0
DWIDTH 0 0
BBX 6 6 -3 -6
BITMAP
0640
1F00
3D00
7E00
7FF0
1FE0
ENDCHAR
STARTCHAR uni0329
ENCODING 809
SWIDTH 0 0
DWIDTH 0 0
BBX 4 6 -2 -8
BITMAP
BD
BE
BE
BE
BE
BE
ENDCHAR
STARTCHAR uni032A
ENCODING 810
SWIDTH 0 0
DWIDTH 0 0
BBX 8 5 -4 -6
BITMAP
BFFE
BFFE
BFFE
B41E
B41E
ENDCHAR
STARTCHAR uni032C
ENCODING 812
SWIDTH 0 0
DWIDTH 0 0
BBX 10 5 -5 -6
BITMAP
640190
FE0BF0
7FAFD0
1FFF40
0BFE00
ENDCHAR
STARTCHAR uni032E
ENCODING 814
SWIDTH 0 0
DWIDTH 0 0
BBX 10 6 -5 -7
BITMAP
140140
BC03E0
BE0BE0
7FFFD0
2FFF80
06F900
ENDCHAR
STARTCHAR uni032F
ENCODING 815
SWIDTH 0 0
DWIDTH 0 0
BBX 10 5 -5 -7
BITMAP
06F900
2FFF80
7FFFD0
BE0BE0
680290
ENDCHAR
STARTCHAR uni0330
ENCODING 816
SWIDTH 0 0
DWIDTH 0 0
BBX 12 5 -6 -6
BITMAP
0BE07D
2FF9BD
3FFFFC
7E2FF8
7D0BD0
ENDCHAR
STARTCHAR uni0331
ENCODING 817
SWIDTH 0 0
DWIDTH 0 0
BBX 8 3 -4 -5
BITMAP
FFFF
FFFF
FFFF
ENDCHAR
STARTCHAR uni0334
ENCODING 820
SWIDTH 0 0
DWIDTH 0 0
BBX 12 5 -6 5
BITMAP
0BE07D
2FF9BD
3FFFFC
7E2FF8
7D0BD0
ENDCHAR
STARTCHAR uni0339
ENCODING 825
SWIDTH 0 0
DWIDTH 0 0
BBX 4 7 -2 -8
BITMAP
B8
BE
1F
0F
1F
BE
B8
ENDCHAR
STARTCHAR uni033A
ENCODING 826
SWIDTH 0 0
DWIDTH 0 0
BBX 8 5 -4 -6
BITMAP
B41E
B41E
BFFE
BFFE
BFFE
ENDCHAR
STARTCHAR uni033B
ENCODING 827
SWIDTH 0 0
DWIDTH 0 0
BBX 8 5 -4 -7
BITMAP
BFFE
B41E
B41E
BFFE
BFFE
ENDCHAR
STARTCHAR uni033C
ENCODING 828
SWIDTH 0 0
DWIDTH 0 0
BBX 12 5 -6 -7
BITMAP
0B82E0
2FEBF8
3FFFFC
7D7D7D
2C3C38
ENDCHAR
STARTCHAR uni033D
ENCODING 829
SWIDTH 0 0
DWIDTH 0 0
BBX 6 6 -3 15
BITMAP
2080
BFE0
2F80
2F80
BFE0
2080
ENDCHAR
STARTCHAR uni0342
ENCODING 834
SWIDTH 0 0
DWIDTH 0 0
BBX 12 5 -6 16
BITMAP
0BE07D
2FF9BD
3FFFFC
7E2FF8
7D0BD0
ENDCHAR
STARTCHAR uni0345
ENCODING 837
SWIDTH 0 0
DWIDTH 0 0
BBX 5 4 -2 -6
BITMAP
BD00
BE40
7FC0
1FC0
ENDCHAR
STARTCHAR uni0361
ENCODING 865
SWIDTH 0 0
DWIDTH 0 0
BBX 26 6 -13 15
BITMAP
00016BFE940000
006FFFFFFF9000
07FFFFFFFFFD00
7FFA50005AFFD0
7E400000001BD0
20000000000080
ENDCHAR
STARTCHAR uni0374
ENCODING 884
SWIDTH 300 0
DWIDTH 8 0
BBX 5 8 2 11
BITMAP
7FC0
7F80
7F40
7F40
7F00
BE00
BD00
BC00
ENDCHAR
STARTCHAR uni0375
ENCODING 885
SWIDTH 300 0
DWIDTH 8 0
BBX 5 8 1 0
BITMAP
0BC0
0FC0
1FC0
2FC0
3F80
3F80
7F80
7F80
ENDCHAR
STARTCHAR uni037A
ENCODING 890
SWIDTH 555 0
DWIDTH 16 0
BBX 5 4 6 -6
BITMAP
BC00
BD00
7F80
2F80
ENDCHAR
STARTCHAR uni037E
ENCODING 894
SWIDTH 300 0
DWIDTH 8 0
BBX 6 19 1 -5
BITMAP
1F80
3FD0
7FE0
3FD0
1F80
0000
0000
0000
0000
1F80
3FE0
3FF0
1FF0
02F0
03E0
1FD0
7F80
7D00
1000
ENDCHAR
STARTCHAR tonos
ENCODING 900
SWIDTH 555 0
DWIDTH 16 0
BBX 5 7 6 16
BITMAP
1500
3FC0
3F80
7F40
7F00
BE00
6D00
ENDCHAR
STARTCHAR dieresistonos
ENCODING 901
SWIDTH 555 0
DWIDTH 16 0
BBX 11 7 2 16
BITMAP
001400
002F00
003E00
003D00
3D7CB8
7E78FC
3D74B8
ENDCHAR
STARTCHAR Alphatonos
ENCODING 902
SWIDTH 622 0
DWIDTH 17 0
BBX 18 18 0 0
BITMAP
7A07FF0000
BF0BFF4000
BE0FFF8000
BD1FEFC000
FC2FDFD000
F82F8FE000
143F4FF000
007F4BF400
00BF07F800
00FE03FC00
01FD03FD00
02FFFFFE00
03FFFFFF00
07FFFFFF00
0BF400BF40
0FF0007F80
1FE0007FC0
2FE0003FD0
ENDCHAR
STARTCHAR anoteleia
ENCODING 903
SWIDTH 300 0
DWIDTH 8 0
BBX 6 5 1 9
BITMAP
1F80
3FD0
7FE0
3FD0
1F80
ENDCHAR
STARTCHAR Epsilontonos
ENCODING 904
SWIDTH 667 0
DWIDTH 19 0
BBX 19 18 -1 0
BITMAP
2E4BFFFFF0
2F8BFFFFF0
3F4BFFFFF0
3F0BFFFFF0
3E0BF80000
7E0BF80000
040BF80000
000BFFFF80
000BFFFF80
000BFFFF80
000BF80000
000BF80000
000BF80000
000BF80000
000BFFFFF4
000BFFFFF4
000BFFFFF4
000BFFFFF4
ENDCHAR
STARTCHAR Etatonos
ENCODING 905
SWIDTH 792 0
DWIDTH 22 0
BBX 21 18 -1 0
BITMAP
2E4BF8003FC0
2F8BF8003FC0
3F4BF8003FC0
3F0BF8003FC0
3E0BF8003FC0
7E0BF8003FC0
040BFFFFFFC0
000BFFFFFFC0
000BFFFFFFC0
000BFFFFFFC0
000BF8003FC0
000BF8003FC0
000BF8003FC0
000BF8003FC0
000BF8003FC0
000BF8003FC0
000BF8003FC0
000BF8003FC0
ENDCHAR
STARTCHAR Iotatonos
ENCODING 906
SWIDTH 420 0
DWIDTH 12 0
BBX 11 18 -1 0
BITMAP
2E4BF8
2F8BF8
3F4BF8
3F0BF8
3E0BF8
7E0BF8
040BF8
000BF8
000BF8
000BF8
000BF8
000BF8
000BF8
000BF8
000BF8
000BF8
000BF8
000BF8
ENDCHAR
STARTCHAR Omicrontonos
ENCODING 908
SWIDTH 777 0
DWIDTH 22 0
BBX 22 18 -1 0
BITMAP
2E401BFE4000
2F80BFFFF400
3F43FFFFFD00
3F0BFFFFFF00
3E1FFD06FF80
7E2FF000BFC0
043FE0007FD0
003FD0003FD0
003FC0002FD0
003FC0002FD0
003FD0003FD0
003FE0007FC0
002FF000BFC0
001FFD06FF40
000BFFFFFF00
0002FFFFFD00
0000BFFFF400
00001BFE4000
ENDCHAR
STARTCHAR Upsilontonos
ENCODING 910
SWIDTH 704 0
DWIDTH 20 0
BBX 21 18 -1 0
BITMAP
2E4FF400BF80
2F87F800FF40
3F43FD01FE00
3F02FE02FD00
3E00FF07F800
7E00BF4BF400
04003F8FF000
00002FDFD000
00000FFFC000
00000BFF4000
000007FF0000
000002FE0000
000002FD0000
000002FD0000
000002FD0000
000002FD0000
000002FD0000
000002FD0000
ENDCHAR
STARTCHAR Omegatonos
ENCODING 911
SWIDTH 803 0
DWIDTH 22 0
BBX 23 18 -1 0
BITMAP
2A400AFE8000
3F40BFFFF800
3F42FFFFFE00
7F0BFFFFFF80
7E0FFE02FFC0
7D1FF4007FD0
042FF0002FE0
002FE0001FE0
002FE0001FE0
002FE0001FE0
001FE0002FD0
000FF0003FC0
0007F800BF40
0001FE02FE00
007FFF47FFF4
007FFF47FFF4
007FFF47FFF4
007FFF47FFF4
ENDCHAR
STARTCHAR iotadieresistonos
ENCODING 912
SWIDTH 301 0
DWIDTH 8 0
BBX 11 23 -2 0
BITMAP
001400
002F00
003F00
003E00
3D7CB8
7E78FC
3D74B8
000000
000000
01FF00
01FF00
01FF00
01FF00
01FE00
01FE00
01FE00
01FE00
01FE00
01FE00
00FF00
00FFF0
00BFF0
001FE0
ENDCHAR
STARTCHAR Alpha
ENCODING 913
SWIDTH 573 0
DWIDTH 16 0
BBX 16 18 0 0
BITMAP
002FF800
003FFC00
007FFD00
00BEFE00
00FEBF00
01FD7F40
02FC7F80
03FC3FC0
03F82FD0
07F41FE0
0BF01FF0
0FFFFFF0
1FFFFFF4
2FFFFFF8
3FC003FC
7F8003FD
BF4002FE
FF4001FF
ENDCHAR
STARTCHAR Beta
ENCODING 914
SWIDTH 605 0
DWIDTH 17 0
BBX 14 18 2 0
BITMAP
FFFFE400
FFFFFE00
FFFFFF80
FFFFFFC0
FF407FC0
FF403FC0
FF40BF80
FFFFFE00
FFFFFD00
FFFFFF80
FF406FE0
FF400FF0
FF400FF0
FF406FF0
FFFFFFE0
FFFFFFC0
FFFFFF40
FFFFE400
ENDCHAR
STARTCHAR Gamma
ENCODING 915
SWIDTH 521 0
DWIDTH 15 0
BBX 12 18 2 0
BITMAP
FFFFFE
FFFFFE
FFFFFE
FFFFFE
FF4000
FF4000
FF4000
FF4000
FF4000
FF4000
FF4000
FF4000
FF4000
FF4000
FF4000
FF4000
FF4000
FF4000
ENDCHAR
STARTCHAR uni0394
ENCODING 916
SWIDTH 640 0
DWIDTH 18 0
BBX 16 18 1 0
BITMAP
002FF800
003FFC00
007FFD00
00BEFE00
00FDBF00
01FC7F40
02F83F80
07F42FC0
0BF41FD0
0FF00FE0
1FE00BF0
2FD007F8
3FC003FC
7F8002FD
BFFFFFFE
FFFFFFFF
FFFFFFFF
FFFFFFFF
ENDCHAR
STARTCHAR Epsilon
ENCODING 917
SWIDTH 548 0
DWIDTH 15 0
BBX 12 18 2 0
BITMAP
FFFFFE
FFFFFE
FFFFFE
FFFFFE
FF4000
FF4000
FF4000
FFFFF4
FFFFF4
FFFFF4
FF4000
FF4000
FF4000
FF4000
FFFFFF
FFFFFF
FFFFFF
FFFFFF
ENDCHAR
STARTCHAR Zeta
ENCODING 918
SWIDTH 541 0
DWIDTH 15 0
BBX 14 18 1 0
BITMAP
7FFFFFC0
7FFFFFC0
7FFFFFC0
7FFFFF80
0001FF00
0003FD00
000BF800
001FE000
007FC000
00FF4000
02FE0000
07FC0000
1FF40000
3FD00000
BFFFFFD0
FFFFFFD0
FFFFFFD0
FFFFFFD0
ENDCHAR
STARTCHAR Eta
ENCODING 919
SWIDTH 674 0
DWIDTH 19 0
BBX 15 18 2 0
BITMAP
FF4007F8
FF4007F8
FF4007F8
FF4007F8
FF4007F8
FF4007F8
FFFFFFF8
FFFFFFF8
FFFFFFF8
FFFFFFF8
FF4007F8
FF4007F8
FF4007F8
FF4007F8
FF4007F8
FF4007F8
FF4007F8
FF4007F8
ENDCHAR
STARTCHAR Theta
ENCODING 920
SWIDTH 684 0
DWIDTH 19 0
BBX 17 18 1 0
BITMAP
001BFA0000
01FFFFE000
0BFFFFF800
1FFFFFFD00
2FF807FF00
7FD001FF40
7FC000BF80
BF9FFDBF80
BF9FFD7F80
BF9FFD7F80
BF8000BF80
7FC000BF80
7FE001FF40
2FF807FF00
1FFFFFFD00
07FFFFF800
01FFFFD000
001BFA0000
ENDCHAR
STARTCHAR Iota
ENCODING 921
SWIDTH 301 0
DWIDTH 8 0
BBX 5 18 2 0
BITMAP
FF40
FF40
FF40
FF40
FF40
FF40
FF40
FF40
FF40
FF40
FF40
FF40
FF40
FF40
FF40
FF40
FF40
FF40
ENDCHAR
STARTCHAR Kappa
ENCODING 922
SWIDTH 614 0
DWIDTH 17 0
BBX 15 18 2 0
BITMAP
FF402FF0
FF407FD0
FF40FF40
FF42FE00
FF47FC00
FF5FF400
FF7FD000
FFFFC000
FFFFE000
FFFFF400
FFFBF800
FFE3FD00
FF81FF00
FF40BF80
FF407FD0
FF402FE0
FF400FF4
FF4007FC
ENDCHAR
STARTCHAR Lambda
ENCODING 923
SWIDTH 556 0
DWIDTH 16 0
BBX 16 18 0 0
BITMAP
003FF400
003FF800
007FFC00
00BFFD00
00FEFE00
01FDFF00
02FCBF40
03F87F80
07F43FC0
0BF42FC0
0FF02FD0
1FE01FE0
2FD00FF0
2FC00BF4
3FC00BF8
7F8007FC
BF4003FD
FF0002FE
ENDCHAR
STARTCHAR Mu
ENCODING 924
SWIDTH 762 0
DWIDTH 21 0
BBX 18 18 2 0
BITMAP
FFC0007FD0
FFD000FFD0
FFE001FFD0
FFF002FFD0
FFF403FFD0
FFF807EFD0
FEFC0BEFD0
FEBD0FDFD0
FE7E1F9FD0
FE3F2F5FD0
FE2F7F2FD0
FF1FFE2FD0
FF0FFD2FD0
FF0BFC2FD0
FF07F42FD0
FF03F02FD0
FF01502FD0
FF00002FD0
ENDCHAR
STARTCHAR Nu
ENCODING 925
SWIDTH 665 0
DWIDTH 19 0
BBX 15 18 2 0
BITMAP
FF8007F4
FFD007F4
FFE007F4
FFF407F4
FFF807F4
FEFD07F4
FEBE07F4
FE7F47F4
FF2FC7F4
FF1FD7F4
FF0BF7F4
FF07F7F4
FF02FBF4
FF01FFF4
FF00BFF4
FF003FF4
FF002FF4
FF000FF4
ENDCHAR
STARTCHAR Xi
ENCODING 926
SWIDTH 571 0
DWIDTH 16 0
BBX 14 18 1 0
BITMAP
7FFFFFD0
7FFFFFD0
7FFFFFD0
7FFFFFD0
00000000
00000000
00000000
0BFFFE00
0BFFFE00
0BFFFE00
00000000
00000000
00000000
00000000
BFFFFFE0
BFFFFFE0
BFFFFFE0
BFFFFFE0
ENDCHAR
STARTCHAR Omicron
ENCODING 927
SWIDTH 684 0
DWIDTH 19 0
BBX 17 18 1 0
BITMAP
001BFA0000
01FFFFE000
0BFFFFF800
1FFFFFFD00
2FF807FF00
7FD001FF40
7FC000BF80
BF8000BF80
BF80007F80
BF80007F80
BF8000BF80
7FC000BF80
7FE001FF40
2FF807FF00
1FFFFFFD00
07FFFFF800
01FFFFD000
001BFA0000
ENDCHAR
STARTCHAR Pi
ENCODING 928
SWIDTH 663 0
DWIDTH 19 0
BBX 15 18 2 0
BITMAP
FFFFFFF4
FFFFFFF4
FFFFFFF4
FFFFFFF4
FF400BF4
FF400BF4
FF400BF4
FF400BF4
FF400BF4
FF400BF4
FF400BF4
FF400BF4
FF400BF4
FF400BF4
FF400BF4
FF400BF4
FF400BF4
FF400BF4
ENDCHAR
STARTCHAR Rho
ENCODING 929
SWIDTH 596 0
DWIDTH 17 0
BBX 14 18 2 0
BITMAP
FFFFA400
FFFFFE00
FFFFFF80
FFFFFFD0
FF407FE0
FF402FE0
FF401FE0
FF402FD0
FF40BFC0
FFFFFF80
FFFFFE00
FFFFA000
FF400000
FF400000
FF400000
FF400000
FF400000
FF400000
ENDCHAR
STARTCHAR Sigma
ENCODING 931
SWIDTH 549 0
DWIDTH 15 0
BBX 14 18 1 0
BITMAP
FFFFFF80
FFFFFF80
BFFFFF80
3FFFFF80
0FE00000
07F80000
01FE0000
00BF8000
002FE000
002FD000
00BF4000
01FD0000
07F80000
1FE00000
3FFFFFD0
BFFFFFD0
FFFFFFD0
FFFFFFD0
ENDCHAR
STARTCHAR Tau
ENCODING 932
SWIDTH 556 0
DWIDTH 16 0
BBX 15 18 0 0
BITMAP
7FFFFFFC
7FFFFFFC
7FFFFFFC
7FFFFFFC
001FF000
001FF000
001FF000
001FF000
001FF000
001FF000
001FF000
001FF000
001FF000
001FF000
001FF000
001FF000
001FF000
001FF000
ENDCHAR
STARTCHAR Upsilon
ENCODING 933
SWIDTH 525 0
DWIDTH 15 0
BBX 15 18 0 0
BITMAP
FF400BF8
BF800FF4
3FD01FE0
2FE02FD0
0FF07F80
0BF4BF40
03F8FE00
02FDFD00
01FFFC00
00BFF400
007FF000
002FD000
002FD000
002FD000
002FD000
002FD000
002FD000
002FD000
ENDCHAR
STARTCHAR Phi
ENCODING 934
SWIDTH 760 0
DWIDTH 21 0
BBX 19 19 1 0
BITMAP
0001FD0000
0001FD0000
006BFFE400
02FFFFFE40
0BFFFFFFD0
2FFFFFFFF0
3FF5FD6FF4
7FC1FD0BF8
BF41FD03FC
BF41FD03FC
BF41FD03FC
7FC1FD0BF8
3FF5FD6FF4
2FFFFFFFF0
0BFFFFFFD0
02FFFFFE00
006BFFE400
0001FD0000
0001FD0000
ENDCHAR
STARTCHAR Chi
ENCODING 935
SWIDTH 567 0
DWIDTH 16 0
BBX 16 18 0 0
BITMAP
3FD007FC
2FF00BF4
0FF41FF0
07FC2FD0
03FD3FC0
01FE7F40
00FFFE00
007FFD00
002FF800
003FF800
00BFFD00
00FEFF00
02FDBF80
07F87FC0
0BF42FE0
1FF01FF4
3FD00BF8
7FC007FD
ENDCHAR
STARTCHAR Psi
ENCODING 936
SWIDTH 752 0
DWIDTH 21 0
BBX 19 18 1 0
BITMAP
BF41FD07F8
BF41FD07F8
BF41FD07F8
BF41FD07F8
BF41FD07F8
7F81FD0BF8
7F81FD0BF4
7FD1FD1FF4
3FFAFEBFF0
1FFFFFFFD0
0BFFFFFF80
01FFFFFD00
001AFE9000
0001FD0000
0001FD0000
0001FD0000
0001FD0000
0001FD0000
ENDCHAR
STARTCHAR uni03A9
ENCODING 937
SWIDTH 711 0
DWIDTH 20 0
BBX 18 18 1 0
BITMAP
001BFE4000
01FFFFF400
07FFFFFD00
0FFFFFFF00
2FF907FF80
3FF000FFC0
7FD0007FC0
7FC0003FD0
7FC0003FC0
3FC0003FC0
3FD0007F80
1FE000BF40
0FF401FE00
03FD07FC00
BFFE0BFFE0
BFFE0BFFE0
BFFE0BFFE0
BFFE0BFFE0
ENDCHAR
STARTCHAR Iotadieresis
ENCODING 938
SWIDTH 301 0
DWIDTH 8 0
BBX 11 24 -1 0
BITMAP
7D02E0
BF0BF0
BF0BF4
7D02E0
000000
000000
03FD00
03FD00
03FD00
03FD00
03FD00
03FD00
03FD00
03FD00
03FD00
03FD00
03FD00
03FD00
03FD00
03FD00
03FD00
03FD00
03FD00
03FD00
ENDCHAR
STARTCHAR Upsilondieresis
ENCODING 939
SWIDTH 525 0
DWIDTH 15 0
BBX 15 24 0 0
BITMAP
02D02E00
0BF07F40
0BF07F40
02D02E00
00000000
00000000
FF400BF8
BF800FF4
3FD01FE0
2FE02FD0
0FF07F80
0BF4BF40
03F8FE00
02FDFD00
01FFFC00
00BFF400
007FF000
002FD000
002FD000
002FD000
002FD000
002FD000
002FD000
002FD000
ENDCHAR
STARTCHAR alphatonos
ENCODING 940
SWIDTH 595 0
DWIDTH 17 0
BBX 16 23 1 0
BITMAP
00065000
000BF400
000BF000
000FE000
000FD000
000FC000
000B8000
00000000
00000000
01BE4BF4
0BFFDBF4
2FFFFFF0
7FE1FFE0
BF807FE0
FF402FD0
FF402FD0
FF403FC0
FF403FC0
BF807F80
7FD1FFC0
3FFFFFFC
1FFF9FFD
02FE06FD
ENDCHAR
STARTCHAR epsilontonos
ENCODING 941
SWIDTH 471 0
DWIDTH 13 0
BBX 12 23 1 0
BITMAP
001940
001FE0
002FD0
002F80
003F40
003F00
002A00
000000
000000
02BF90
1FFFFC
3FFFF8
7FD060
7F8000
2FFF80
1BFF80
7FFF80
BF4000
FF0000
FF9064
7FFFFC
2FFFFD
06BFA0
ENDCHAR
STARTCHAR etatonos
ENCODING 942
SWIDTH 562 0
DWIDTH 16 0
BBX 13 27 1 -4
BITMAP
00025000
0007F800
0007F400
0007F000
000BE000
000BD000
000AC000
00000000
00000000
7F46F900
7F5FFF40
7FBFFF80
7FF47FC0
7FE03FC0
7FC02FC0
7FC02FC0
7FC03FC0
7FC03FC0
7FC03FC0
7FC03FC0
7FC03FC0
7FC03FC0
7FC03FC0
00003FC0
00003FC0
00003FC0
00003FC0
ENDCHAR
STARTCHAR iotatonos
ENCODING 943
SWIDTH 301 0
DWIDTH 8 0
BBX 7 23 1 0
BITMAP
0540
0FF0
0FE0
1FD0
1FC0
2F80
1B40
0000
0000
7FC0
7FC0
7FC0
7FC0
7F80
7F80
7F80
7F80
7F80
7F80
3FC0
3FFC
2FFC
07F8
ENDCHAR
STARTCHAR upsilondieresistonos
ENCODING 944
SWIDTH 532 0
DWIDTH 15 0
BBX 13 23 1 0
BITMAP
00040000
001F8000
001F4000
002F0000
1E2E3D00
3F7D7E00
1E3C3D00
00000000
00000000
BF41FE00
BF40FF00
BF40BF40
7F40BF40
7F40BF80
BF40BF80
BF407F80
BF407F80
BF40BF80
7F40BF40
7FD1FF00
2FFFFD00
0FFFF800
02BF9000
ENDCHAR
STARTCHAR alpha
ENCODING 945
SWIDTH 595 0
DWIDTH 17 0
BBX 16 14 1 0
BITMAP
01BE4BF4
0BFFDBF4
2FFFFFF0
7FE1FFE0
BF807FE0
FF402FD0
FF402FD0
FF403FC0
FF403FC0
BF807F80
7FD1FFC0
3FFFFFFC
1FFF9FFD
02FE06FD
ENDCHAR
STARTCHAR beta
ENCODING 946
SWIDTH 600 0
DWIDTH 17 0
BBX 15 24 1 -4
BITMAP
006FE400
07FFFE00
0FFFFF80
2FF47FC0
3FD02FD0
3FC02FD0
7F803FC0
7F80BF80
7F87FE00
7F87FE40
7F83FFD0
7F816FF0
7F800BF8
7F8007F8
7F8007F8
7FC00BF8
7FF41FF4
7FFFFFF0
7FAFFFD0
7F86FE00
7F800000
7F800000
7FC00000
7FC00000
ENDCHAR
STARTCHAR gamma
ENCODING 947
SWIDTH 533 0
DWIDTH 15 0
BBX 15 18 0 -4
BITMAP
BF400BF4
3FC00BF0
1FE00FF0
0FF00FE0
07F41FD0
03F82FC0
02FC3F80
01FD7F40
00FEBE00
00BFFD00
007FF800
003FF000
002FD000
002FC000
002FD000
002FD000
002FD000
002FD000
ENDCHAR
STARTCHAR delta
ENCODING 948
SWIDTH 548 0
DWIDTH 15 0
BBX 14 20 1 0
BITMAP
01BFE500
0BFFFF80
1FFFFF40
1FD05B00
1FE00000
0FF80000
07FF4000
01FFE000
02FFF800
0BFFFE00
2FE1FF40
7F807FC0
BF403FC0
FF002FD0
BF003FC0
BF403FC0
7FD0BF80
2FFFFF00
0BFFFD00
01BF9000
ENDCHAR
STARTCHAR epsilon
ENCODING 949
SWIDTH 471 0
DWIDTH 13 0
BBX 12 14 1 0
BITMAP
02BF90
1FFFFC
3FFFF8
7FD060
7F8000
2FFF80
1BFF80
7FFF80
BF4000
FF0000
FF9064
7FFFFC
2FFFFD
06BFA0
ENDCHAR
STARTCHAR zeta
ENCODING 950
SWIDTH 466 0
DWIDTH 13 0
BBX 12 25 1 -5
BITMAP
3FFFFD
3FFFFD
3FFFFD
100BF4
003FD0
00FF40
02FD00
0BF800
1FF000
2FD000
7FC000
BF8000
BF4000
FF4000
BF8000
BFC000
7FF400
2FFF90
0BFFFC
01BFFD
0006FE
0000FD
0001FC
0003F8
0001B4
ENDCHAR
STARTCHAR eta
ENCODING 951
SWIDTH 562 0
DWIDTH 16 0
BBX 13 18 1 -4
BITMAP
7F46F900
7F5FFF40
7FBFFF80
7FF47FC0
7FE03FC0
7FC02FC0
7FC02FC0
7FC03FC0
7FC03FC0
7FC03FC0
7FC03FC0
7FC03FC0
7FC03FC0
7FC03FC0
00003FC0
00003FC0
00003FC0
00003FC0
ENDCHAR
STARTCHAR theta
ENCODING 952
SWIDTH 549 0
DWIDTH 15 0
BBX 13 20 1 0
BITMAP
00BF9000
03FFF400
0FFFFD00
1FE1FE00
3FC0BF40
3F807F80
7F807F80
BF403FC0
BF403FC0
BFFFFFC0
BFFFFFC0
BFFFFFC0
BF403FC0
7F403F80
3F807F80
3FC0BF40
1FE1FE00
0FFFFD00
03FFF400
00BF9000
ENDCHAR
STARTCHAR iota
ENCODING 953
SWIDTH 301 0
DWIDTH 8 0
BBX 7 14 1 0
BITMAP
7FC0
7FC0
7FC0
7FC0
7F80
7F80
7F80
7F80
7F80
7F80
3FC0
3FFC
2FFC
07F8
ENDCHAR
STARTCHAR kappa
ENCODING 954
SWIDTH 546 0
DWIDTH 15 0
BBX 14 14 1 0
BITMAP
7F800680
7F802FC0
7F80FFC0
7F83FFC0
7F8BFD00
7FAFE000
7FFFD000
7FFFE000
7FFBF400
7FD3FC00
7FC2FE00
7F80FF40
7F807FD0
7F802FF0
ENDCHAR
STARTCHAR lambda
ENCODING 955
SWIDTH 552 0
DWIDTH 15 0
BBX 15 20 0 0
BITMAP
2FF80000
2FFF4000
2FFFC000
046FD000
000FF000
000BF400
000FF800
001FFC00
003FFD00
007FFE00
00BFFF00
00FEBF40
02FD7F80
03FC3FC0
07F82FD0
0BF41FE0
1FF00FF0
2FE00BF4
3FD00BF8
7FC007FC
ENDCHAR
STARTCHAR uni03BC
ENCODING 956
SWIDTH 594 0
DWIDTH 17 0
BBX 16 18 1 -4
BITMAP
7FC03FC0
7FC03FC0
7FC03FC0
7FC03FC0
7FC03FC0
7FC03FC0
7FC03FC0
7FC03FC0
7FC03FC0
7FC07FC0
7FE1FFD0
7FFFFFFC
7FFFDFFD
7FAE06FD
7F800000
7F800000
7F800000
7FC00000
ENDCHAR
STARTCHAR nu
ENCODING 957
SWIDTH 523 0
DWIDTH 15 0
BBX 14 14 0 0
BITMAP
BF400FF0
7FC00FF0
2FD01FE0
1FE01FD0
0BF42FC0
07F82FC0
03FC3F80
02FC7F00
01FDBE00
00FEFD00
00BFFC00
007FF400
007FF000
003FD000
ENDCHAR
STARTCHAR xi
ENCODING 958
SWIDTH 469 0
DWIDTH 13 0
BBX 13 25 0 -5
BITMAP
BFFFFF40
BFFFFF40
BFFFFF40
02FE0000
07F80000
0BF80000
07F80000
03FE0000
01FFFC00
007FFC00
03FFFC00
0BF90000
1FF00000
2FD00000
2FD00000
2FE00000
1FF90000
0FFFF800
07FFFF00
006FFF80
0001BF80
00003F80
00007F40
0000FE00
00006D00
ENDCHAR
STARTCHAR omicron
ENCODING 959
SWIDTH 553 0
DWIDTH 15 0
BBX 14 14 1 0
BITMAP
01BF9000
0BFFFC00
2FFFFF00
3FD0BF80
BF807FC0
FF403FD0
FF402FD0
FF402FD0
FF403FD0
BF807FC0
7FD0BF80
2FFFFF00
0BFFFC00
01BF9000
ENDCHAR
STARTCHAR pi
ENCODING 960
SWIDTH 635 0
DWIDTH 18 0
BBX 17 14 0 0
BITMAP
7FFFFFFFC0
BFFFFFFFC0
BFFFFFFFC0
01FD07F800
02FD07F400
02FD07F400
02FD07F400
02FD07F400
02FC0BF400
03FC0BF400
03FC07F800
03FC07FF80
07F802FFC0
07F800BF80
ENDCHAR
STARTCHAR rho
ENCODING 961
SWIDTH 569 0
DWIDTH 16 0
BBX 14 18 1 -4
BITMAP
006FE400
07FFFE00
0FFFFF80
2FE0BFD0
3FC02FE0
3F802FE0
7F801FE0
7F801FE0
7F802FE0
7F803FD0
7FE0BFC0
7FFFFF40
7FFFFE00
7F9BE400
7F800000
7F800000
7F800000
7FC00000
ENDCHAR
STARTCHAR uni03C2
ENCODING 962
SWIDTH 446 0
DWIDTH 12 0
BBX 11 19 1 -5
BITMAP
00BFA0
07FFF8
1FFFF4
3FE050
BF8000
FF4000
FF4000
FF4000
FF4000
BFC000
7FE400
2FFF40
0BFFE0
01BFF4
000BF4
0003F4
0007F0
000FE0
0006C0
ENDCHAR
STARTCHAR sigma
ENCODING 963
SWIDTH 573 0
DWIDTH 16 0
BBX 15 14 1 0
BITMAP
01BFFFF8
0BFFFFF8
2FFFFFF8
7FD1FD00
BF80BF00
FF407F80
FF403F80
FF403FC0
FF403FC0
BF807F80
7FD1FF40
2FFFFE00
0BFFF800
01BF9000
ENDCHAR
STARTCHAR tau
ENCODING 964
SWIDTH 492 0
DWIDTH 14 0
BBX 13 14 0 0
BITMAP
7FFFFFC0
7FFFFFC0
7FFFFFC0
007F8000
007F8000
007F8000
007F8000
007F8000
007F8000
003F8000
003FC000
003FFD00
001FFE00
0007FE00
ENDCHAR
STARTCHAR upsilon
ENCODING 965
SWIDTH 532 0
DWIDTH 15 0
BBX 13 14 1 0
BITMAP
BF41FE00
BF40FF00
BF40BF40
7F40BF40
7F40BF80
BF40BF80
BF407F80
BF407F80
BF40BF80
7F40BF40
7FD1FF00
2FFFFD00
0FFFF800
02BF9000
ENDCHAR
STARTCHAR phi
ENCODING 966
SWIDTH 738 0
DWIDTH 21 0
BBX 19 22 1 -4
BITMAP
0002FD0000
0002FD0000
0002FD0000
0002FD0000
006FFFA400
07FFFFFE00
1FFFFFFFC0
3FE6FD7FE0
BFC2FD1FF4
BF42FD0BF4
FF42FD0BF8
FF42FD0BF8
BF42FD0BF4
BFC2FD1FF4
3FE6FD7FE0
1FFFFFFFC0
07FFFFFE00
006FFFA400
0002FD0000
0002FD0000
0002FD0000
0002FD0000
ENDCHAR
STARTCHAR chi
ENCODING 967
SWIDTH 526 0
DWIDTH 15 0
BBX 15 19 0 -5
BITMAP
7F800FF0
3FC02FE0
1FE03FC0
0BF47F80
07FCFF00
02FEFD00
00FFFC00
007FF400
003FF000
002FF000
007FF400
00FFFC00
01FEFE00
03FCBF40
0BF47FC0
1FE02FE0
3FD01FF4
7F800BF8
00000790
ENDCHAR
STARTCHAR psi
ENCODING 968
SWIDTH 752 0
DWIDTH 21 0
BBX 19 22 1 -4
BITMAP
0001FD0000
0001FD0000
0001FD0000
0001FD0000
BF41FD0FF0
BF41FD0FF0
BF41FD0BF4
7F41FD0BF8
7F41FD07F8
7F41FD07F8
7F41FD07F8
7F41FD07F8
7F81FD0BF8
3FC1FD0FF4
2FE1FD6FF0
1FFFFFFFD0
07FFFFFF40
006FFFE400
0001FD0000
0001FD0000
0001FD0000
0001FD0000
ENDCHAR
STARTCHAR omega
ENCODING 969
SWIDTH 746 0
DWIDTH 21 0
BBX 19 14 1 0
BITMAP
0E40000680
2FF0003FD0
3FD0002FF0
7FC0000FF4
BF81540BF8
BF42FD07F8
FF02FD07F8
FF01FD07F8
BF01FD07F8
BF42FD0BF4
7F87FE1FF4
3FFFEFFFE0
1FFF8FFFC0
02FE02FE00
ENDCHAR
STARTCHAR iotadieresis
ENCODING 970
SWIDTH 301 0
DWIDTH 8 0
BBX 10 20 -1 0
BITMAP
7D07D0
FE0FE0
FE0FE0
7D07D0
000000
000000
07FC00
07FC00
07FC00
07FC00
07F800
07F800
07F800
07F800
07F800
07F800
03FC00
03FFC0
02FFC0
007F80
ENDCHAR
STARTCHAR upsilondieresis
ENCODING 971
SWIDTH 532 0
DWIDTH 15 0
BBX 13 20 1 0
BITMAP
0B80B800
2FD1FD00
2FD1FD00
0B80B800
00000000
00000000
BF41FE00
BF40FF00
BF40BF40
7F40BF40
7F40BF80
BF40BF80
BF407F80
BF407F80
BF40BF80
7F40BF40
7FD1FF00
2FFFFD00
0FFFF800
02BF9000
ENDCHAR
STARTCHAR omicrontonos
ENCODING 972
SWIDTH 553 0
DWIDTH 15 0
BBX 14 23 1 0
BITMAP
00054000
000FF000
000FE000
001FD000
001FC000
002F8000
001B4000
00000000
00000000
01BF9000
0BFFFC00
2FFFFF00
3FD0BF80
BF807FC0
FF403FD0
FF402FD0
FF402FD0
FF403FD0
BF807FC0
7FD0BF80
2FFFFF00
0BFFFC00
01BF9000
ENDCHAR
STARTCHAR upsilontonos
ENCODING 973
SWIDTH 532 0
DWIDTH 15 0
BBX 13 23 1 0
BITMAP
00094000
001FE000
002FD000
002FC000
003F8000
003F0000
002A0000
00000000
00000000
BF41FE00
BF40FF00
BF40BF40
7F40BF40
7F40BF80
BF40BF80
BF407F80
BF407F80
BF40BF80
7F40BF40
7FD1FF00
2FFFFD00
0FFFF800
02BF9000
ENDCHAR
STARTCHAR omegatonos
ENCODING 974
SWIDTH 746 0
DWIDTH 21 0
BBX 19 23 1 0
BITMAP
0000250000
00007F8000
00007F4000
0000BF0000
0000BE0000
0000FD0000
0000A80000
0000000000
0000000000
0E40000680
2FF0003FD0
3FD0002FF0
7FC0000FF4
BF81540BF8
BF42FD07F8
FF02FD07F8
FF01FD07F8
BF01FD07F8
BF42FD0BF4
7F87FE1FF4
3FFFEFFFE0
1FFF8FFFC0
02FE02FE00
ENDCHAR
STARTCHAR uni03D0
ENCODING 976
SWIDTH 592 0
DWIDTH 17 0
BBX 15 20 1 0
BITMAP
00BFE400
07FFFE00
0FFFFF80
2FE47FC0
3FD03FC0
3FC03FC0
7F807F80
7F86FE00
7FFFF800
7FFFFF40
7FFFFFE0
7FE56FF0
7F800BF4
3F800BF8
3FD00BF8
2FF42FF4
1FFFFFF0
0BFFFFD0
02FFFF80
006FF900
ENDCHAR
STARTCHAR uni03D1
ENCODING 977
SWIDTH 549 0
DWIDTH 15 0
BBX 13 20 1 0
BITMAP
01BE8000
0BFFF400
2FFFFC00
7F81FE00
BF40BF40
BF407F80
7F803F80
3FE43FC0
2FFFFFC0
0BFFFFC0
01AFFFC0
00003FC0
3F803FC0
3FC03F80
3FC07F80
3FC0BF40
2FE1FF00
1FFFFD00
0BFFF800
01BF9000
ENDCHAR
STARTCHAR uni03D5
ENCODING 981
SWIDTH 738 0
DWIDTH 21 0
BBX 19 18 1 -4
BITMAP
06000BF900
1FD02FFF80
2FF0BFFFE0
7FD0FE1FF0
BF81FD0FF4
BF41FD0BF8
FF41FC0BF8
FF41FC0BF8
BF41FC0BF4
BF81FC1FF0
3FE6FD7FE0
1FFFFFFF80
07FFFFFE00
006FFFA400
0001FD0000
0001FD0000
0001FD0000
0001FD0000
ENDCHAR
STARTCHAR uni03D7
ENCODING 983
SWIDTH 546 0
DWIDTH 15 0
BBX 14 19 1 -5
BITMAP
7F800680
7F802FC0
7F80FFC0
7F83FF80
7F8FF900
7FAFD000
7FFFD000
7FFFF000
7FFBF400
7FD3FC00
7FC2FE00
7F80FF40
7F807FD0
7F802FF0
00001FF0
00007FD0
0000FF80
0003FF00
000AFD00
ENDCHAR
STARTCHAR uni03D9
ENCODING 985
SWIDTH 553 0
DWIDTH 15 0
BBX 14 18 1 -4
BITMAP
01BF9000
0BFFFC00
1FFFFF00
3FD0BF80
BF807FC0
BF403FD0
FF402FD0
FF402FD0
FF403FD0
BF807FC0
7FD0BF80
2FFFFF40
0BFFFD00
01FFE000
007F8000
007FC000
007FC000
007FC000
ENDCHAR
STARTCHAR uni03DB
ENCODING 987
SWIDTH 490 0
DWIDTH 14 0
BBX 12 19 1 -5
BITMAP
00AFFF
0BFFFF
2FFFFF
7FE000
BF8000
FF4000
FF4000
FF4000
FF8000
BFC000
3FF400
1FFF90
07FFF8
00BFFD
0006FD
0001FD
0002FC
0007F8
0001B0
ENDCHAR
STARTCHAR uni03DD
ENCODING 989
SWIDTH 433 0
DWIDTH 12 0
BBX 11 18 1 -4
BITMAP
7FFFF4
7FFFF4
7FFFF4
7F8000
7F8000
7F8000
7F8000
7F8000
7FFFF0
7FFFF0
7FFFF0
7F8000
7F8000
7F8000
7F8000
7FC000
7FC000
7FC000
ENDCHAR
STARTCHAR uni03E1
ENCODING 993
SWIDTH 536 0
DWIDTH 15 0
BBX 15 25 0 -5
BITMAP
00900000
02F80000
07FE0000
07FF8000
00FFE000
002FF400
000FFC00
0007FE00
000BFF00
01BFFF80
1BFFFFC0
BFFF7FD0
3FE42FE0
2F401FF0
1400BFF0
001BFFF4
01BFFFF4
03FFFBF8
01FF47F8
00F407F8
00400BF8
00000BF4
00000BF4
00000BF4
00000AB0
ENDCHAR
STARTCHAR uni0400
ENCODING 1024
SWIDTH 548 0
DWIDTH 15 0
BBX 12 25 2 0
BITMAP
020000
0BD000
2FF400
07FE00
01BE00
001800
000000
FFFFFE
FFFFFE
FFFFFE
FFFFFE
FF4000
FF4000
FF4000
FFFFF4
FFFFF4
FFFFF4
FF4000
FF4000
FF4000
FF4000
FFFFFF
FFFFFF
FFFFFF
FFFFFF
ENDCHAR
STARTCHAR uni0401
ENCODING 1025
SWIDTH 548 0
DWIDTH 15 0
BBX 12 24 2 0
BITMAP
1F41F4
3F82FC
3F82FC
1F41F4
000000
000000
FFFFFE
FFFFFE
FFFFFE
FFFFFE
FF4000
FF4000
FF4000
FFFFF4
FFFFF4
FFFFF4
FF4000
FF4000
FF4000
FF4000
FFFFFF
FFFFFF
FFFFFF
FFFFFF
ENDCHAR
STARTCHAR uni0402
ENCODING 1026
SWIDTH 701 0
DWIDTH 20 0
BBX 19 18 0 0
BITMAP
7FFFFFFC00
7FFFFFFC00
7FFFFFFC00
7FFFFFFC00
003FD00000
003FD00000
003FD00000
003FFFF900
003FFFFF80
003FFFFFE0
003FD01FF0
003FD00BF4
003FD00BF8
003FD01FF4
003FD0FFF4
003FD1FFF0
003FD1FFD0
003FD1FE00
ENDCHAR
STARTCHAR uni0403
ENCODING 1027
SWIDTH 521 0
DWIDTH 15 0
BBX 12 25 2 0
BITMAP
000090
0002F4
001FF8
007FE0
007F40
001800
000000
FFFFFE
FFFFFE
FFFFFE
FFFFFE
FF4000
FF4000
FF4000
FF4000
FF4000
FF4000
FF4000
FF4000
FF4000
FF4000
FF4000
FF4000
FF4000
FF4000
ENDCHAR
STARTCHAR uni0404
ENCODING 1028
SWIDTH 582 0
DWIDTH 16 0
BBX 15 18 1 0
BITMAP
001BF900
01FFFFD0
07FFFFF0
1FFFFFE0
2FF907C0
3FD00000
7F800000
BFFFF800
BFFFF800
BFFFF800
BF800000
7F800000
7FD00040
3FF907D0
1FFFFFF4
0BFFFFF4
01FFFFD0
001BF900
ENDCHAR
STARTCHAR uni0405
ENCODING 1029
SWIDTH 556 0
DWIDTH 16 0
BBX 14 18 1 0
BITMAP
00AFE400
07FFFE00
1FFFFF80
3FFFFF40
7FD06E00
7FC00000
3FE40000
2FFF9000
0BFFF900
01FFFF40
001BFFC0
0000BFD0
08002FE0
2F907FE0
BFFFFFD0
7FFFFF80
1FFFFE00
01BFA400
ENDCHAR
STARTCHAR uni0406
ENCODING 1030
SWIDTH 301 0
DWIDTH 8 0
BBX 5 18 2 0
BITMAP
FF40
FF40
FF40
FF40
FF40
FF40
FF40
FF40
FF40
FF40
FF40
FF40
FF40
FF40
FF40
FF40
FF40
FF40
ENDCHAR
STARTCHAR uni0407
ENCODING 1031
SWIDTH 301 0
DWIDTH 8 0
BBX 11 24 -1 0
BITMAP
7D02E0
BF0BF0
BF0BF4
7D02E0
000000
000000
03FD00
03FD00
03FD00
03FD00
03FD00
03FD00
03FD00
03FD00
03FD00
03FD00
03FD00
03FD00
03FD00
03FD00
03FD00
03FD00
03FD00
03FD00
ENDCHAR
STARTCHAR uni0408
ENCODING 1032
SWIDTH 509 0
DWIDTH 14 0
BBX 13 18 0 0
BITMAP
0000FF40
0000FF40
0000FF40
0000FF40
0000FF40
0000FF40
0000FF40
0000FF40
0000FF40
0000FF40
0000FF40
0000FF40
0500FF00
2F42FF00
7FFFFE00
2FFFFD00
0BFFF400
01BF9000
ENDCHAR
STARTCHAR uni0409
ENCODING 1033
SWIDTH 920 0
DWIDTH 26 0
BBX 25 18 0 0
BITMAP
000FFFFF000000
001FFFFF000000
001FFFFF000000
002FFFFF000000
003FC0FF000000
003FC0FF000000
007F80FFFF9000
007F40FFFFF800
00BF40FFFFFE00
00FF00FFFFFF40
00FF00FF01FF80
01FE00FF007F80
02FD00FF007F80
07FC00FF01FF80
7FF800FFFFFF40
7FF400FFFFFE00
BFE000FFFFF800
BF4000FFFF9000
ENDCHAR
STARTCHAR uni040A
ENCODING 1034
SWIDTH 933 0
DWIDTH 26 0
BBX 23 18 2 0
BITMAP
FF400BF40000
FF400BF40000
FF400BF40000
FF400BF40000
FF400BF40000
FF400BF40000
FF400BFFF900
FFFFFFFFFFD0
FFFFFFFFFFF0
FFFFFFFFFFF8
FF400BF41BFC
FF400BF403FC
FF400BF403FC
FF400BF41BFC
FF400BFFFFF8
FF400BFFFFF0
FF400BFFFFD0
FF400BFFF900
ENDCHAR
STARTCHAR uni040B
ENCODING 1035
SWIDTH 718 0
DWIDTH 20 0
BBX 19 18 0 0
BITMAP
7FFFFFFC00
7FFFFFFC00
7FFFFFFC00
7FFFFFFC00
003FD00000
003FD00000
003FD00000
003FFFF900
003FFFFF80
003FFFFFD0
003FD02FF0
003FD00FF4
003FD00BF4
003FD00BF4
003FD00BF4
003FD00BF4
003FD00BF4
003FD00BF4
ENDCHAR
STARTCHAR uni040C
ENCODING 1036
SWIDTH 622 0
DWIDTH 17 0
BBX 16 25 2 0
BITMAP
00001800
0000BD00
0002FF40
000FFD00
000FE000
00064000
00000000
FF4002F8
FF401FF8
FF403FF8
FF40BFF4
FF41FF40
FF42FD00
FF47F800
FFFFF000
FFFFE000
FFFFF400
FF47FC00
FF42FE00
FF41FF00
FF40BF80
FF403FD0
FF401FF0
FF400BF8
FF4007FD
ENDCHAR
STARTCHAR uni040D
ENCODING 1037
SWIDTH 676 0
DWIDTH 19 0
BBX 15 25 2 0
BITMAP
00600000
01F80000
03FE0000
01BFD000
001FD000
00024000
00000000
FF400FF8
FF401FF8
FF403FF8
FF407FF8
FF40FFF8
FF42FFF8
FF43F7F8
FF4BF3F8
FF0FE3F8
FF2FC7F8
FF3F87F8
FFBF07F8
FEFD07F8
FFFC07F8
FFF407F8
FFF007F8
FFD007F8
FF8007F8
ENDCHAR
STARTCHAR uni040E
ENCODING 1038
SWIDTH 555 0
DWIDTH 16 0
BBX 16 24 0 0
BITMAP
03F82FC0
02FC3F80
00FFFF00
002FF800
00000000
00000000
BF8002FD
7FC003FC
2FD007F8
1FF00BF4
0FF40FE0
07F82FD0
03FC3FC0
02FD7F80
00FEBF40
00BFFE00
003FFD00
002FFC00
001FF800
001FF000
07FFE000
0BFFC000
0BFF4000
0BF80000
ENDCHAR
STARTCHAR uni040F
ENCODING 1039
SWIDTH 663 0
DWIDTH 19 0
BBX 15 23 2 -5
BITMAP
FF400BF4
FF400BF4
FF400BF4
FF400BF4
FF400BF4
FF400BF4
FF400BF4
FF400BF4
FF400BF4
FF400BF4
FF400BF4
FF400BF4
FF400BF4
FF400BF4
FFFFFFF4
FFFFFFF4
FFFFFFF4
FFFFFFF4
002FD000
002FD000
002FD000
002FD000
002FD000
ENDCHAR
STARTCHAR uni0410
ENCODING 1040
SWIDTH 573 0
DWIDTH 16 0
BBX 16 18 0 0
BITMAP
002FF800
003FFC00
007FFD00
00BEFE00
00FEBF00
01FD7F40
02FC7F80
03FC3FC0
03F82FD0
07F41FE0
0BF01FF0
0FFFFFF0
1FFFFFF4
2FFFFFF8
3FC003FC
7F8003FD
BF4002FE
FF4001FF
ENDCHAR
STARTCHAR uni0411
ENCODING 1041
SWIDTH 600 0
DWIDTH 17 0
BBX 14 18 2 0
BITMAP
FFFFFF80
FFFFFF80
FFFFFF80
FFFFFF80
FF400000
FF400000
FF400000
FFFFE400
FFFFFF40
FFFFFFC0
FF407FE0
FF401FE0
FF401FE0
FF407FE0
FFFFFFD0
FFFFFFC0
FFFFFF00
FFFFE400
ENDCHAR
STARTCHAR uni0412
ENCODING 1042
SWIDTH 605 0
DWIDTH 17 0
BBX 14 18 2 0
BITMAP
FFFFE400
FFFFFE00
FFFFFF80
FFFFFFC0
FF407FC0
FF403FC0
FF40BF80
FFFFFE00
FFFFFD00
FFFFFF80
FF406FE0
FF400FF0
FF400FF0
FF406FF0
FFFFFFE0
FFFFFFC0
FFFFFF40
FFFFE400
ENDCHAR
STARTCHAR uni0413
ENCODING 1043
SWIDTH 521 0
DWIDTH 15 0
BBX 12 18 2 0
BITMAP
FFFFFE
FFFFFE
FFFFFE
FFFFFE
FF4000
FF4000
FF4000
FF4000
FF4000
FF4000
FF4000
FF4000
FF4000
FF4000
FF4000
FF4000
FF4000
FF4000
ENDCHAR
STARTCHAR uni0414
ENCODING 1044
SWIDTH 670 0
DWIDTH 19 0
BBX 19 23 0 -5
BITMAP
002FFFFF00
003FFFFF00
003FFFFF00
007FFFFF00
00BF40FF00
00BF40FF00
00FF00FF00
00FE00FF00
01FE00FF00
02FD00FF00
02FC00FF00
03F800FF00
0BF400FF00
1FF000FF00
BFFFFFFFF4
BFFFFFFFF4
BFFFFFFFF4
BFFFFFFFF4
BF40000BF4
7F40000BF4
7F40000BF4
7F40000BF0
7F40000BF0
ENDCHAR
STARTCHAR uni0415
ENCODING 1045
SWIDTH 548 0
DWIDTH 15 0
BBX 12 18 2 0
BITMAP
FFFFFE
FFFFFE
FFFFFE
FFFFFE
FF4000
FF4000
FF4000
FFFFF4
FFFFF4
FFFFF4
FF4000
FF4000
FF4000
FF4000
FFFFFF
FFFFFF
FFFFFF
FFFFFF
ENDCHAR
STARTCHAR uni0416
ENCODING 1046
SWIDTH 868 0
DWIDTH 24 0
BBX 24 18 0 0
BITMAP
BE400BF000BF
BFD00BF007FE
7FF40BF00FFE
3FF80BF02FFD
03FD0BF03FD0
01FE0BF0BF40
00BF4BF0FF00
003FFFFFFD00
003FFFFFFC00
007FFFFFFE00
00FF0BF0BF00
01FE0BF07F80
03FC0BF02FD0
0BF80BF01FE0
0FF00BF00FF4
2FE00BF007FC
3FD00BF003FD
BF800BF001FF
ENDCHAR
STARTCHAR uni0417
ENCODING 1047
SWIDTH 564 0
DWIDTH 16 0
BBX 14 18 1 0
BITMAP
01BFE400
1FFFFE00
7FFFFF40
2FFFFFC0
0F40BFC0
04003FC0
0000BF80
00FFFE00
00FFFD00
00FFFF80
00006FD0
00001FE0
08001FF0
2E407FE0
BFFFFFD0
BFFFFFC0
1FFFFE00
01BFE400
ENDCHAR
STARTCHAR uni0418
ENCODING 1048
SWIDTH 676 0
DWIDTH 19 0
BBX 15 18 2 0
BITMAP
FF400FF8
FF401FF8
FF403FF8
FF407FF8
FF40FFF8
FF42FFF8
FF43F7F8
FF4BF3F8
FF0FE3F8
FF2FC7F8
FF3F87F8
FFBF07F8
FEFD07F8
FFFC07F8
FFF407F8
FFF007F8
FFD007F8
FF8007F8
ENDCHAR
STARTCHAR uni0419
ENCODING 1049
SWIDTH 676 0
DWIDTH 19 0
BBX 15 24 2 0
BITMAP
07F03F40
03F87F40
02FFFE00
006FE400
00000000
00000000
FF400FF8
FF401FF8
FF403FF8
FF407FF8
FF40FFF8
FF42FFF8
FF43F7F8
FF4BF3F8
FF0FE3F8
FF2FC7F8
FF3F87F8
FFBF07F8
FEFD07F8
FFFC07F8
FFF407F8
FFF007F8
FFD007F8
FF8007F8
ENDCHAR
STARTCHAR uni041A
ENCODING 1050
SWIDTH 622 0
DWIDTH 17 0
BBX 16 18 2 0
BITMAP
FF4002F8
FF401FF8
FF403FF8
FF40BFF4
FF41FF40
FF42FD00
FF47F800
FFFFF000
FFFFE000
FFFFF400
FF47FC00
FF42FE00
FF41FF00
FF40BF80
FF403FD0
FF401FF0
FF400BF8
FF4007FD
ENDCHAR
STARTCHAR uni041B
ENCODING 1051
SWIDTH 657 0
DWIDTH 18 0
BBX 17 18 0 0
BITMAP
001FFFFF40
002FFFFF40
003FFFFF40
003FFFFF40
007F80FF40
007F40FF40
00BF40FF40
00FF00FF40
00FF00FF40
01FE00FF40
02FE00FF40
02FD00FF40
03FC00FF40
0BF800FF40
BFF400FF40
FFF000FF40
FFD000FF40
FE4000FF40
ENDCHAR
STARTCHAR uni041C
ENCODING 1052
SWIDTH 762 0
DWIDTH 21 0
BBX 18 18 2 0
BITMAP
FFC0007FD0
FFD000FFD0
FFE001FFD0
FFF002FFD0
FFF403FFD0
FFF807EFD0
FEFC0BEFD0
FEBD0FDFD0
FE7E1F9FD0
FE3F2F5FD0
FE2F7F2FD0
FF1FFE2FD0
FF0FFD2FD0
FF0BFC2FD0
FF07F42FD0
FF03F02FD0
FF01502FD0
FF00002FD0
ENDCHAR
STARTCHAR uni041D
ENCODING 1053
SWIDTH 674 0
DWIDTH 19 0
BBX 15 18 2 0
BITMAP
FF4007F8
FF4007F8
FF4007F8
FF4007F8
FF4007F8
FF4007F8
FFFFFFF8
FFFFFFF8
FFFFFFF8
FFFFFFF8
FF4007F8
FF4007F8
FF4007F8
FF4007F8
FF4007F8
FF4007F8
FF4007F8
FF4007F8
ENDCHAR
STARTCHAR uni041E
ENCODING 1054
SWIDTH 684 0
DWIDTH 19 0
BBX 17 18 1 0
BITMAP
001BFA0000
01FFFFE000
0BFFFFF800
1FFFFFFD00
2FF807FF00
7FD001FF40
7FC000BF80
BF8000BF80
BF80007F80
BF80007F80
BF8000BF80
7FC000BF80
7FE001FF40
2FF807FF00
1FFFFFFD00
07FFFFF800
01FFFFD000
001BFA0000
ENDCHAR
STARTCHAR uni041F
ENCODING 1055
SWIDTH 663 0
DWIDTH 19 0
BBX 15 18 2 0
BITMAP
FFFFFFF4
FFFFFFF4
FFFFFFF4
FFFFFFF4
FF400BF4
FF400BF4
FF400BF4
FF400BF4
FF400BF4
FF400BF4
FF400BF4
FF400BF4
FF400BF4
FF400BF4
FF400BF4
FF400BF4
FF400BF4
FF400BF4
ENDCHAR
STARTCHAR uni0420
ENCODING 1056
SWIDTH 596 0
DWIDTH 17 0
BBX 14 18 2 0
BITMAP
FFFFA400
FFFFFE00
FFFFFF80
FFFFFFD0
FF407FE0
FF402FE0
FF401FE0
FF402FD0
FF40BFC0
FFFFFF80
FFFFFE00
FFFFA000
FF400000
FF400000
FF400000
FF400000
FF400000
FF400000
ENDCHAR
STARTCHAR uni0421
ENCODING 1057
SWIDTH 582 0
DWIDTH 16 0
BBX 15 18 1 0
BITMAP
001BF900
01BFFFD0
07FFFFF0
0FFFFFE0
2FF907C0
3FE00000
7FC00000
BF800000
BF800000
BF800000
BF800000
7FC00000
7FE00040
2FF907D0
1FFFFFF4
07FFFFF4
01FFFFD0
001BF900
ENDCHAR
STARTCHAR uni0422
ENCODING 1058
SWIDTH 556 0
DWIDTH 16 0
BBX 15 18 0 0
BITMAP
7FFFFFFC
7FFFFFFC
7FFFFFFC
7FFFFFFC
001FF000
001FF000
001FF000
001FF000
001FF000
001FF000
001FF000
001FF000
001FF000
001FF000
001FF000
001FF000
001FF000
001FF000
ENDCHAR
STARTCHAR uni0423
ENCODING 1059
SWIDTH 555 0
DWIDTH 16 0
BBX 16 18 0 0
BITMAP
BF8002FD
7FC003FC
2FD007F8
1FF00BF4
0FF40FE0
07F82FD0
03FC3FC0
02FD7F80
00FEBF40
00BFFE00
003FFD00
002FFC00
001FF800
001FF000
07FFE000
0BFFC000
0BFF4000
0BF80000
ENDCHAR
STARTCHAR uni0424
ENCODING 1060
SWIDTH 764 0
DWIDTH 21 0
BBX 19 18 1 0
BITMAP
0000FD0000
0000FD0000
006BFFE400
07FFFFFF40
1FFFFFFFE0
3FFFFFFFF4
7FE4FD5FF8
BF80FD03FC
BF40FD02FC
BF40FD02FC
BF80FD07FC
7FE4FD5FF8
3FFFFFFFF4
1FFFFFFFE0
07FFFFFF40
006FFFE400
0000FD0000
0000FD0000
ENDCHAR
STARTCHAR uni0425
ENCODING 1061
SWIDTH 567 0
DWIDTH 16 0
BBX 16 18 0 0
BITMAP
3FD007FC
2FF00BF4
0FF41FF0
07FC2FD0
03FD3FC0
01FE7F40
00FFFE00
007FFD00
002FF800
003FF800
00BFFD00
00FEFF00
02FDBF80
07F87FC0
0BF42FE0
1FF01FF4
3FD00BF8
7FC007FD
ENDCHAR
STARTCHAR uni0426
ENCODING 1062
SWIDTH 669 0
DWIDTH 19 0
BBX 17 23 2 -5
BITMAP
FF400FF000
FF400FF000
FF400FF000
FF400FF000
FF400FF000
FF400FF000
FF400FF000
FF400FF000
FF400FF000
FF400FF000
FF400FF000
FF400FF000
FF400FF000
FF400FF000
FFFFFFFF40
FFFFFFFF40
FFFFFFFF40
FFFFFFFF40
000000BF40
000000BF40
000000BF40
000000BF00
000000BF00
ENDCHAR
STARTCHAR uni0427
ENCODING 1063
SWIDTH 630 0
DWIDTH 18 0
BBX 15 18 1 0
BITMAP
7F800BF4
7F800BF4
7F800BF4
7F800BF4
7F800BF4
7FC00BF4
3FE40BF4
2FFFFFF4
1FFFFFF4
07FFFFF4
01AFFFF4
00000BF4
00000BF4
00000BF4
00000BF4
00000BF4
00000BF4
00000BF4
ENDCHAR
STARTCHAR uni0428
ENCODING 1064
SWIDTH 910 0
DWIDTH 25 0
BBX 22 18 2 0
BITMAP
FF407F802FD0
FF407F802FD0
FF407F802FD0
FF407F802FD0
FF407F802FD0
FF407F802FD0
FF407F802FD0
FF407F802FD0
FF407F802FD0
FF407F802FD0
FF407F802FD0
FF407F802FD0
FF407F802FD0
FF407F802FD0
FFFFFFFFFFD0
FFFFFFFFFFD0
FFFFFFFFFFD0
FFFFFFFFFFD0
ENDCHAR
STARTCHAR uni0429
ENCODING 1065
SWIDTH 926 0
DWIDTH 26 0
BBX 24 23 2 -5
BITMAP
FF407F802FD0
FF407F802FD0
FF407F802FD0
FF407F802FD0
FF407F802FD0
FF407F802FD0
FF407F802FD0
FF407F802FD0
FF407F802FD0
FF407F802FD0
FF407F802FD0
FF407F802FD0
FF407F802FD0
FF407F802FD0
FFFFFFFFFFFE
FFFFFFFFFFFE
FFFFFFFFFFFE
FFFFFFFFFFFE
0000000001FD
0000000001FD
0000000001FD
0000000001FD
0000000001FD
ENDCHAR
STARTCHAR uni042A
ENCODING 1066
SWIDTH 730 0
DWIDTH 20 0
BBX 20 18 0 0
BITMAP
7FFFF40000
7FFFF40000
7FFFF40000
7FFFF40000
000FF40000
000FF40000
000FFFF900
000FFFFFD0
000FFFFFF4
000FFFFFFC
000FF40BFD
000FF402FD
000FF402FD
000FF40BFD
000FFFFFFC
000FFFFFF4
000FFFFFD0
000FFFFA00
ENDCHAR
STARTCHAR uni042B
ENCODING 1067
SWIDTH 853 0
DWIDTH 24 0
BBX 20 18 2 0
BITMAP
FF400001FE
FF400001FE
FF400001FE
FF400001FE
FF400001FE
FF400001FE
FFFF9001FE
FFFFFD01FE
FFFFFF41FE
FFFFFF81FE
FF41BFC1FE
FF403FD1FE
FF403FD1FE
FF41BFC1FE
FFFFFF81FE
FFFFFF41FE
FFFFFD01FE
FFFF9001FE
ENDCHAR
STARTCHAR uni042C
ENCODING 1068
SWIDTH 600 0
DWIDTH 17 0
BBX 14 18 2 0
BITMAP
FF400000
FF400000
FF400000
FF400000
FF400000
FF400000
FFFFE400
FFFFFE00
FFFFFF80
FFFFFFD0
FF407FE0
FF401FE0
FF401FE0
FF407FE0
FFFFFFD0
FFFFFF80
FFFFFE00
FFFFE400
ENDCHAR
STARTCHAR uni042D
ENCODING 1069
SWIDTH 582 0
DWIDTH 16 0
BBX 14 18 1 0
BITMAP
06FE9000
2FFFF800
BFFFFE00
7FFFFF80
2E01FFC0
00003FD0
00001FE0
02FFFFF0
02FFFFF0
02FFFFF0
00001FF0
00002FE0
14003FE0
7E01FFC0
FFFFFF80
BFFFFE00
2FFFF800
06FE9000
ENDCHAR
STARTCHAR uni042E
ENCODING 1070
SWIDTH 950 0
DWIDTH 27 0
BBX 24 18 2 0
BITMAP
FF4001AFE400
FF400BFFFF40
FF402FFFFFD0
FF407FFFFFF0
FF40FFD06FF4
FF41FF400BF8
FF41FE0007FC
FFFFFE0003FD
FFFFFD0003FD
FFFFFE0003FD
FF42FE0003FD
FF41FF0007FC
FF40FF400FF8
FF40BFD06FF4
FF407FFFFFF0
FF401FFFFFD0
FF4007FFFF40
FF4000AFE400
ENDCHAR
STARTCHAR uni042F
ENCODING 1071
SWIDTH 617 0
DWIDTH 17 0
BBX 15 18 0 0
BITMAP
006FFFFC
02FFFFFC
0BFFFFFC
1FFFFFFC
1FF403FC
1FE003FC
1FE003FC
0FF803FC
0BFFFFFC
02FFFFFC
007FFFFC
00BF83FC
01FF03FC
03FE03FC
07FC03FC
0FF403FC
2FF003FC
7FD003FC
ENDCHAR
STARTCHAR uni0430
ENCODING 1072
SWIDTH 527 0
DWIDTH 15 0
BBX 12 14 1 0
BITMAP
06BF90
2FFFF8
3FFFFD
1E42FE
0000FF
006BFF
0BFFFF
3FFFFF
BFE4FF
BF41FF
BF47FF
BFFFFF
3FFFBF
0BF47F
ENDCHAR
STARTCHAR uni0431
ENCODING 1073
SWIDTH 561 0
DWIDTH 16 0
BBX 14 21 1 0
BITMAP
00000640
0016FF80
00BFFF80
07FFFFC0
0FFFFE40
2FF94000
3FD00000
7F800000
BF5BE400
BFBFFE00
BFFFFF80
BFD0BFC0
BF403FD0
BF002FE0
BF402FE0
7F402FD0
3F803FD0
2FE0BF80
0FFFFF40
07FFFD00
00AFE000
ENDCHAR
STARTCHAR uni0432
ENCODING 1074
SWIDTH 528 0
DWIDTH 15 0
BBX 13 14 1 0
BITMAP
7FFFE400
7FFFFE00
7FFFFF00
7F80FF40
7F80BF00
7FFFFD00
7FFFF800
7FFFFF00
7F80BF80
7F807F80
7F80BF80
7FFFFF40
7FFFFE00
7FFFE400
ENDCHAR
STARTCHAR uni0433
ENCODING 1075
SWIDTH 432 0
DWIDTH 12 0
BBX 11 14 1 0
BITMAP
7FFFF4
7FFFF4
7FFFF4
7FC000
7FC000
7FC000
7FC000
7FC000
7FC000
7FC000
7FC000
7FC000
7FC000
7FC000
ENDCHAR
STARTCHAR uni0434
ENCODING 1076
SWIDTH 584 0
DWIDTH 16 0
BBX 16 18 0 -4
BITMAP
02FFFFE0
02FFFFE0
03FFFFE0
03F81FE0
03F81FE0
07F41FE0
07F41FE0
07F41FE0
0BF01FE0
0FE01FE0
1FD01FE0
BFFFFFFF
BFFFFFFF
BFFFFFFF
BF4000FF
BF4000FF
7F4000FE
7F4000FE
ENDCHAR
STARTCHAR uni0435
ENCODING 1077
SWIDTH 518 0
DWIDTH 15 0
BBX 13 14 1 0
BITMAP
01BF9000
0BFFF800
1FFFFD00
3FD0BF00
BF003F40
BFFFFF40
FFFFFF40
FFFFFF40
FF000000
BF800000
7FE41800
2FFFFD00
0BFFFE00
01BFE400
ENDCHAR
STARTCHAR uni0436
ENCODING 1078
SWIDTH 761 0
DWIDTH 21 0
BBX 21 14 0 0
BITMAP
3E402A406F40
3FE07F41FF40
2FF47F43FF00
2FF87F4BFF00
02FD7F4FF400
00FFFFFFD000
00BFFFFFC000
00FFFFFFD000
02FD7F4FF000
07F87F47F800
0BF47F43FC00
1FE07F42FE00
3FD07F40FF40
BF807F40BF80
ENDCHAR
STARTCHAR uni0437
ENCODING 1079
SWIDTH 476 0
DWIDTH 13 0
BBX 12 14 1 0
BITMAP
1BFE40
BFFFE0
7FFFF8
2407F8
0007F8
03FFE0
03FFD0
03FFF8
0007FD
0002FD
3907FD
BFFFF8
BFFFE0
1BFE40
ENDCHAR
STARTCHAR uni0438
ENCODING 1080
SWIDTH 583 0
DWIDTH 16 0
BBX 14 14 1 0
BITMAP
7F802FE0
7F807FE0
7F80BFE0
7F81FFE0
7F83FFE0
7F8BEFE0
7F9FDFE0
7FAF9FE0
7FBF1FE0
7FFD1FE0
7FF81FE0
7FF01FE0
7FD01FE0
7FC01FE0
ENDCHAR
STARTCHAR uni0439
ENCODING 1081
SWIDTH 583 0
DWIDTH 16 0
BBX 14 20 1 0
BITMAP
07E07F00
07F4BE00
02FFFD00
006FE400
00000000
00000000
7F802FE0
7F807FE0
7F80BFE0
7F81FFE0
7F83FFE0
7F8BEFE0
7F9FDFE0
7FAF9FE0
7FBF1FE0
7FFD1FE0
7FF81FE0
7FF01FE0
7FD01FE0
7FC01FE0
ENDCHAR
STARTCHAR uni043A
ENCODING 1082
SWIDTH 546 0
DWIDTH 15 0
BBX 14 14 1 0
BITMAP
2A801BC0
7FC0BFC0
7FC1FF80
7FC3FF80
7FC7F800
7FFFF000
7FFFE000
7FFFF000
7FC7F800
7FC2FD00
7FC1FF00
7FC0BF80
7FC07FD0
7FC02FE0
ENDCHAR
STARTCHAR uni043B
ENCODING 1083
SWIDTH 573 0
DWIDTH 16 0
BBX 15 14 0 0
BITMAP
00FFFFF4
01FFFFF4
01FFFFF4
01FD0FF4
02FC0FF4
02FC0FF4
02F80FF4
03F80FF4
03F80FF4
0BF40FF4
7FF40FF4
7FE00FF4
BFD00FF4
BE400AA0
ENDCHAR
STARTCHAR uni043C
ENCODING 1084
SWIDTH 660 0
DWIDTH 18 0
BBX 16 14 1 0
BITMAP
7FE007FE
7FF00BFE
7FF40FFE
7FF81FFE
7FFC2FFE
7FBD3FBE
7F7E3EBE
7F6FBDBE
7F5FFCFE
7F4FF8FE
7F4BF4FE
7F47E0FE
7F4290FE
7F4000FE
ENDCHAR
STARTCHAR uni043D
ENCODING 1085
SWIDTH 582 0
DWIDTH 16 0
BBX 14 14 1 0
BITMAP
7FC02FE0
7FC02FE0
7FC02FE0
7FC02FE0
7FC02FE0
7FFFFFE0
7FFFFFE0
7FFFFFE0
7FFFFFE0
7FC02FE0
7FC02FE0
7FC02FE0
7FC02FE0
7FC02FE0
ENDCHAR
STARTCHAR uni043E
ENCODING 1086
SWIDTH 555 0
DWIDTH 16 0
BBX 14 14 1 0
BITMAP
01BF9000
0BFFFD00
2FFFFF00
3FD0BF80
BF803FC0
FF403FD0
FF402FD0
FF402FD0
FF403FD0
BF803FC0
7FD0BF80
2FFFFF00
0BFFFD00
01BF9000
ENDCHAR
STARTCHAR uni043F
ENCODING 1087
SWIDTH 574 0
DWIDTH 16 0
BBX 14 14 1 0
BITMAP
7FFFFFD0
7FFFFFD0
7FFFFFD0
7FC03FD0
7FC03FD0
7FC03FD0
7FC03FD0
7FC03FD0
7FC03FD0
7FC03FD0
7FC03FD0
7FC03FD0
7FC03FD0
7FC03FD0
ENDCHAR
STARTCHAR uni0440
ENCODING 1088
SWIDTH 573 0
DWIDTH 16 0
BBX 14 20 1 -6
BITMAP
7F4BF800
7FBFFF40
7FFFFFC0
7FF47FD0
7FC02FE0
7FC01FF0
7FC01FF0
7FC01FF0
7FC01FE0
7FC02FE0
7FE0BFC0
7FFFFF80
7FFFFE00
7FCBE400
7FC00000
7FC00000
7FC00000
7FC00000
7FC00000
7FC00000
ENDCHAR
STARTCHAR uni0441
ENCODING 1089
SWIDTH 467 0
DWIDTH 13 0
BBX 12 14 1 0
BITMAP
00AFE0
07FFFC
1FFFF4
3FE060
BFC000
BF4000
FF4000
FF4000
FF4000
BFC000
7FE064
2FFFF8
0BFFFD
01BFA0
ENDCHAR
STARTCHAR uni0442
ENCODING 1090
SWIDTH 492 0
DWIDTH 14 0
BBX 13 14 0 0
BITMAP
7FFFFFC0
7FFFFFC0
7FFFFFC0
007FC000
007FC000
007FC000
007FC000
007FC000
007FC000
007FC000
007FC000
007FC000
007FC000
007FC000
ENDCHAR
STARTCHAR uni0443
ENCODING 1091
SWIDTH 521 0
DWIDTH 15 0
BBX 14 20 0 -6
BITMAP
7F800FF0
3FC00FE0
2FD01FD0
1FE02FC0
0FF03F80
0BF47F40
07F87F00
02FCBE00
01FCFD00
00FEFC00
00BFF800
007FF400
003FF000
002FE000
001FD000
002FC000
00BF8000
0FFF0000
1FFD0000
1FE00000
ENDCHAR
STARTCHAR uni0444
ENCODING 1092
SWIDTH 779 0
DWIDTH 22 0
BBX 20 26 1 -6
BITMAP
0000FF0000
0000FF0000
0000FF0000
0000FF0000
0000FF0000
0000FF0000
01FEFF6F80
0BFFFFFFF0
2FFFFFFFF8
7FD1FF47FC
BF80FE03FD
BF40FE02FE
FF40FE02FE
FF40FE02FE
BF40FE02FE
BF80FE03FD
7FD1FF4BFC
2FFFFFFFF4
1FFFFFFFE0
02F9FFBE40
0000FF0000
0000FF0000
0000FF0000
0000FF0000
0000FF0000
0000FF0000
ENDCHAR
STARTCHAR uni0445
ENCODING 1093
SWIDTH 514 0
DWIDTH 14 0
BBX 14 14 0 0
BITMAP
3FD02FD0
1FF03FC0
0FF4BF40
07FCFE00
02FEFD00
00FFF800
00BFF000
00BFF000
01FFF800
03FBFD00
0BF5FE00
1FE0FF40
2FD07FC0
7FC02FE0
ENDCHAR
STARTCHAR uni0446
ENCODING 1094
SWIDTH 595 0
DWIDTH 17 0
BBX 16 18 1 -4
BITMAP
7FC03FC0
7FC03FC0
7FC03FC0
7FC03FC0
7FC03FC0
7FC03FC0
7FC03FC0
7FC03FC0
7FC03FC0
7FC03FC0
7FC03FC0
7FFFFFFD
7FFFFFFD
7FFFFFFD
000002FD
000002FC
000002FC
000002FC
ENDCHAR
STARTCHAR uni0447
ENCODING 1095
SWIDTH 550 0
DWIDTH 15 0
BBX 13 14 1 0
BITMAP
BF40BF80
BF40BF80
BF40BF80
BF40BF80
BF80BF80
7FD0BF80
3FFFFF80
1FFFFF80
06FFFF80
0000BF80
0000BF80
0000BF80
0000BF80
0000BF80
ENDCHAR
STARTCHAR uni0448
ENCODING 1096
SWIDTH 803 0
DWIDTH 22 0
BBX 20 14 1 0
BITMAP
7FC0BF41FE
7FC0BF41FE
7FC0BF41FE
7FC0BF41FE
7FC0BF41FE
7FC0BF41FE
7FC0BF41FE
7FC0BF41FE
7FC0BF41FE
7FC0BF41FE
7FC0BF41FE
7FFFFFFFFE
7FFFFFFFFE
7FFFFFFFFE
ENDCHAR
STARTCHAR uni0449
ENCODING 1097
SWIDTH 829 0
DWIDTH 23 0
BBX 22 18 1 -4
BITMAP
7FC0BF41FE00
7FC0BF41FE00
7FC0BF41FE00
7FC0BF41FE00
7FC0BF41FE00
7FC0BF41FE00
7FC0BF41FE00
7FC0BF41FE00
7FC0BF41FE00
7FC0BF41FE00
7FC0BF41FE00
7FFFFFFFFFF0
7FFFFFFFFFF0
7FFFFFFFFFF0
000000000FE0
000000000FE0
000000000FE0
000000000FE0
ENDCHAR
STARTCHAR uni044A
ENCODING 1098
SWIDTH 623 0
DWIDTH 17 0
BBX 17 14 0 0
BITMAP
7FFFC00000
7FFFC00000
7FFFC00000
003FC00000
003FC00000
003FFFA000
003FFFFD00
003FFFFF00
003FC1FF40
003FC0BF40
003FC1FF40
003FFFFF00
003FFFFD00
003FFFA000
ENDCHAR
STARTCHAR uni044B
ENCODING 1099
SWIDTH 739 0
DWIDTH 21 0
BBX 18 14 1 0
BITMAP
7FC0001FF0
7FC0001FF0
7FC0001FF0
7FC0001FF0
7FC0001FF0
7FFF901FF0
7FFFF81FF0
7FFFFD1FF0
7FC2FE1FF0
7FC0FF1FF0
7FC2FE1FF0
7FFFFD1FF0
7FFFF81FF0
7FFF901FF0
ENDCHAR
STARTCHAR uni044C
ENCODING 1100
SWIDTH 516 0
DWIDTH 14 0
BBX 13 14 1 0
BITMAP
7FC00000
7FC00000
7FC00000
7FC00000
7FC00000
7FFFA000
7FFFFD00
7FFFFF00
7FC1FF40
7FC0BF40
7FC1FF40
7FFFFF00
7FFFFD00
7FFFA000
ENDCHAR
STARTCHAR uni044D
ENCODING 1101
SWIDTH 467 0
DWIDTH 13 0
BBX 12 14 0 0
BITMAP
06FE40
3FFFE0
1FFFF8
0907FD
0000FE
02FFFF
02FFFF
02FFFF
0000FF
0001FE
1907FD
2FFFF8
7FFFE0
0AFE40
ENDCHAR
STARTCHAR uni044E
ENCODING 1102
SWIDTH 776 0
DWIDTH 22 0
BBX 20 14 1 0
BITMAP
7FC006FE40
7FC02FFFD0
7FC0BFFFF4
7FC1FE0BFC
7FC2FD03FD
7FFFFC02FE
7FFFF802FE
7FFFF802FE
7FFFFC02FE
7FC2FD03FD
7FC1FE0BFC
7FC0FFFFF4
7FC03FFFD0
7FC006FE40
ENDCHAR
STARTCHAR uni044F
ENCODING 1103
SWIDTH 544 0
DWIDTH 15 0
BBX 14 14 0 0
BITMAP
00AFFFD0
03FFFFD0
0BFFFFD0
0FF42FD0
1FF02FD0
1FF02FD0
0FF82FD0
0BFFFFD0
02FFFFD0
01FFFFD0
03FD2FD0
0BF82FD0
1FF02FD0
7FD02FD0
ENDCHAR
STARTCHAR uni0450
ENCODING 1104
SWIDTH 518 0
DWIDTH 15 0
BBX 13 23 1 0
BITMAP
02400000
0BD00000
1FF40000
0BFC0000
02FE0000
007E0000
00180000
00000000
00000000
01BF9000
0BFFF800
1FFFFD00
3FD0BF00
BF003F40
BFFFFF40
FFFFFF40
FFFFFF40
FF000000
BF800000
7FE41800
2FFFFD00
0BFFFE00
01BFE400
ENDCHAR
STARTCHAR uni0451
ENCODING 1105
SWIDTH 518 0
DWIDTH 15 0
BBX 13 20 1 0
BITMAP
0B80B800
1FD1FE00
1FD1FE00
0B80B800
00000000
00000000
01BF9000
0BFFF800
1FFFFD00
3FD0BF00
BF003F40
BFFFFF40
FFFFFF40
FFFFFF40
FF000000
BF800000
7FE41800
2FFFFD00
0BFFFE00
01BFE400
ENDCHAR
STARTCHAR uni0452
ENCODING 1106
SWIDTH 572 0
DWIDTH 16 0
BBX 15 26 0 -6
BITMAP
1FF00000
1FF00000
FFFFF800
FFFFF800
1FF00000
1FF00000
1FF00000
1FF1BE00
1FEBFFD0
1FFFFFF0
1FFD1FF4
1FF40BF8
1FF007F8
1FF007FC
1FF007FC
1FF007FC
1FF007FC
1FF007FC
1FF007F8
1FF00BF8
00000BF4
00000FF0
00002FE0
0007FFD0
0007FF40
0007F900
ENDCHAR
STARTCHAR uni0453
ENCODING 1107
SWIDTH 432 0
DWIDTH 12 0
BBX 11 23 1 0
BITMAP
000080
0003E0
000BF8
002FF4
007FC0
007E00
001800
000000
000000
7FFFF4
7FFFF4
7FFFF4
7FC000
7FC000
7FC000
7FC000
7FC000
7FC000
7FC000
7FC000
7FC000
7FC000
7FC000
ENDCHAR
STARTCHAR uni0454
ENCODING 1108
SWIDTH 467 0
DWIDTH 13 0
BBX 12 14 1 0
BITMAP
00AFE0
07FFFC
2FFFF8
7FD060
BF4000
FFFF80
FFFF80
FFFF80
FF0000
BF4000
7FD064
2FFFFC
0BFFFD
01BFA0
ENDCHAR
STARTCHAR uni0455
ENCODING 1109
SWIDTH 443 0
DWIDTH 12 0
BBX 11 14 1 0
BITMAP
06FE40
2FFFF4
7FFFF0
BF41D0
BF4000
7FE400
2FFF80
07FFE0
006FF4
1007F8
790BF8
FFFFF4
BFFFD0
1BFE40
ENDCHAR
STARTCHAR uni0456
ENCODING 1110
SWIDTH 276 0
DWIDTH 8 0
BBX 6 21 1 0
BITMAP
0500
3F80
7FD0
7FC0
2F40
0000
0000
7FC0
7FC0
7FC0
7FC0
7FC0
7FC0
7FC0
7FC0
7FC0
7FC0
7FC0
7FC0
7FC0
7FC0
ENDCHAR
STARTCHAR uni0457
ENCODING 1111
SWIDTH 276 0
DWIDTH 8 0
BBX 10 20 -1 0
BITMAP
7D07D0
FE0FE0
FE0FE0
7D07D0
000000
000000
07FC00
07FC00
07FC00
07FC00
07FC00
07FC00
07FC00
07FC00
07FC00
07FC00
07FC00
07FC00
07FC00
07FC00
ENDCHAR
STARTCHAR uni0458
ENCODING 1112
SWIDTH 278 0
DWIDTH 8 0
BBX 9 27 -2 -6
BITMAP
001400
00BE00
01FF40
01FF00
00BD00
000000
000000
00FF00
00FF00
00FF00
00FF00
00FF00
00FF00
00FF00
00FF00
00FF00
00FF00
00FF00
00FF00
00FF00
00FF00
00FF00
01FE00
02FE00
3FFD00
3FF800
7F9000
ENDCHAR
STARTCHAR uni0459
ENCODING 1113
SWIDTH 780 0
DWIDTH 22 0
BBX 21 14 0 0
BITMAP
01FFFFE00000
01FFFFE00000
01FFFFE00000
01FD1FE00000
01FD1FE00000
02FC1FFFE400
02FC1FFFFE00
03FC1FFFFF40
03F81FE0BF80
0BF81FE03F80
7FF41FE0BF80
7FF01FFFFF40
BFD01FFFFE00
BE401FFFE400
ENDCHAR
STARTCHAR uni045A
ENCODING 1114
SWIDTH 788 0
DWIDTH 22 0
BBX 20 14 1 0
BITMAP
7FC03FC000
7FC03FC000
7FC03FC000
7FC03FC000
7FC03FC000
7FFFFFFF90
7FFFFFFFF8
7FFFFFFFFE
7FFFFFC1FF
7FC03FC0FF
7FC03FC1FF
7FC03FFFFE
7FC03FFFF8
7FC03FFF90
ENDCHAR
STARTCHAR uni045B
ENCODING 1115
SWIDTH 571 0
DWIDTH 16 0
BBX 15 20 0 0
BITMAP
1FF00000
1FF00000
FFFFF800
FFFFF800
FFFFF800
1FF00000
1FF00000
1FF01400
1FE2FF80
1FFFFFE0
1FFFBFF0
1FF80FF4
1FF00FF4
1FF00BF4
1FF00BF4
1FF00BF4
1FF00BF4
1FF00BF4
1FF00BF4
1FF00BF4
ENDCHAR
STARTCHAR uni045C
ENCODING 1116
SWIDTH 546 0
DWIDTH 15 0
BBX 14 23 1 0
BITMAP
00002400
00007D00
0001FF40
0007FE00
000FF400
000FD000
00024000
00000000
00000000
2A801BC0
7FC0BFC0
7FC1FF80
7FC3FF80
7FC7F800
7FFFF000
7FFFE000
7FFFF000
7FC7F800
7FC2FD00
7FC1FF00
7FC0BF80
7FC07FD0
7FC02FE0
ENDCHAR
STARTCHAR uni045D
ENCODING 1117
SWIDTH 583 0
DWIDTH 16 0
BBX 14 23 1 0
BITMAP
00900000
02F00000
0BF80000
07FE0000
00BF8000
002F8000
000A0000
00000000
00000000
7F802FE0
7F807FE0
7F80BFE0
7F81FFE0
7F83FFE0
7F8BEFE0
7F9FDFE0
7FAF9FE0
7FBF1FE0
7FFD1FE0
7FF81FE0
7FF01FE0
7FD01FE0
7FC01FE0
ENDCHAR
STARTCHAR uni045E
ENCODING 1118
SWIDTH 521 0
DWIDTH 15 0
BBX 14 26 0 -6
BITMAP
07F03F40
03F47F00
02FFFD00
006FE400
00000000
00000000
7F800FF0
3FC00FE0
2FD01FD0
1FE02FC0
0FF03F80
0BF47F40
07F87F00
02FCBE00
01FCFD00
00FEFC00
00BFF800
007FF400
003FF000
002FE000
001FD000
002FC000
00BF8000
0FFF0000
1FFD0000
1FE00000
ENDCHAR
STARTCHAR uni045F
ENCODING 1119
SWIDTH 578 0
DWIDTH 16 0
BBX 14 18 1 -4
BITMAP
7FC02FD0
7FC02FD0
7FC02FD0
7FC02FD0
7FC02FD0
7FC02FD0
7FC02FD0
7FC02FD0
7FC02FD0
7FC02FD0
7FC02FD0
7FFFFFD0
7FFFFFD0
7FFFFFD0
003FC000
003FC000
003FC000
002F8000
ENDCHAR
STARTCHAR uni0462
ENCODING 1122
SWIDTH 624 0
DWIDTH 17 0
BBX 17 20 0 0
BITMAP
00AA000000
00FF400000
00FF400000
7FFFFFF400
7FFFFFF400
7FFFFFF400
00FF400000
00FF400000
00FF400000
00FFFE9000
00FFFFF800
00FFFFFE00
00FF41FF40
00FF40BF40
00FF40BF40
00FF41FF40
00FFFFFF00
00FFFFFE00
00FFFFF800
00FFFE9000
ENDCHAR
STARTCHAR uni0463
ENCODING 1123
SWIDTH 600 0
DWIDTH 17 0
BBX 16 18 0 0
BITMAP
00554000
00BF4000
00BF4000
7FFFFFC0
7FFFFFC0
7FFFFFC0
00BF4000
00BF4000
00BF4000
00BFFF90
00BFFFF8
00BFFFFD
00BF42FE
00BF41FE
00BF42FE
00BFFFFD
00BFFFF8
00BFFF90
ENDCHAR
STARTCHAR uni0472
ENCODING 1138
SWIDTH 684 0
DWIDTH 19 0
BBX 17 18 1 0
BITMAP
001BFA0000
01FFFFE000
0BFFFFF800
1FFFFFFD00
3FF407FF00
7FD000FF40
7F8000BF80
BFFFFFFF80
BFFFFFFF80
BFFFFFFF80
BF80007F80
7FC000BF80
7FD001FF40
2FF807FF00
1FFFFFFD00
07FFFFF800
01FFFFE000
001BFA0000
ENDCHAR
STARTCHAR uni0473
ENCODING 1139
SWIDTH 555 0
DWIDTH 16 0
BBX 14 14 1 0
BITMAP
01BF9000
0BFFFD00
2FFFFF00
7FD07F80
BF402FC0
FFFFFFD0
FFFFFFD0
FFFFFFD0
FF002FD0
BF403FC0
7FD0BF80
2FFFFF00
0BFFFD00
01BF9000
ENDCHAR
STARTCHAR uni0474
ENCODING 1140
SWIDTH 574 0
DWIDTH 16 0
BBX 17 18 0 0
BITMAP
FF40006F80
BF8001FF80
7F8003FF80
3FC007FF40
2FD00BF800
2FE00FF000
1FF01FE000
0FF02FD000
0BF42FC000
07F83FC000
03FC7F8000
02FC7F4000
01FDBF0000
00FEFE0000
00BFFD0000
007FFC0000
003FFC0000
003FF80000
ENDCHAR
STARTCHAR uni0475
ENCODING 1141
SWIDTH 533 0
DWIDTH 15 0
BBX 16 14 0 0
BITMAP
7F8002FD
3FC00BFD
2FC01FFC
1FD02FFC
0FE03FC0
0BF07F40
07F4BF00
03F4BF00
02F8FE00
01FDFD00
00FEFC00
00BFF800
007FF400
003FF000
ENDCHAR
STARTCHAR uni0490
ENCODING 1168
SWIDTH 521 0
DWIDTH 15 0
BBX 12 24 2 0
BITMAP
0000BF
0000BF
0000BF
0000FF
0000FE
0000FE
FFFFFE
FFFFFE
FFFFFE
FFFFFE
FF4000
FF4000
FF4000
FF4000
FF4000
FF4000
FF4000
FF4000
FF4000
FF4000
FF4000
FF4000
FF4000
FF4000
ENDCHAR
STARTCHAR uni0491
ENCODING 1169
SWIDTH 433 0
DWIDTH 12 0
BBX 11 19 1 0
BITMAP
0002A8
0003F8
0003F8
0003F8
0007F8
7FFFF4
7FFFF4
7FFFF4
7FC000
7FC000
7FC000
7FC000
7FC000
7FC000
7FC000
7FC000
7FC000
7FC000
7FC000
ENDCHAR
STARTCHAR uni0492
ENCODING 1170
SWIDTH 546 0
DWIDTH 15 0
BBX 15 18 0 0
BITMAP
03FFFFF4
03FFFFF4
03FFFFF4
03FFFFF4
03FC0000
03FC0000
07FC0000
7FFFF400
7FFFF400
7FFFF400
03FC0000
03FC0000
03FC0000
03FC0000
03FC0000
03FC0000
03FC0000
03FC0000
ENDCHAR
STARTCHAR uni0493
ENCODING 1171
SWIDTH 457 0
DWIDTH 13 0
BBX 12 14 0 0
BITMAP
07FFFF
07FFFF
07FFFF
07F800
07F800
07F800
07F800
7FFFF0
7FFFF0
7FFFF0
07F800
07F800
07F800
07F800
ENDCHAR
STARTCHAR uni0496
ENCODING 1174
SWIDTH 905 0
DWIDTH 25 0
BBX 25 23 0 -5
BITMAP
BE400BF000BF00
BFD00BF007FE00
7FF40BF00FFE00
3FF80BF02FFD00
03FD0BF03FD000
01FE0BF0BF4000
00BF4BF0FF0000
003FFFFFFD0000
003FFFFFFC0000
007FFFFFFE0000
00FF0BF0BF4000
01FE0BF07F8000
03FC0BF02FD000
0BF80BF01FF000
0FF00BF00FFFC0
2FE00BF007FFC0
3FD00BF003FFC0
BF800BF001FFC0
00000000003FC0
00000000003FC0
00000000003F80
00000000003F80
00000000003F80
ENDCHAR
STARTCHAR uni0497
ENCODING 1175
SWIDTH 803 0
DWIDTH 22 0
BBX 23 18 0 -4
BITMAP
3E407F406F40
3FE07F41FF40
2FF47F43FF00
2FF87F4BFF00
02FD7F4FF400
00FFFFFFD000
00BFFFFFC000
00FFFFFFD000
02FD7F4FE000
07F87F47F400
0BF47F43FC00
1FE07F42FFF4
3FD07F40FFF4
BF807F40BFF0
000000000BF0
000000000BF0
000000000BF0
000000000BE0
ENDCHAR
STARTCHAR uni0498
ENCODING 1176
SWIDTH 564 0
DWIDTH 16 0
BBX 14 23 1 -5
BITMAP
01BFE400
1FFFFE00
7FFFFF40
2FFFFFC0
0F40BFC0
04003FC0
0000BF80
00FFFE00
00FFFD00
00FFFF80
00006FD0
00001FE0
08001FF0
2E407FE0
BFFFFFD0
BFFFFFC0
2FFFFE00
02FFE400
003FC000
003FC000
003FC000
003F8000
003F8000
ENDCHAR
STARTCHAR uni0499
ENCODING 1177
SWIDTH 476 0
DWIDTH 13 0
BBX 12 18 1 -4
BITMAP
1BFE40
BFFFE0
7FFFF8
2407F8
0007F8
03FFF4
03FFD0
03FFF4
0007FC
0002FD
3907FD
BFFFFC
FFFFF4
1BFF40
02FD00
02FD00
01FD00
01FC00
ENDCHAR
STARTCHAR uni049A
ENCODING 1178
SWIDTH 667 0
DWIDTH 19 0
BBX 17 23 2 -5
BITMAP
FF4002F800
FF401FF800
FF403FF800
FF40BFF400
FF41FF4000
FF42FD0000
FF47F80000
FFFFF00000
FFFFE00000
FFFFF40000
FF47FC0000
FF42FE0000
FF41FF4000
FF40BFC000
FF403FFF40
FF401FFF40
FF400BFF40
FF4007FF40
000000BF40
000000BF00
000000BF00
000000BF00
000000BF00
ENDCHAR
STARTCHAR uni049B
ENCODING 1179
SWIDTH 588 0
DWIDTH 16 0
BBX 15 18 1 -4
BITMAP
7FC01BC0
7FC0BFC0
7FC1FF80
7FC3FF80
7FC7F800
7FFFF000
7FFFE000
7FFFF000
7FC7F800
7FC2FD00
7FC1FE00
7FC0BFFC
7FC07FFC
7FC02FFC
000002FC
000002FC
000002FC
000002F8
ENDCHAR
STARTCHAR uni04A0
ENCODING 1184
SWIDTH 749 0
DWIDTH 21 0
BBX 21 18 0 0
BITMAP
7FFFF0006F40
7FFFF002FF40
7FFFF007FF00
7FFFF00FFF00
001FF02FE000
001FF07FC000
001FF0BF4000
001FFFFE0000
001FFFFD0000
001FFFFE0000
001FF0BF4000
001FF07FC000
001FF02FE000
001FF00FF400
001FF007FC00
001FF002FE00
001FF000FF40
001AA0006A80
ENDCHAR
STARTCHAR uni04A1
ENCODING 1185
SWIDTH 656 0
DWIDTH 18 0
BBX 18 14 0 0
BITMAP
7FFFC01BC0
7FFFC0BFC0
7FFFC1FF80
003FC2FF80
003FC7F800
003FFFF000
003FFFE000
003FFFF400
003FC7F800
003FC2FD00
003FC1FF00
003FC0BF80
003FC03FD0
003FC02FF0
ENDCHAR
STARTCHAR uni04A2
ENCODING 1186
SWIDTH 689 0
DWIDTH 19 0
BBX 17 23 2 -5
BITMAP
FF4007F800
FF4007F800
FF4007F800
FF4007F800
FF4007F800
FF4007F800
FF4007F800
FFFFFFF800
FFFFFFF800
FFFFFFF800
FF4007F800
FF4007F800
FF4007F800
FF4007F800
FF4007FFC0
FF4007FFC0
FF4007FFC0
FF4007FFC0
0000003F80
0000003F80
0000003F80
0000003F80
0000003F80
ENDCHAR
STARTCHAR uni04A3
ENCODING 1187
SWIDTH 608 0
DWIDTH 17 0
BBX 15 18 2 -4
BITMAP
FF00BF80
FF00BF80
FF00BF80
FF00BF80
FF00BF80
FFFFFF80
FFFFFF80
FFFFFF80
FFFFFF80
FF00BF80
FF00BF80
FF00BFF8
FF00BFF8
FF00BFF8
000007F8
000007F8
000007F4
000007F4
ENDCHAR
STARTCHAR uni04AA
ENCODING 1194
SWIDTH 582 0
DWIDTH 16 0
BBX 15 23 1 -5
BITMAP
001BF900
00BFFFD0
07FFFFF0
0FFFFFE0
2FF907C0
3FE00000
7FC00000
BF800000
BF800000
BF800000
BF800000
7FC00000
7FE00040
2FF907D0
1FFFFFF4
0BFFFFF4
01FFFFD0
002FFE00
0007F800
0007F800
0007F800
0007F800
0007F800
ENDCHAR
STARTCHAR uni04AB
ENCODING 1195
SWIDTH 467 0
DWIDTH 13 0
BBX 12 18 1 -4
BITMAP
006FE0
07FFFC
1FFFF4
3FE060
BFC000
BF4000
FF4000
FF4000
FF4000
BFC000
7FE060
2FFFF8
0BFFFD
01FFE4
007F80
007F80
003F80
003F40
ENDCHAR
STARTCHAR uni04AE
ENCODING 1198
SWIDTH 525 0
DWIDTH 15 0
BBX 15 18 0 0
BITMAP
FF400BF8
BF800FF4
3FD01FE0
2FE02FD0
0FF07F80
0BF4BF40
03F8FE00
02FDFD00
01FFFC00
00BFF400
007FF000
002FD000
002FD000
002FD000
002FD000
002FD000
002FD000
002FD000
ENDCHAR
STARTCHAR uni04AF
ENCODING 1199
SWIDTH 523 0
DWIDTH 15 0
BBX 14 20 0 -6
BITMAP
7F800BF0
3FC00FE0
2FD01FD0
1FD02FC0
0FE03F80
0BF03F40
07F47F00
03F8BE00
02F8FD00
01FDFC00
00FEF800
00BFF400
007FF000
003FE000
002FD000
002FD000
002FD000
002FD000
002FD000
002FD000
ENDCHAR
STARTCHAR uni04B0
ENCODING 1200
SWIDTH 525 0
DWIDTH 15 0
BBX 15 18 0 0
BITMAP
FF400BF8
7F800FF4
3FD01FE0
2FE02FD0
0FF07F80
0BF4BF40
03F8FE00
02FDFD00
00FFF800
00BFF400
2FFFFFD0
2FFFFFD0
2FFFFFD0
002FD000
002FD000
002FD000
002FD000
002FD000
ENDCHAR
STARTCHAR uni04B1
ENCODING 1201
SWIDTH 523 0
DWIDTH 15 0
BBX 14 20 0 -6
BITMAP
7F800BF0
3FC00FE0
2FD01FD0
1FD02FC0
0FE03F80
0BF03F40
07F47F00
03F8BE00
02F8FD00
01FDFC00
00FEF800
00BFF400
2FFFFFD0
2FFFFFD0
002FD000
002FD000
002FD000
002FD000
002FD000
002FD000
ENDCHAR
STARTCHAR uni04B2
ENCODING 1202
SWIDTH 605 0
DWIDTH 17 0
BBX 17 23 0 -5
BITMAP
3FD007FC00
2FF00BF400
0FF41FF000
07FC2FD000
03FD3FC000
01FE7F4000
00BFFE0000
007FFD0000
002FF80000
003FFC0000
00BFFE0000
01FEFF0000
02FDBF8000
07F87FD000
0BF42FFF80
1FF01FFF80
3FD00BFF80
7FC007FF80
0000007F40
0000007F40
0000007F40
0000007F40
0000007F40
ENDCHAR
STARTCHAR uni04B3
ENCODING 1203
SWIDTH 548 0
DWIDTH 15 0
BBX 15 18 0 -4
BITMAP
3FD02FD0
1FF03FC0
0FF4BF40
07FCFE00
02FEFD00
00FFF800
00BFF000
00BFF000
01FFF400
03FBFC00
0BF5FE00
1FE0FFFC
2FD07FFC
7FC02FFC
000003FC
000003FC
000003F8
000003F8
ENDCHAR
STARTCHAR uni04B6
ENCODING 1206
SWIDTH 645 0
DWIDTH 18 0
BBX 17 23 1 -5
BITMAP
7F800BF400
7F800BF400
7F800BF400
7F800BF400
7F800BF400
7FC00BF400
3FE40BF400
2FFFFFF400
1FFFFFF400
07FFFFF400
01AFFFF400
00000BF400
00000BF400
00000BF400
00000BFF80
00000BFF80
00000BFF80
00000BFF80
0000007F80
0000007F80
0000007F40
0000007F40
0000007F40
ENDCHAR
STARTCHAR uni04B7
ENCODING 1207
SWIDTH 575 0
DWIDTH 16 0
BBX 15 19 1 -5
BITMAP
BF40BF80
BF40BF80
BF40BF80
BF40BF80
BF80BF80
7FD0BF80
3FFFFF80
1FFFFF80
06FFFF80
0000BF80
0000BF80
0000BFF8
0000BFF8
0000BFF8
000003F8
000003F8
000003F8
000003F8
000003F4
ENDCHAR
STARTCHAR uni04BA
ENCODING 1210
SWIDTH 630 0
DWIDTH 18 0
BBX 14 18 2 0
BITMAP
FF400000
FF400000
FF400000
FF400000
FF400000
FF400000
FFFFE400
FFFFFF00
FFFFFFC0
FFFFFFD0
FF407FE0
FF401FF0
FF400FF0
FF400FF0
FF400FF0
FF400FF0
FF400FF0
FF400FF0
ENDCHAR
STARTCHAR uni04BB
ENCODING 1211
SWIDTH 571 0
DWIDTH 16 0
BBX 14 20 1 0
BITMAP
7FC00000
7FC00000
7FC00000
7FC00000
7FC00000
7FC00000
7FC6F900
7FAFFF40
7FFFFF80
7FF47FC0
7FD03FD0
7FC02FD0
7FC02FD0
7FC02FD0
7FC02FD0
7FC02FD0
7FC02FD0
7FC02FD0
7FC02FD0
7FC02FD0
ENDCHAR
STARTCHAR uni04C0
ENCODING 1216
SWIDTH 301 0
DWIDTH 8 0
BBX 5 18 2 0
BITMAP
FF40
FF40
FF40
FF40
FF40
FF40
FF40
FF40
FF40
FF40
FF40
FF40
FF40
FF40
FF40
FF40
FF40
FF40
ENDCHAR
STARTCHAR uni04C1
ENCODING 1217
SWIDTH 868 0
DWIDTH 24 0
BBX 24 24 0 0
BITMAP
0002F81FC000
0002FD2F8000
0000FFFF4000
00002FF90000
000000000000
000000000000
BE400BF000BF
BFD00BF007FE
7FF40BF00FFE
3FF80BF02FFD
03FD0BF03FD0
01FE0BF0BF40
00BF4BF0FF00
003FFFFFFD00
003FFFFFFC00
007FFFFFFE00
00FF0BF0BF00
01FE0BF07F80
03FC0BF02FD0
0BF80BF01FE0
0FF00BF00FF4
2FE00BF007FC
3FD00BF003FD
BF800BF001FF
ENDCHAR
STARTCHAR uni04C2
ENCODING 1218
SWIDTH 761 0
DWIDTH 21 0
BBX 21 20 0 0
BITMAP
000FC0BD0000
000FE1FC0000
0007FFF80000
0001BF900000
000000000000
000000000000
3E402A406F40
3FE07F41FF40
2FF47F43FF00
2FF87F4BFF00
02FD7F4FF400
00FFFFFFD000
00BFFFFFC000
00FFFFFFD000
02FD7F4FF000
07F87F47F800
0BF47F43FC00
1FE07F42FE00
3FD07F40FF40
BF807F40BF80
ENDCHAR
STARTCHAR uni04CF
ENCODING 1231
SWIDTH 286 0
DWIDTH 8 0
BBX 7 20 1 0
BITMAP
7FC0
7FC0
7FC0
7FC0
7FC0
7FC0
7FC0
7FC0
7FC0
7FC0
7FC0
7FC0
7FC0
7FC0
7FC0
3FC0
3FC0
3FF4
1FF4
07F4
ENDCHAR
STARTCHAR uni04D0
ENCODING 1232
SWIDTH 573 0
DWIDTH 16 0
BBX 16 24 0 0
BITMAP
03F82FC0
02FC3F80
00FFFF00
002FF800
00000000
00000000
002FF800
003FFC00
007FFD00
00BEFE00
00FEBF00
01FD7F40
02FC7F80
03FC3FC0
03F82FD0
07F41FE0
0BF01FF0
0FFFFFF0
1FFFFFF4
2FFFFFF8
3FC003FC
7F8003FD
BF4002FE
FF4001FF
ENDCHAR
STARTCHAR uni04D1
ENCODING 1233
SWIDTH 527 0
DWIDTH 15 0
BBX 12 20 1 0
BITMAP
0FC0BD
0BE1FD
07FFF8
01BF90
000000
000000
06BF90
2FFFF8
3FFFFD
1E42FE
0000FF
006BFF
0BFFFF
3FFFFF
BFE4FF
BF41FF
BF47FF
BFFFFF
3FFFBF
0BF47F
ENDCHAR
STARTCHAR uni04D4
ENCODING 1236
SWIDTH 845 0
DWIDTH 24 0
BBX 23 18 0 0
BITMAP
0000FFFFFFF0
0001FFFFFFF0
0003FFFFFFF0
0007FBFFFFF0
000FF7FC0000
001FE7FC0000
003FD7FC0000
007FC7FFFF80
00BF47FFFF80
01FF07FFFF80
02FE07FC0000
07FFFFFC0000
0BFFFFFC0000
1FFFFFFC0000
2FE007FFFFF4
7FC007FFFFF4
BF8007FFFFF4
FF4007FFFFF4
ENDCHAR
STARTCHAR uni04D5
ENCODING 1237
SWIDTH 786 0
DWIDTH 22 0
BBX 20 14 1 0
BITMAP
01BF80BF80
2FFFE7FFF4
2FFFFFFFFC
1E42FF81FD
0000FF00BE
006BFFFFFF
0BFFFFFFFF
2FFFFFFFFF
7FE4BF0000
BF40FF4000
BF86FFD064
7FFFFFFFFC
2FFF8BFFFD
0BF901BF90
ENDCHAR
STARTCHAR uni04D6
ENCODING 1238
SWIDTH 548 0
DWIDTH 15 0
BBX 12 24 2 0
BITMAP
2F82FC
2FD3F8
0FFFF4
02FF80
000000
000000
FFFFFE
FFFFFE
FFFFFE
FFFFFE
FF4000
FF4000
FF4000
FFFFF4
FFFFF4
FFFFF4
FF4000
FF4000
FF4000
FF4000
FFFFFF
FFFFFF
FFFFFF
FFFFFF
ENDCHAR
STARTCHAR uni04D7
ENCODING 1239
SWIDTH 518 0
DWIDTH 15 0
BBX 13 20 1 0
BITMAP
1FC0FD00
0FD1FC00
07FFF800
01BF9000
00000000
00000000
01BF9000
0BFFF800
1FFFFD00
3FD0BF00
BF003F40
BFFFFF40
FFFFFF40
FFFFFF40
FF000000
BF800000
7FE41800
2FFFFD00
0BFFFE00
01BFE400
ENDCHAR
STARTCHAR uni04D8
ENCODING 1240
SWIDTH 675 0
DWIDTH 19 0
BBX 17 18 1 0
BITMAP
001BFA0000
01FFFFD000
0BFFFFF800
07FFFFFD00
02E41BFE00
004001FF00
000000FF40
000000BF80
BFFFFFFF80
BFFFFFFF80
7FFFFFFF40
7F8000BF40
3FD001FF00
2FF407FE00
1FFFFFFD00
0BFFFFF400
02FFFFD000
002BF90000
ENDCHAR
STARTCHAR uni04D9
ENCODING 1241
SWIDTH 518 0
DWIDTH 15 0
BBX 13 14 1 0
BITMAP
06FE8000
3FFFF400
1FFFFC00
0906FE00
0000FF00
0000BF40
FFFFFF40
FFFFFF40
FFFFFF40
BE00BF00
7F41FE00
3FFFFC00
1FFFF400
02FE4000
ENDCHAR
STARTCHAR uni04E2
ENCODING 1250
SWIDTH 676 0
DWIDTH 19 0
BBX 15 23 2 0
BITMAP
02FFFE00
02FFFE00
02FFFE00
00000000
00000000
FF400FF8
FF401FF8
FF403FF8
FF407FF8
FF40FFF8
FF42FFF8
FF43F7F8
FF4BF3F8
FF0FE3F8
FF2FC7F8
FF3F87F8
FFBF07F8
FEFD07F8
FFFC07F8
FFF407F8
FFF007F8
FFD007F8
FF8007F8
ENDCHAR
STARTCHAR uni04E3
ENCODING 1251
SWIDTH 583 0
DWIDTH 16 0
BBX 14 20 1 0
BITMAP
03FFFD00
03FFFD00
03FFFD00
00000000
00000000
00000000
7F802FE0
7F807FE0
7F80BFE0
7F81FFE0
7F83FFE0
7F8BEFE0
7F9FDFE0
7FAF9FE0
7FBF1FE0
7FFD1FE0
7FF81FE0
7FF01FE0
7FD01FE0
7FC01FE0
ENDCHAR
STARTCHAR uni04E6
ENCODING 1254
SWIDTH 684 0
DWIDTH 19 0
BBX 17 24 1 0
BITMAP
00B80B8000
01FD1FE000
01FD1FE000
00B80B8000
0000000000
0000000000
001BFA0000
01FFFFE000
0BFFFFF800
1FFFFFFD00
2FF807FF00
7FD001FF40
7FC000BF80
BF8000BF80
BF80007F80
BF80007F80
BF8000BF80
7FC000BF80
7FE001FF40
2FF807FF00
1FFFFFFD00
07FFFFF800
01FFFFD000
001BFA0000
ENDCHAR
STARTCHAR uni04E7
ENCODING 1255
SWIDTH 555 0
DWIDTH 16 0
BBX 14 20 1 0
BITMAP
0B807D00
1FE0FE00
1FE0FE00
0B807D00
00000000
00000000
01BF9000
0BFFFD00
2FFFFF00
3FD0BF80
BF803FC0
FF403FD0
FF402FD0
FF402FD0
FF403FD0
BF803FC0
7FD0BF80
2FFFFF00
0BFFFD00
01BF9000
ENDCHAR
STARTCHAR uni04E8
ENCODING 1256
SWIDTH 684 0
DWIDTH 19 0
BBX 17 18 1 0
BITMAP
001BFA0000
01FFFFE000
0BFFFFF800
1FFFFFFD00
3FF407FF00
7FD000FF40
7F8000BF80
BFFFFFFF80
BFFFFFFF80
BFFFFFFF80
BF80007F80
7FC000BF80
7FD001FF40
2FF807FF00
1FFFFFFD00
07FFFFF800
01FFFFE000
001BFA0000
ENDCHAR
STARTCHAR uni04E9
ENCODING 1257
SWIDTH 555 0
DWIDTH 16 0
BBX 14 14 1 0
BITMAP
01BF9000
0BFFFD00
2FFFFF00
7FD07F80
BF402FC0
FFFFFFD0
FFFFFFD0
FFFFFFD0
FF002FD0
BF403FC0
7FD0BF80
2FFFFF00
0BFFFD00
01BF9000
ENDCHAR
STARTCHAR uni04EE
ENCODING 1262
SWIDTH 555 0
DWIDTH 16 0
BBX 16 23 0 0
BITMAP
01FFFF40
01FFFF40
01FFFF40
00000000
00000000
BF8002FD
7FC003FC
2FD007F8
1FF00BF4
0FF40FE0
07F82FD0
03FC3FC0
02FD7F80
00FEBF40
00BFFE00
003FFD00
002FFC00
001FF800
001FF000
07FFE000
0BFFC000
0BFF4000
0BF80000
ENDCHAR
STARTCHAR uni04EF
ENCODING 1263
SWIDTH 521 0
DWIDTH 15 0
BBX 14 26 0 -6
BITMAP
02FFFE00
02FFFE00
02FFFE00
00000000
00000000
00000000
7F800FF0
3FC00FE0
2FD01FD0
1FE02FC0
0FF03F80
0BF47F40
07F87F00
02FCBE00
01FCFD00
00FEFC00
00BFF800
007FF400
003FF000
002FE000
001FD000
002FC000
00BF8000
0FFF0000
1FFD0000
1FE00000
ENDCHAR
STARTCHAR uni04F2
ENCODING 1266
SWIDTH 555 0
DWIDTH 16 0
BBX 16 24 0 0
BITMAP
00064090
000FD2F8
002F87E0
007E0F80
00680A00
00000000
BF8002FD
7FC003FC
2FD007F8
1FF00BF4
0FF40FE0
07F82FD0
03FC3FC0
02FD7F80
00FEBF40
00BFFE00
003FFD00
002FFC00
001FF800
001FF000
07FFE000
0BFFC000
0BFF4000
0BF80000
ENDCHAR
STARTCHAR uni04F3
ENCODING 1267
SWIDTH 521 0
DWIDTH 15 0
BBX 14 28 0 -6
BITMAP
00090240
001F87E0
003F4FD0
007E1F80
00FC2F00
00641D00
00000000
00000000
7F800FF0
3FC00FE0
2FD01FD0
1FE02FC0
0FF03F80
0BF47F40
07F87F00
02FCBE00
01FCFD00
00FEFC00
00BFF800
007FF400
003FF000
002FE000
001FD000
002FC000
00BF8000
0FFF0000
1FFD0000
1FE00000
ENDCHAR
STARTCHAR a.sups
ENCODING 7491
SWIDTH 359 0
DWIDTH 10 0
BBX 8 10 1 10
BITMAP
1BE4
BFFD
247E
06FF
7FFF
FE3F
F83F
F87F
BFFF
2F5A
ENDCHAR
STARTCHAR b.sups
ENCODING 7495
SWIDTH 385 0
DWIDTH 11 0
BBX 9 13 1 10
BITMAP
BC0000
BC0000
BC0000
BDB900
BFFF00
BE2F80
BC0FC0
BC0FC0
BC0FC0
BC0FC0
BD2F80
BFFF00
B9F800
ENDCHAR
STARTCHAR d.sups
ENCODING 7496
SWIDTH 385 0
DWIDTH 11 0
BBX 10 13 0 10
BITMAP
0007E0
0007E0
0007E0
06EBE0
1FFFE0
2F4BE0
3F07E0
7E07E0
7E07E0
3F07E0
2F4BE0
1FFFE0
06F690
ENDCHAR
STARTCHAR e.sups
ENCODING 7497
SWIDTH 346 0
DWIDTH 10 0
BBX 9 10 0 10
BITMAP
02F900
0FFF00
2F4B80
3E07C0
7FFFC0
7FFFC0
3E0000
2F4100
0FFF40
02FE00
ENDCHAR
STARTCHAR g.sups
ENCODING 7501
SWIDTH 361 0
DWIDTH 10 0
BBX 10 13 0 7
BITMAP
06FA90
1FFFE0
3E1F90
3E0F40
3E1F40
1FFF00
1FF800
2D0000
2FFF80
1FFFE0
7D07E0
7FFFD0
1BFA00
ENDCHAR
STARTCHAR k.sups
ENCODING 7503
SWIDTH 371 0
DWIDTH 10 0
BBX 9 12 1 11
BITMAP
BC0000
BC0000
BC0000
BC1F80
BC7E00
BCFC00
BEF400
BFF000
BFF800
BD7D00
BC2F40
BC1FC0
ENDCHAR
STARTCHAR m.sups
ENCODING 7504
SWIDTH 577 0
DWIDTH 16 0
BBX 14 9 1 11
BITMAP
A5BD1F80
BFFFBFE0
BE2FD3F0
BC1F83F0
BC1F82F0
BC1F82F0
BC1F82F0
BC1F82F0
BC1F82F0
ENDCHAR
STARTCHAR o.sups
ENCODING 7506
SWIDTH 373 0
DWIDTH 10 0
BBX 10 10 0 10
BITMAP
02F900
0FFF40
2F4BC0
3E07E0
7E07E0
7E07E0
3E07E0
2F4BC0
0FFF40
02F900
ENDCHAR
STARTCHAR p.sups
ENCODING 7510
SWIDTH 385 0
DWIDTH 11 0
BBX 9 13 1 7
BITMAP
B9B900
BFFF00
BE2F80
BC0FC0
BC0FC0
BC0FC0
BC0FC0
BD2F80
BFFF00
BDF800
BC0000
BC0000
BC0000
ENDCHAR
STARTCHAR t.sups
ENCODING 7511
SWIDTH 259 0
DWIDTH 7 0
BBX 7 12 0 10
BITMAP
0F80
1F80
BFF8
BFF8
1F80
1F80
1F80
1F80
1F80
1F80
0BF8
02F8
ENDCHAR
STARTCHAR u.sups
ENCODING 7512
SWIDTH 383 0
DWIDTH 11 0
BBX 9 10 1 10
BITMAP
FC1F80
FC1F80
FC1F80
FC1F80
FC1F80
FC1F80
FC1F80
BD2F80
7FEF80
2F8B80
ENDCHAR
STARTCHAR v.sups
ENCODING 7515
SWIDTH 355 0
DWIDTH 10 0
BBX 10 9 0 11
BITMAP
BD07E0
7E07D0
3E0BC0
2F0F80
1F5F40
0FAF00
0BEE00
07FC00
03F800
ENDCHAR
STARTCHAR c.sups
ENCODING 7580
SWIDTH 313 0
DWIDTH 9 0
BBX 8 10 0 10
BITMAP
02FE
0FFE
2F84
3F00
7E00
7E00
3F00
2F85
1FFF
06FE
ENDCHAR
STARTCHAR f.sups
ENCODING 7584
SWIDTH 232 0
DWIDTH 7 0
BBX 7 13 0 11
BITMAP
02F8
0BF8
0F80
1F80
BFF4
BFF4
1F80
1F80
1F80
1F80
1F80
1F80
1F80
ENDCHAR
STARTCHAR z.sups
ENCODING 7611
SWIDTH 312 0
DWIDTH 9 0
BBX 9 9 0 11
BITMAP
2FFF00
2FFE00
00BD00
01F800
03F000
0BD000
1F8000
3FFF40
7FFF40
ENDCHAR
STARTCHAR uni1E06
ENCODING 7686
SWIDTH 605 0
DWIDTH 17 0
BBX 14 23 2 -5
BITMAP
FFFFE400
FFFFFE00
FFFFFF80
FFFFFFC0
FF407FC0
FF403FC0
FF40BF80
FFFFFE00
FFFFFD00
FFFFFF80
FF406FE0
FF400FF0
FF400FF0
FF406FF0
FFFFFFE0
FFFFFFC0
FFFFFF40
FFFFE400
00000000
00000000
07FFFC00
07FFFC00
07FFFC00
ENDCHAR
STARTCHAR uni1E07
ENCODING 7687
SWIDTH 573 0
DWIDTH 16 0
BBX 14 25 1 -5
BITMAP
7FC00000
7FC00000
7FC00000
7FC00000
7FC00000
7FC00000
7FCBF800
7FFFFF40
7FFFFFC0
7FE47FD0
7FC02FE0
7FC01FF0
7FC01FF0
7FC01FF0
7FC01FE0
7FC02FE0
7FE4BFC0
7FFFFF80
7FBFFE00
7F0BE400
00000000
00000000
03FFFD00
03FFFD00
03FFFD00
ENDCHAR
STARTCHAR uni1E0C
ENCODING 7692
SWIDTH 635 0
DWIDTH 18 0
BBX 15 24 2 -6
BITMAP
FFFE9000
FFFFFD00
FFFFFF40
FFFFFFC0
FF45BFE0
FF402FF0
FF401FF4
FF400FF4
FF400BF4
FF400BF4
FF400FF4
FF401FF4
FF402FF0
FF41FFE0
FFFFFFC0
FFFFFF40
FFFFF900
FFFF9000
00000000
00000000
002F4000
007FC000
007FC000
002F4000
ENDCHAR
STARTCHAR uni1E0D
ENCODING 7693
SWIDTH 573 0
DWIDTH 16 0
BBX 14 26 1 -6
BITMAP
00003FD0
00003FD0
00003FD0
00003FD0
00003FD0
00003FD0
01BE6FD0
0BFFFFD0
2FFFFFD0
3FE0BFD0
BF803FD0
BF403FD0
FF403FD0
FF403FD0
BF403FD0
BF803FD0
7FE0BFD0
2FFFFFD0
0FFFEFD0
02FE1FD0
00000000
00000000
000BD000
001FF000
001FF000
000BD000
ENDCHAR
STARTCHAR uni1E0E
ENCODING 7694
SWIDTH 635 0
DWIDTH 18 0
BBX 15 23 2 -5
BITMAP
FFFE9000
FFFFFD00
FFFFFF40
FFFFFFC0
FF45BFE0
FF402FF0
FF401FF4
FF400FF4
FF400BF4
FF400BF4
FF400FF4
FF401FF4
FF402FF0
FF41FFE0
FFFFFFC0
FFFFFF40
FFFFF900
FFFF9000
00000000
00000000
07FFFC00
07FFFC00
07FFFC00
ENDCHAR
STARTCHAR uni1E0F
ENCODING 7695
SWIDTH 573 0
DWIDTH 16 0
BBX 14 25 1 -5
BITMAP
00003FD0
00003FD0
00003FD0
00003FD0
00003FD0
00003FD0
01BE6FD0
0BFFFFD0
2FFFFFD0
3FE0BFD0
BF803FD0
BF403FD0
FF403FD0
FF403FD0
BF403FD0
BF803FD0
7FE0BFD0
2FFFFFD0
0FFFEFD0
02FE1FD0
00000000
00000000
01FFFF00
01FFFF00
01FFFF00
ENDCHAR
STARTCHAR uni1E16
ENCODING 7702
SWIDTH 548 0
DWIDTH 15 0
BBX 12 29 2 0
BITMAP
000280
000BD0
007FD0
00FE00
006400
000000
1FFFF4
1FFFF4
1FFFF4
000000
000000
FFFFFE
FFFFFE
FFFFFE
FFFFFE
FF4000
FF4000
FF4000
FFFFF4
FFFFF4
FFFFF4
FF4000
FF4000
FF4000
FF4000
FFFFFF
FFFFFF
FFFFFF
FFFFFF
ENDCHAR
STARTCHAR uni1E17
ENCODING 7703
SWIDTH 518 0
DWIDTH 15 0
BBX 13 25 1 0
BITMAP
00018000
0007E000
002FE000
007F4000
00280000
00000000
0BFFF800
0BFFF800
0BFFF800
00000000
00000000
01BF9000
0BFFF800
1FFFFD00
3FD0BF00
BF003F40
BFFFFF40
FFFFFF40
FFFFFF40
FF000000
BF800000
7FE41800
2FFFFD00
0BFFFE00
01BFE400
ENDCHAR
STARTCHAR uni1E20
ENCODING 7712
SWIDTH 638 0
DWIDTH 18 0
BBX 16 23 1 0
BITMAP
003FFFE0
003FFFE0
003FFFE0
00000000
00000000
001BFE40
00BFFFE0
07FFFFF8
0FFFFFF4
2FF902E0
3FE00040
7FC00000
BF800000
BF807FFD
BF807FFD
BF807FFD
7FC001FD
3FE001FD
2FF902FD
1FFFFFFD
07FFFFFD
01FFFFF4
001BFE40
ENDCHAR
STARTCHAR uni1E21
ENCODING 7713
SWIDTH 534 0
DWIDTH 15 0
BBX 14 26 1 -6
BITMAP
07FFFC00
07FFFC00
07FFFC00
00000000
00000000
00000000
02BFFFD0
1FFFFFD0
3FFFFFD0
7F82FD00
BF40FD00
BF40FE00
7F82FD00
2FFFFC00
0FFFF400
2FFF8000
3F000000
7F400000
3FFFFA00
2FFFFFC0
2FFFFFD0
BE002FD0
FE407FD0
FFFFFF80
7FFFFE00
06FF9000
ENDCHAR
STARTCHAR uni1E24
ENCODING 7716
SWIDTH 674 0
DWIDTH 19 0
BBX 15 24 2 -6
BITMAP
FF4007F8
FF4007F8
FF4007F8
FF4007F8
FF4007F8
FF4007F8
FFFFFFF8
FFFFFFF8
FFFFFFF8
FFFFFFF8
FF4007F8
FF4007F8
FF4007F8
FF4007F8
FF4007F8
FF4007F8
FF4007F8
FF4007F8
00000000
00000000
001B8000
002FE000
002FE000
001B8000
ENDCHAR
STARTCHAR uni1E25
ENCODING 7717
SWIDTH 571 0
DWIDTH 16 0
BBX 14 26 1 -6
BITMAP
7FC00000
7FC00000
7FC00000
7FC00000
7FC00000
7FC00000
7FC6F900
7FAFFF40
7FFFFF80
7FF47FC0
7FD03FD0
7FC02FD0
7FC02FD0
7FC02FD0
7FC02FD0
7FC02FD0
7FC02FD0
7FC02FD0
7FC02FD0
7FC02FD0
00000000
00000000
001F8000
003FD000
003FD000
001F8000
ENDCHAR
STARTCHAR uni1E2A
ENCODING 7722
SWIDTH 674 0
DWIDTH 19 0
BBX 15 25 2 -7
BITMAP
FF4007F8
FF4007F8
FF4007F8
FF4007F8
FF4007F8
FF4007F8
FFFFFFF8
FFFFFFF8
FFFFFFF8
FFFFFFF8
FF4007F8
FF4007F8
FF4007F8
FF4007F8
FF4007F8
FF4007F8
FF4007F8
FF4007F8
00000000
00400400
07D02F00
03F47F00
02FFFE00
01FFFC00
002FE000
ENDCHAR
STARTCHAR uni1E2B
ENCODING 7723
SWIDTH 571 0
DWIDTH 16 0
BBX 14 27 1 -7
BITMAP
7FC00000
7FC00000
7FC00000
7FC00000
7FC00000
7FC00000
7FC6F900
7FAFFF40
7FFFFF80
7FF47FC0
7FD03FD0
7FC02FD0
7FC02FD0
7FC02FD0
7FC02FD0
7FC02FD0
7FC02FD0
7FC02FD0
7FC02FD0
7FC02FD0
00000000
01401400
0BC02F00
07E07E00
03FFFD00
01FFF800
006FD000
ENDCHAR
STARTCHAR uni1E32
ENCODING 7730
SWIDTH 614 0
DWIDTH 17 0
BBX 15 24 2 -6
BITMAP
FF402FF0
FF407FD0
FF40FF40
FF42FE00
FF47FC00
FF5FF400
FF7FD000
FFFFC000
FFFFE000
FFFFF400
FFFBF800
FFE3FD00
FF81FF00
FF40BF80
FF407FD0
FF402FE0
FF400FF4
FF4007FC
00000000
00000000
001F8000
003FD000
003FD000
001F8000
ENDCHAR
STARTCHAR uni1E33
ENCODING 7731
SWIDTH 548 0
DWIDTH 15 0
BBX 14 26 1 -6
BITMAP
7F800000
7F800000
7F800000
7F800000
7F800000
7F800000
7F803FD0
7F80BF80
7F82FE00
7F87F800
7F9FF000
7FFFD000
7FFFD000
7FFFF000
7FFBF800
7FE2FD00
7FC1FF00
7F80BF80
7F803FD0
7F802FE0
00000000
00000000
001F8000
003FD000
003FD000
001F8000
ENDCHAR
STARTCHAR uni1E34
ENCODING 7732
SWIDTH 614 0
DWIDTH 17 0
BBX 15 23 2 -5
BITMAP
FF402FF0
FF407FD0
FF40FF40
FF42FE00
FF47FC00
FF5FF400
FF7FD000
FFFFC000
FFFFE000
FFFFF400
FFFBF800
FFE3FD00
FF81FF00
FF40BF80
FF407FD0
FF402FE0
FF400FF4
FF4007FC
00000000
00000000
03FFFD00
03FFFD00
03FFFD00
ENDCHAR
STARTCHAR uni1E35
ENCODING 7733
SWIDTH 548 0
DWIDTH 15 0
BBX 14 25 1 -5
BITMAP
7F800000
7F800000
7F800000
7F800000
7F800000
7F800000
7F803FD0
7F80BF80
7F82FE00
7F87F800
7F9FF000
7FFFD000
7FFFD000
7FFFF000
7FFBF800
7FE2FD00
7FC1FF00
7F80BF80
7F803FD0
7F802FE0
00000000
00000000
03FFFD00
03FFFD00
03FFFD00
ENDCHAR
STARTCHAR uni1E36
ENCODING 7734
SWIDTH 518 0
DWIDTH 15 0
BBX 12 24 2 -6
BITMAP
FF4000
FF4000
FF4000
FF4000
FF4000
FF4000
FF4000
FF4000
FF4000
FF4000
FF4000
FF4000
FF4000
FF4000
FFFFFE
FFFFFE
FFFFFE
FFFFFE
000000
000000
007E00
00FF40
00FF40
007E00
ENDCHAR
STARTCHAR uni1E37
ENCODING 7735
SWIDTH 286 0
DWIDTH 8 0
BBX 7 26 1 -6
BITMAP
7FC0
7FC0
7FC0
7FC0
7FC0
7FC0
7FC0
7FC0
7FC0
7FC0
7FC0
7FC0
7FC0
7FC0
7FC0
3FC0
3FC0
3FF4
1FF4
07F4
0000
0000
07E0
0FF4
0FF4
07E0
ENDCHAR
STARTCHAR uni1E38
ENCODING 7736
SWIDTH 518 0
DWIDTH 15 0
BBX 14 29 0 -6
BITMAP
FFFF8000
FFFF8000
FFFF8000
00000000
00000000
0FF40000
0FF40000
0FF40000
0FF40000
0FF40000
0FF40000
0FF40000
0FF40000
0FF40000
0FF40000
0FF40000
0FF40000
0FF40000
0FF40000
0FFFFFE0
0FFFFFE0
0FFFFFE0
0FFFFFE0
00000000
00000000
0007E000
000FF400
000FF400
0007E000
ENDCHAR
STARTCHAR uni1E39
ENCODING 7737
SWIDTH 286 0
DWIDTH 8 0
BBX 9 32 -1 -6
BITMAP
7FFFC0
7FFFC0
7FFFC0
000000
000000
000000
07FC00
07FC00
07FC00
07FC00
07FC00
07FC00
07FC00
07FC00
07FC00
07FC00
07FC00
07FC00
07FC00
07FC00
07FC00
03FC00
03FC00
03FF40
01FF40
007F40
000000
000000
007E00
00FF40
00FF40
007E00
ENDCHAR
STARTCHAR uni1E3A
ENCODING 7738
SWIDTH 518 0
DWIDTH 15 0
BBX 12 23 2 -5
BITMAP
FF4000
FF4000
FF4000
FF4000
FF4000
FF4000
FF4000
FF4000
FF4000
FF4000
FF4000
FF4000
FF4000
FF4000
FFFFFE
FFFFFE
FFFFFE
FFFFFE
000000
000000
0FFFF4
0FFFF4
0FFFF4
ENDCHAR
STARTCHAR uni1E3B
ENCODING 7739
SWIDTH 286 0
DWIDTH 8 0
BBX 9 25 1 -5
BITMAP
7FC000
7FC000
7FC000
7FC000
7FC000
7FC000
7FC000
7FC000
7FC000
7FC000
7FC000
7FC000
7FC000
7FC000
7FC000
3FC000
3FC000
3FF400
1FF400
07F400
000000
000000
FFFF40
FFFF40
FFFF40
ENDCHAR
STARTCHAR uni1E3E
ENCODING 7742
SWIDTH 762 0
DWIDTH 21 0
BBX 18 25 2 0
BITMAP
0000060000
00002F8000
0000BFD000
0002FF4000
0003F80000
0000900000
0000000000
FFC0007FD0
FFD000FFD0
FFE001FFD0
FFF002FFD0
FFF403FFD0
FFF807EFD0
FEFC0BEFD0
FEBD0FDFD0
FE7E1F9FD0
FE3F2F5FD0
FE2F7F2FD0
FF1FFE2FD0
FF0FFD2FD0
FF0BFC2FD0
FF07F42FD0
FF03F02FD0
FF01502FD0
FF00002FD0
ENDCHAR
STARTCHAR uni1E3F
ENCODING 7743
SWIDTH 857 0
DWIDTH 24 0
BBX 22 23 1 0
BITMAP
000000240000
0000007D0000
000001FF4000
000007FE0000
00000FF40000
00000FD00000
000002400000
000000000000
000000000000
7F46F906F900
7FAFFF6FFF40
7FFFFFFFFF80
7FF4BFF47FC0
7FD03FD03FD0
7FC03FC02FD0
7FC03FC02FD0
7FC03FC02FD0
7FC03FC02FD0
7FC03FC02FD0
7FC03FC02FD0
7FC03FC02FD0
7FC03FC02FD0
7FC03FC02FD0
ENDCHAR
STARTCHAR uni1E40
ENCODING 7744
SWIDTH 762 0
DWIDTH 21 0
BBX 18 24 2 0
BITMAP
0002F40000
000BFC0000
000BFC0000
0002F40000
0000000000
0000000000
FFC0007FD0
FFD000FFD0
FFE001FFD0
FFF002FFD0
FFF403FFD0
FFF807EFD0
FEFC0BEFD0
FEBD0FDFD0
FE7E1F9FD0
FE3F2F5FD0
FE2F7F2FD0
FF1FFE2FD0
FF0FFD2FD0
FF0BFC2FD0
FF07F42FD0
FF03F02FD0
FF01502FD0
FF00002FD0
ENDCHAR
STARTCHAR uni1E41
ENCODING 7745
SWIDTH 857 0
DWIDTH 24 0
BBX 22 20 1 0
BITMAP
00001F800000
00003FD00000
00003FD00000
00001F800000
000000000000
000000000000
7F46F906F900
7FAFFF6FFF40
7FFFFFFFFF80
7FF4BFF47FC0
7FD03FD03FD0
7FC03FC02FD0
7FC03FC02FD0
7FC03FC02FD0
7FC03FC02FD0
7FC03FC02FD0
7FC03FC02FD0
7FC03FC02FD0
7FC03FC02FD0
7FC03FC02FD0
ENDCHAR
STARTCHAR uni1E42
ENCODING 7746
SWIDTH 762 0
DWIDTH 21 0
BBX 18 24 2 -6
BITMAP
FFC0007FD0
FFD000FFD0
FFE001FFD0
FFF002FFD0
FFF403FFD0
FFF807EFD0
FEFC0BEFD0
FEBD0FDFD0
FE7E1F9FD0
FE3F2F5FD0
FE2F7F2FD0
FF1FFE2FD0
FF0FFD2FD0
FF0BFC2FD0
FF07F42FD0
FF03F02FD0
FF01502FD0
FF00002FD0
0000000000
0000000000
0002F40000
0007FC0000
0007FC0000
0002F40000
ENDCHAR
STARTCHAR uni1E43
ENCODING 7747
SWIDTH 857 0
DWIDTH 24 0
BBX 22 20 1 -6
BITMAP
7F46F906F900
7FAFFF6FFF40
7FFFFFFFFF80
7FF4BFF47FC0
7FD03FD03FD0
7FC03FC02FD0
7FC03FC02FD0
7FC03FC02FD0
7FC03FC02FD0
7FC03FC02FD0
7FC03FC02FD0
7FC03FC02FD0
7FC03FC02FD0
7FC03FC02FD0
000000000000
000000000000
00001F800000
00003FD00000
00003FD00000
00001F800000
ENDCHAR
STARTCHAR uni1E44
ENCODING 7748
SWIDTH 665 0
DWIDTH 19 0
BBX 15 24 2 0
BITMAP
001F8000
003FE000
003FE000
001F8000
00000000
00000000
FF8007F4
FFD007F4
FFE007F4
FFF407F4
FFF807F4
FEFD07F4
FEBE07F4
FE7F47F4
FF2FC7F4
FF1FD7F4
FF0BF7F4
FF07F7F4
FF02FBF4
FF01FFF4
FF00BFF4
FF003FF4
FF002FF4
FF000FF4
ENDCHAR
STARTCHAR uni1E45
ENCODING 7749
SWIDTH 572 0
DWIDTH 16 0
BBX 14 20 1 0
BITMAP
000B9000
002FE000
002FE000
000B9000
00000000
00000000
7F46F900
7FAFFF40
7FFFFF80
7FF47FC0
7FD03FD0
7FC02FD0
7FC02FD0
7FC02FD0
7FC02FD0
7FC02FD0
7FC02FD0
7FC02FD0
7FC02FD0
7FC02FD0
ENDCHAR
STARTCHAR uni1E46
ENCODING 7750
SWIDTH 665 0
DWIDTH 19 0
BBX 15 24 2 -6
BITMAP
FF8007F4
FFD007F4
FFE007F4
FFF407F4
FFF807F4
FEFD07F4
FEBE07F4
FE7F47F4
FF2FC7F4
FF1FD7F4
FF0BF7F4
FF07F7F4
FF02FBF4
FF01FFF4
FF00BFF4
FF003FF4
FF002FF4
FF000FF4
00000000
00000000
000B9000
002FE000
002FE000
000B9000
ENDCHAR
STARTCHAR uni1E47
ENCODING 7751
SWIDTH 572 0
DWIDTH 16 0
BBX 14 20 1 -6
BITMAP
7F46F900
7FAFFF40
7FFFFF80
7FF47FC0
7FD03FD0
7FC02FD0
7FC02FD0
7FC02FD0
7FC02FD0
7FC02FD0
7FC02FD0
7FC02FD0
7FC02FD0
7FC02FD0
00000000
00000000
001F8000
003FD000
003FD000
001F8000
ENDCHAR
STARTCHAR uni1E48
ENCODING 7752
SWIDTH 665 0
DWIDTH 19 0
BBX 15 23 2 -5
BITMAP
FF8007F4
FFD007F4
FFE007F4
FFF407F4
FFF807F4
FEFD07F4
FEBE07F4
FE7F47F4
FF2FC7F4
FF1FD7F4
FF0BF7F4
FF07F7F4
FF02FBF4
FF01FFF4
FF00BFF4
FF003FF4
FF002FF4
FF000FF4
00000000
00000000
02FFFE00
02FFFE00
02FFFE00
ENDCHAR
STARTCHAR uni1E49
ENCODING 7753
SWIDTH 572 0
DWIDTH 16 0
BBX 14 19 1 -5
BITMAP
7F46F900
7FAFFF40
7FFFFF80
7FF47FC0
7FD03FD0
7FC02FD0
7FC02FD0
7FC02FD0
7FC02FD0
7FC02FD0
7FC02FD0
7FC02FD0
7FC02FD0
7FC02FD0
00000000
00000000
03FFFD00
03FFFD00
03FFFD00
ENDCHAR
STARTCHAR uni1E52
ENCODING 7762
SWIDTH 684 0
DWIDTH 19 0
BBX 17 29 1 0
BITMAP
0000180000
00007E0000
0002FE0000
0007F40000
0002800000
0000000000
00BFFF8000
00BFFF8000
00BFFF8000
0000000000
0000000000
001BFA0000
01FFFFE000
0BFFFFF800
1FFFFFFD00
2FF807FF00
7FD001FF40
7FC000BF80
BF8000BF80
BF80007F80
BF80007F80
BF8000BF80
7FC000BF80
7FE001FF40
2FF807FF00
1FFFFFFD00
07FFFFF800
01FFFFD000
001BFA0000
ENDCHAR
STARTCHAR uni1E53
ENCODING 7763
SWIDTH 555 0
DWIDTH 16 0
BBX 14 25 1 0
BITMAP
00008000
0007E000
002FE000
003F4000
00180000
00000000
07FFFC00
07FFFC00
07FFFC00
00000000
00000000
01BF9000
0BFFFD00
2FFFFF00
3FD0BF80
BF803FC0
FF403FD0
FF402FD0
FF402FD0
FF403FD0
BF803FC0
7FD0BF80
2FFFFF00
0BFFFD00
01BF9000
ENDCHAR
STARTCHAR uni1E58
ENCODING 7768
SWIDTH 613 0
DWIDTH 17 0
BBX 15 24 2 0
BITMAP
002E4000
00BFC000
00BFC000
002F4000
00000000
00000000
FFFFE400
FFFFFE00
FFFFFF80
FFFFFFD0
FF407FE0
FF401FE0
FF401FE0
FF402FE0
FF407FD0
FFFFFF80
FFFFFE00
FFFFF800
FF47FD00
FF42FF00
FF40FF40
FF407FC0
FF402FE0
FF401FF4
ENDCHAR
STARTCHAR uni1E59
ENCODING 7769
SWIDTH 398 0
DWIDTH 11 0
BBX 10 20 1 0
BITMAP
00BD00
01FF00
01FF00
00BD00
000000
000000
7F46F0
7F6FF0
7FFFE0
7FFFE0
7FE400
7FC000
7FC000
7FC000
7FC000
7FC000
7FC000
7FC000
7FC000
7FC000
ENDCHAR
STARTCHAR uni1E5A
ENCODING 7770
SWIDTH 613 0
DWIDTH 17 0
BBX 15 24 2 -6
BITMAP
FFFFE400
FFFFFE00
FFFFFF80
FFFFFFD0
FF407FE0
FF401FE0
FF401FE0
FF402FE0
FF407FD0
FFFFFF80
FFFFFE00
FFFFF800
FF47FD00
FF42FF00
FF40FF40
FF407FC0
FF402FE0
FF401FF4
00000000
00000000
001F8000
003FD000
003FD000
001F8000
ENDCHAR
STARTCHAR uni1E5B
ENCODING 7771
SWIDTH 398 0
DWIDTH 11 0
BBX 10 20 1 -6
BITMAP
7F46F0
7F6FF0
7FFFE0
7FFFE0
7FE400
7FC000
7FC000
7FC000
7FC000
7FC000
7FC000
7FC000
7FC000
7FC000
000000
000000
2F4000
7FC000
7FC000
2F4000
ENDCHAR
STARTCHAR uni1E5C
ENCODING 7772
SWIDTH 613 0
DWIDTH 17 0
BBX 15 29 2 -6
BITMAP
0BFFFC00
0BFFFC00
0BFFFC00
00000000
00000000
FFFFE400
FFFFFE00
FFFFFF80
FFFFFFD0
FF407FE0
FF401FE0
FF401FE0
FF402FE0
FF407FD0
FFFFFF80
FFFFFE00
FFFFF800
FF47FD00
FF42FF00
FF40FF40
FF407FC0
FF402FE0
FF401FF4
00000000
00000000
001F8000
003FD000
003FD000
001F8000
ENDCHAR
STARTCHAR uni1E5D
ENCODING 7773
SWIDTH 398 0
DWIDTH 11 0
BBX 10 26 1 -6
BITMAP
1FFFF0
1FFFF0
1FFFF0
000000
000000
000000
7F46F0
7F6FF0
7FFFE0
7FFFE0
7FE400
7FC000
7FC000
7FC000
7FC000
7FC000
7FC000
7FC000
7FC000
7FC000
000000
000000
2F4000
7FC000
7FC000
2F4000
ENDCHAR
STARTCHAR uni1E5E
ENCODING 7774
SWIDTH 613 0
DWIDTH 17 0
BBX 15 23 2 -5
BITMAP
FFFFE400
FFFFFE00
FFFFFF80
FFFFFFD0
FF407FE0
FF401FE0
FF401FE0
FF402FE0
FF407FD0
FFFFFF80
FFFFFE00
FFFFF800
FF47FD00
FF42FF00
FF40FF40
FF407FC0
FF402FE0
FF401FF4
00000000
00000000
03FFFD00
03FFFD00
03FFFD00
ENDCHAR
STARTCHAR uni1E5F
ENCODING 7775
SWIDTH 398 0
DWIDTH 11 0
BBX 12 19 -1 -5
BITMAP
07F46F
07F6FF
07FFFE
07FFFE
07FE40
07FC00
07FC00
07FC00
07FC00
07FC00
07FC00
07FC00
07FC00
07FC00
000000
000000
7FFFC0
7FFFC0
7FFFC0
ENDCHAR
STARTCHAR uni1E60
ENCODING 7776
SWIDTH 556 0
DWIDTH 16 0
BBX 14 24 1 0
BITMAP
001F8000
003FD000
003FD000
001F8000
00000000
00000000
00AFE400
07FFFE00
1FFFFF80
3FFFFF40
7FD06E00
7FC00000
3FE40000
2FFF9000
0BFFF900
01FFFF40
001BFFC0
0000BFD0
08002FE0
2F907FE0
BFFFFFD0
7FFFFF80
1FFFFE00
01BFA400
ENDCHAR
STARTCHAR uni1E61
ENCODING 7777
SWIDTH 443 0
DWIDTH 12 0
BBX 11 20 1 0
BITMAP
00B900
02FE00
02FE00
00B900
000000
000000
06FE40
2FFFF4
7FFFF0
BF41D0
BF4000
7FE400
2FFF80
07FFE0
006FF4
1007F8
790BF8
FFFFF4
BFFFD0
1BFE40
ENDCHAR
STARTCHAR uni1E62
ENCODING 7778
SWIDTH 556 0
DWIDTH 16 0
BBX 14 24 1 -6
BITMAP
00AFE400
07FFFE00
1FFFFF80
3FFFFF40
7FD06E00
7FC00000
3FE40000
2FFF9000
0BFFF900
01FFFF40
001BFFC0
0000BFD0
08002FE0
2F907FE0
BFFFFFD0
7FFFFF80
1FFFFE00
01BFA400
00000000
00000000
002F4000
007FC000
007FC000
002F4000
ENDCHAR
STARTCHAR uni1E63
ENCODING 7779
SWIDTH 443 0
DWIDTH 12 0
BBX 11 20 1 -6
BITMAP
06FE40
2FFFF4
7FFFF0
BF41D0
BF4000
7FE400
2FFF80
07FFE0
006FF4
1007F8
790BF8
FFFFF4
BFFFD0
1BFE40
000000
000000
00B800
02FE00
02FE00
00B800
ENDCHAR
STARTCHAR uni1E6C
ENCODING 7788
SWIDTH 556 0
DWIDTH 16 0
BBX 15 24 0 -6
BITMAP
7FFFFFFC
7FFFFFFC
7FFFFFFC
7FFFFFFC
001FF000
001FF000
001FF000
001FF000
001FF000
001FF000
001FF000
001FF000
001FF000
001FF000
001FF000
001FF000
001FF000
001FF000
00000000
00000000
000BD000
001FF000
001FF000
000BD000
ENDCHAR
STARTCHAR uni1E6D
ENCODING 7789
SWIDTH 383 0
DWIDTH 11 0
BBX 10 24 0 -6
BITMAP
03F800
03F800
07F800
07F800
7FFFE0
BFFFE0
BFFFE0
0BF800
0BF800
0BF800
0BF800
0BF800
0BF800
0BF800
07FD00
03FFE0
01FFF0
006FE0
000000
000000
002E40
00BF80
00BF80
002E40
ENDCHAR
STARTCHAR uni1E6E
ENCODING 7790
SWIDTH 556 0
DWIDTH 16 0
BBX 15 23 0 -5
BITMAP
7FFFFFFC
7FFFFFFC
7FFFFFFC
7FFFFFFC
001FF000
001FF000
001FF000
001FF000
001FF000
001FF000
001FF000
001FF000
001FF000
001FF000
001FF000
001FF000
001FF000
001FF000
00000000
00000000
01FFFF00
01FFFF00
01FFFF00
ENDCHAR
STARTCHAR uni1E6F
ENCODING 7791
SWIDTH 383 0
DWIDTH 11 0
BBX 11 23 0 -5
BITMAP
03F800
03F800
07F800
07F800
7FFFE0
BFFFE0
BFFFE0
0BF800
0BF800
0BF800
0BF800
0BF800
0BF800
0BF800
07FD00
03FFE0
01FFF0
006FE0
000000
000000
0BFFF8
0BFFF8
0BFFF8
ENDCHAR
STARTCHAR Wgrave
ENCODING 7808
SWIDTH 813 0
DWIDTH 23 0
BBX 23 25 0 0
BITMAP
000090000000
0002F8000000
0007FE000000
0001FFC00000
00002FC00000
000006000000
000000000000
BF801FD00BF4
7FC02FE00BF0
3FC02FF00FF0
3FC03FF00FE0
2FD07FF41FE0
2FD0BFF81FD0
1FE0BEF82FD0
1FE0FDFC2FC0
0FF1FCFD2FC0
0BF1F8FD3F80
0BF2F4BE3F80
07F6F47F7F40
07F7F07F7F00
03FBE03FBF00
03FFE02FFE00
02FFD02FFE00
02FFD01FFD00
01FFC00FFD00
ENDCHAR
STARTCHAR wgrave
ENCODING 7809
SWIDTH 776 0
DWIDTH 22 0
BBX 21 23 0 0
BITMAP
000180000000
0007E0000000
001FF4000000
0007FD000000
0001FF400000
00007F400000
000009000000
000000000000
000000000000
7FC03FC03FC0
3FC07FC03F80
2FD07FD07F40
1FD0BFE07F40
1FE0FFE0BF00
0FF0FBF0FE00
0BF1F6F4FE00
07F6F6F9FD00
07F6F1F9FC00
03FBF0FEF800
02FFE0FFF800
01FFD0BFF400
01FFD07FF000
00FFC07FF000
ENDCHAR
STARTCHAR Wacute
ENCODING 7810
SWIDTH 813 0
DWIDTH 23 0
BBX 23 25 0 0
BITMAP
000000240000
000000BD0000
000003FF0000
00001FF80000
00001FD00000
000006000000
000000000000
BF801FD00BF4
7FC02FE00BF0
3FC02FF00FF0
3FC03FF00FE0
2FD07FF41FE0
2FD0BFF81FD0
1FE0BEF82FD0
1FE0FDFC2FC0
0FF1FCFD2FC0
0BF1F8FD3F80
0BF2F4BE3F80
07F6F47F7F40
07F7F07F7F00
03FBE03FBF00
03FFE02FFE00
02FFD02FFE00
02FFD01FFD00
01FFC00FFD00
ENDCHAR
STARTCHAR wacute
ENCODING 7811
SWIDTH 776 0
DWIDTH 22 0
BBX 21 23 0 0
BITMAP
000000200000
000000BC0000
000002FF0000
00000BFD0000
00001FF40000
00001F800000
000006000000
000000000000
000000000000
7FC03FC03FC0
3FC07FC03F80
2FD07FD07F40
1FD0BFE07F40
1FE0FFE0BF00
0FF0FBF0FE00
0BF1F6F4FE00
07F6F6F9FD00
07F6F1F9FC00
03FBF0FEF800
02FFE0FFF800
01FFD0BFF400
01FFD07FF000
00FFC07FF000
ENDCHAR
STARTCHAR Wdieresis
ENCODING 7812
SWIDTH 813 0
DWIDTH 23 0
BBX 23 24 0 0
BITMAP
0002E02E0000
000BF07F4000
000BF07F4000
0002E02E0000
000000000000
000000000000
BF801FD00BF4
7FC02FE00BF0
3FC02FF00FF0
3FC03FF00FE0
2FD07FF41FE0
2FD0BFF81FD0
1FE0BEF82FD0
1FE0FDFC2FC0
0FF1FCFD2FC0
0BF1F8FD3F80
0BF2F4BE3F80
07F6F47F7F40
07F7F07F7F00
03FBE03FBF00
03FFE02FFE00
02FFD02FFE00
02FFD01FFD00
01FFC00FFD00
ENDCHAR
ENDFONT
